<?xml version="1.0" standalone="no"?>
<!DOCTYPE svg PUBLIC "-//W3C//DTD SVG 1.1//EN" "http://www.w3.org/Graphics/SVG/1.1/DTD/svg11.dtd" >
<svg xmlns="http://www.w3.org/2000/svg">
<metadata></metadata>
<defs>
<font id="regionbretagnebold" horiz-adv-x="1187" >
<font-face units-per-em="2048" ascent="1536" descent="-512" />
<missing-glyph horiz-adv-x="450" />
<glyph unicode="&#xfb01;" horiz-adv-x="1236" d="M27 -133q0 14 16 14q3 0 15 -5t33.5 -10t47.5 -5q92 0 92 71q0 13 -9 56t-9 82v714q0 28 -5.5 34.5t-27.5 6.5h-102q-12 0 -17.5 3.5t-5.5 17.5l4 67q-4 50 -4 66q0 18 19 18h104q4 0 10.5 -4t10.5 -4q11 0 14 47q14 193 156.5 309.5t367.5 116.5q89 0 119 -10 q16 -3 16 -20l-10 -70v-113q0 -14 -14 -14q-3 0 -43 5t-84 5q-134 0 -191 -49t-57 -141q0 -32 12 -45t47 -13h414q3 0 61.5 7.5t67.5 7.5q19 0 19 -27q0 -8 -2 -33t-2 -32v-746q0 -46 8 -101.5t8 -60.5q0 -14 -14 -14l-125 8q-99 -8 -117 -8q-27 0 -27 20q0 6 2 24.5t2 31.5 v698q0 32 -9.5 44.5t-39.5 12.5h-243q-14 0 -27.5 2.5t-20.5 2.5q-10 0 -10 -50v-739q0 -185 -90.5 -286t-228.5 -101q-71 0 -113 20q-11 4 -14.5 10t-3.5 19l6 82q-6 76 -6 78z" />
<glyph unicode="&#xfb02;" horiz-adv-x="1312" d="M27 -133q0 14 16 14q3 0 15 -5t33.5 -10t47.5 -5q47 0 69.5 19.5t22.5 47.5q0 13 -9 58t-9 84v714q0 28 -5.5 34.5t-27.5 6.5h-102q-23 0 -23 21l4 67q-4 62 -4 66q0 18 19 18h104q4 0 10.5 -4t10.5 -4q14 0 14 51q15 193 141.5 301.5t325.5 108.5q48 0 117.5 -9t95.5 -9 q34 0 118 13t97 13q10 0 10 -18q0 -9 -5 -50t-5 -65v-1012q0 -62 19 -87t65 -25q35 0 67 14t35 14q15 0 15 -16l-11 -88q11 -68 11 -84q0 -12 -17 -23q-63 -38 -174 -38q-272 0 -272 286v881q0 47 -13 67.5t-47 26.5q-51 10 -133 10q-180 0 -180 -170q0 -55 11 -69.5 t48 -14.5h154h11t6 -2t3.5 -5t0.5 -9q0 -51 -5 -66v-63q0 -18 -6 -22.5t-24 -4.5h-137q-14 0 -28 3t-20 3q-10 0 -10 -47v-739q0 -185 -90.5 -286t-228.5 -101q-71 0 -113 20q-11 4 -14.5 10t-3.5 19l6 82q-6 76 -6 78z" />
<glyph unicode="&#xfb03;" horiz-adv-x="1896" d="M27 -154q0 15 16 15q3 0 15 -5.5t33.5 -10.5t47.5 -5q47 0 69.5 20t22.5 48q0 13 -9 57.5t-9 83.5v735q0 28 -5.5 34.5t-27.5 6.5h-102q-12 0 -17.5 3.5t-5.5 17.5l4 67q-4 50 -4 66q0 18 19 18h104q4 0 10.5 -4t10.5 -4q11 0 14 51q15 185 146.5 296.5t318.5 111.5 q62 0 82 -8q14 -5 14 -23l-10 -71v-111q0 -16 -14 -16q-8 0 -38.5 6t-49.5 6q-97 0 -143 -38.5t-46 -121.5q0 -47 11 -60.5t48 -13.5h299q3 0 9 -4t10 -4q7 0 10 9.5t6 37.5q14 193 156 309.5t367 116.5q85 0 120 -10q15 -2 15 -20l-11 -70v-113q0 -14 -12 -14q-3 0 -43.5 5 t-85.5 5q-134 0 -190 -49t-56 -141q0 -33 11.5 -45.5t48.5 -12.5h411q4 0 62 7.5t67 7.5q12 0 15.5 -5.5t3.5 -21.5q0 -8 -1 -33t-1 -32v-746q0 -46 7 -101.5t7 -60.5q0 -14 -14 -14l-123 8q-101 -8 -119 -8q-14 0 -19 4.5t-5 15.5q0 6 1 24.5t1 31.5v698q0 31 -9.5 42 t-39.5 11h-244q-12 0 -26 3t-21 3q-11 0 -11 -47v-657q0 -185 -90.5 -286t-228.5 -101q-71 0 -113 20q-16 7 -16 29l4 82q-4 76 -4 78q0 14 14 14q3 0 15 -5t34 -10t48 -5q48 0 70 19.5t22 47.5q0 13 -8.5 58t-8.5 84v632q0 29 -5.5 37t-26.5 8h-299q-14 0 -27.5 2.5 t-20.5 2.5q-10 0 -10 -50v-759q0 -185 -90.5 -286t-228.5 -101q-71 0 -113 20q-11 4 -14.5 10t-3.5 19l6 82q-6 75 -6 77z" />
<glyph unicode="&#xfb04;" horiz-adv-x="1974" d="M27 -154q0 15 16 15q3 0 15 -5.5t33.5 -10.5t47.5 -5q47 0 69.5 20t22.5 48q0 13 -9 57.5t-9 83.5v735q0 28 -5.5 34.5t-27.5 6.5h-102q-12 0 -17.5 3.5t-5.5 17.5l4 67q-4 50 -4 66q0 18 19 18h104q4 0 10.5 -4t10.5 -4q11 0 14 51q15 185 146.5 296.5t318.5 111.5 q62 0 82 -8q14 -5 14 -23l-10 -71v-111q0 -16 -14 -16q-8 0 -38.5 6t-49.5 6q-97 0 -143 -38.5t-46 -121.5q0 -47 11 -60.5t48 -13.5h299q3 0 9 -4t10 -4q10 0 16 51q13 192 140 301t325 109q50 0 119 -9t94 -9q34 0 118 13t97 13q10 0 10 -18q0 -9 -5 -50t-5 -65v-1012 q0 -63 19 -87.5t67 -24.5q35 0 67 14t36 14q8 0 10 -3t2 -13l-8 -88q8 -68 8 -84q0 -14 -14 -23q-63 -38 -177 -38q-272 0 -272 286v873q0 54 -11.5 75t-45.5 27q-54 10 -135 10q-87 0 -133 -43t-46 -127q0 -55 10.5 -69.5t49.5 -14.5h153q9 0 12.5 -0.5t6 -4t2.5 -11.5 q0 -4 -2 -33.5t-2 -32.5v-63q0 -18 -7 -22.5t-26 -4.5h-137q-13 0 -26 3t-19 3q-8 0 -10.5 -9t-2.5 -38v-657q0 -185 -90.5 -286t-228.5 -101q-71 0 -113 20q-16 7 -16 29l4 82q-4 76 -4 78q0 14 14 14q3 0 15 -5t34 -10t48 -5q48 0 70 20t22 47q0 13 -8.5 58t-8.5 84v632 q0 29 -5.5 37t-26.5 8h-299q-14 0 -27.5 2.5t-20.5 2.5q-10 0 -10 -50v-759q0 -185 -90.5 -286t-228.5 -101q-71 0 -113 20q-11 4 -14.5 10t-3.5 19l6 82q-6 75 -6 77z" />
<glyph horiz-adv-x="2048" />
<glyph horiz-adv-x="2048" />
<glyph unicode="&#xd;" horiz-adv-x="2048" />
<glyph unicode=" "  horiz-adv-x="450" />
<glyph unicode="&#x09;" horiz-adv-x="450" />
<glyph unicode="&#xa0;" horiz-adv-x="450" />
<glyph unicode="!" horiz-adv-x="686" d="M184 1384q0 19 7 26t24 7l109 -4q139 6 147 6q18 0 24.5 -5t6.5 -23q0 -12 -4.5 -47.5t-5.5 -53.5l-46 -616q-8 -122 -8 -221q0 -15 -4.5 -20t-15.5 -5l-88 6q-54 -8 -66 -8q-16 0 -16 27q0 125 -8 221l-50 633q-6 75 -6 77zM221 221q0 41 31 41h186q31 0 31 -43 q0 -17 -5 -46.5t-5 -35.5q0 -11 5 -45t5 -49q0 -43 -29 -43h-186q-31 0 -31 47q0 15 2 49t2 45q0 9 -3 37.5t-3 42.5z" />
<glyph unicode="&#x22;" horiz-adv-x="776" d="M68 1391q0 15 7 19.5t29 4.5h213q21 0 30 -4.5t9 -17.5q0 -8 -16 -99.5t-18 -132.5l-15 -184q-1 -16 -8 -20.5t-27 -4.5h-129q-18 0 -23 5t-7 20l-15 184q-2 44 -16 134t-14 96zM420 1391q0 15 7.5 19.5t29.5 4.5h213q22 0 30.5 -4.5t8.5 -17.5q0 -10 -16 -101.5 t-19 -130.5l-12 -184q-1 -16 -8.5 -20.5t-26.5 -4.5h-131q-18 0 -23.5 5.5t-7.5 19.5l-14 184q-2 44 -16.5 134t-14.5 96z" />
<glyph unicode="#" d="M104 147l31 111q12 86 12 92q0 4 1 6.5t4.5 4.5t8 3t13 2t18 1.5t25.5 2.5t33 5l82 12l35 160l-140 -21q-12 -2 -26 -2q-11 0 -11 8l31 111q12 84 12 90q0 3 0.5 5.5t2.5 4.5t4.5 3t7 2t10 1.5t14 1t17 1.5t21.5 2.5t26 3.5l82 12l35 148q5 20 8 40t4 29.5t2.5 17.5 t4.5 10.5t9 2.5l56 -6q51 6 65 6q10 0 10 -12q0 -11 -8 -43l-39 -170l195 30l22 95q5 20 8 40t4 29.5t3 17.5t5 10.5t9 2.5l55 -6q52 6 66 6q10 0 10 -12q0 -11 -8 -43l-27 -117l137 22q16 2 31 2q8 0 8 -10l-22 -98q-17 -90 -17 -96t-1.5 -9.5t-4.5 -5.5t-7.5 -2.5 l-13.5 -1.5t-19.5 -1.5t-27.5 -2.5t-36 -6l-78 -14l-37 -160l139 20q5 1 10 1.5t8 1t6.5 1t6.5 0.5q8 0 8 -10l-22 -98q-17 -92 -17 -98t-1.5 -10t-5 -6t-7.5 -3t-13 -2t-19 -1.5t-28 -2t-36 -4.5l-80 -12l-25 -115q-4 -18 -7.5 -35t-5 -28.5t-3 -21.5t-2.5 -16t-2 -11.5 t-2 -8t-3.5 -4t-5 -2t-7.5 -0.5l-58 6q-53 -4 -61 -4q-11 0 -11 4t1.5 9.5t4.5 16t5 21.5l37 166l-195 -31l-14 -61q-4 -18 -7.5 -35t-5 -28.5t-3.5 -21.5t-2.5 -16t-1.5 -11.5t-2 -8t-3.5 -4t-5 -2t-6.5 -0.5l-58 6q-55 -4 -63 -4q-10 0 -10 4q0 2 10 47l25 113l-140 -21 q-24 -4 -26 -4q-11 0 -11 8zM477 410l197 30l35 160l-195 -29z" />
<glyph unicode="$" d="M172 131q0 7 13 28t27 39l13 17q23 96 39 96q21 0 45 -30q128 -103 297 -103q142 0 142 96q0 30 -23.5 53t-61.5 36t-87 28.5t-100.5 29t-100.5 37.5t-87 55t-61.5 81.5t-23.5 114.5q0 113 66.5 195t176.5 112v125q0 11 -4 38t-4 38q0 9 4 11.5t15 2.5h78q16 0 16 -14 q0 -10 -5 -36t-5 -38v-111q32 4 63 4q30 0 62 -4v113q0 13 -4.5 35.5t-4.5 33.5q0 17 19 17h72q18 0 18 -19q0 -10 -3 -30.5t-3 -30.5v-127q128 -24 192 -66q29 -18 29 -36q0 -7 -10.5 -28t-20.5 -38l-10 -18q-10 -47 -18 -70q-11 -33 -23 -33q-9 0 -33 19q-49 42 -119 66 t-143 24q-143 0 -143 -92q0 -29 24 -51.5t63 -35.5t89 -28.5t102.5 -29t102.5 -39t89 -57t63 -84t24 -118.5q0 -127 -72 -204.5t-201 -106.5v-127q0 -11 4.5 -34t4.5 -34q0 -9 -4.5 -11.5t-18.5 -2.5h-76q-12 0 -12 10q0 11 4 36t4 36v113q-28 -4 -61 -4q-46 0 -64 2v-105 q0 -13 3 -37t3 -37q0 -8 -3.5 -11t-14.5 -3h-70q-16 0 -16 14q0 11 2 37t2 37v115q-146 24 -239 102q-21 18 -21 37z" />
<glyph unicode="%" horiz-adv-x="1515" d="M109 758q0 130 74.5 205t205.5 75q130 0 201.5 -71.5t71.5 -206.5q0 -125 -72.5 -202t-204.5 -77q-136 0 -206 73t-70 204zM297 762q0 -135 88 -135t88 131q0 135 -86 135q-90 0 -90 -131zM367 8q0 16 30 64l533 821q18 28 33 54t21.5 38.5t13 22.5t11 13t11.5 3l70 -6 h57q10 0 10 -8q0 -6 -43 -70l-504 -780q-23 -35 -42.5 -67.5t-29 -50t-17.5 -31t-13 -18.5t-10 -5l-62 12h-61q-8 0 -8 8zM854 256q0 130 75 205.5t204 75.5q131 0 202.5 -71.5t71.5 -207.5q0 -125 -73 -201.5t-206 -76.5q-136 0 -205 72t-69 204zM1042 260q0 -135 86 -135 q91 0 91 131q0 135 -89 135q-88 0 -88 -131z" />
<glyph unicode="&#x26;" horiz-adv-x="1488" d="M88 446q0 127 59.5 222.5t151.5 138.5q9 6 25 6q6 0 25 -10t28 -10q22 0 22 14q0 3 -2.5 8t-7 10.5t-8.5 10t-10.5 11.5t-10.5 11q-75 87 -75 213q0 150 100.5 234t271.5 84q159 0 256 -76.5t97 -208.5q0 -204 -230 -299q-30 -11 -30 -25q0 -10 28 -41q32 -40 94.5 -93 t118.5 -85q21 -14 21 -22q0 -9 -22 -30.5t-44 -38.5l-22 -17q-77 -80 -93 -80q-14 0 -38 12q-62 32 -137.5 101.5t-120.5 131.5q-22 31 -46 31q-13 0 -30 -10q-84 -55 -84 -184q0 -123 83.5 -187.5t237.5 -64.5q198 0 311 117t113 301q0 22 11.5 44t11.5 25q0 8 -10 8 q-8 0 -25.5 -3t-26.5 -3h-55q-12 0 -16 4.5t-4 16.5q0 9 3.5 29t6.5 36l4 15q-6 67 -6 77q0 19 24 19h273q16 0 34.5 5t24.5 5q16 0 19 -18q14 -72 14 -189t-29 -223t-88.5 -195t-142.5 -154.5t-197.5 -102.5t-247.5 -37q-292 0 -451 121.5t-159 344.5zM530 1075 q0 -32 18 -71.5t44 -67.5q18 -18 31 -18q12 0 39 10q114 48 114 164q0 112 -121 112q-125 0 -125 -129z" />
<glyph unicode="'" horiz-adv-x="423" d="M68 1391q0 15 7 19.5t29 4.5h213q21 0 30 -4.5t9 -17.5q0 -8 -16 -99.5t-18 -132.5l-15 -184q-1 -16 -8 -20.5t-27 -4.5h-129q-18 0 -23 5t-7 20l-15 184q-2 44 -16 134t-14 96z" />
<glyph unicode="(" horiz-adv-x="772" d="M106 532q0 181 29 329t80 249.5t121 171t150.5 101.5t170.5 32q17 0 17 -12v-78q16 -74 16 -86q0 -9 -3.5 -11.5t-12.5 -2.5q-164 0 -240 -169.5t-76 -523.5q0 -398 70 -561.5t244 -163.5q12 0 16 -3t4 -15l-14 -80v-80q0 -12 -19 -12q-553 0 -553 915z" />
<glyph unicode=")" horiz-adv-x="772" d="M80 1243l14 80v80q0 12 19 12q553 0 553 -915q0 -181 -29 -329t-80 -249.5t-121 -171t-150.5 -101.5t-170.5 -32q-17 0 -17 12v78q-16 74 -16 86q0 9 3.5 11.5t12.5 2.5q164 0 240 169.5t76 523.5q0 398 -70 561.5t-244 163.5q-12 0 -16 3t-4 15z" />
<glyph unicode="*" horiz-adv-x="972" d="M96 1065q0 6 9 28.5l17 42.5l9 19q19 88 35 88t70.5 -29.5t66.5 -29.5q5 0 13 8.5t22.5 21.5t32.5 21q26 10 26 35q0 8 -6 59t-6 62q0 26 25 26l77 -4q64 4 78 4q25 0 25 -22q0 -5 -9.5 -63t-9.5 -62t0.5 -7.5t2 -6t3 -4.5t4 -4t4 -3t5.5 -3l6 -3q16 -8 31.5 -21 t24.5 -20.5t16 -7.5q12 0 70 25.5t75 25.5q7 0 15.5 -23.5t13.5 -47.5l4 -23q31 -72 31 -84q0 -13 -27 -19l-113 -22q-13 -3 -17 -8t-7 -21q-3 -28 -14 -54t-11 -30q0 -9 12 -24l70 -78q14 -16 14 -31q0 -8 -19 -23t-37 -25l-19 -11q-58 -58 -72 -58q-17 0 -25 19l-61 113 q-8 16 -21 16q-7 0 -22.5 -2t-22.5 -2q-8 0 -24 2t-25 2q-11 0 -22 -19l-49 -102q-11 -24 -25 -24q-5 0 -24.5 16t-36.5 32l-17 15q-84 37 -84 53q0 13 10 25l86 90q9 9 9 18q0 5 -9.5 29t-13.5 47q-5 21 -9 26t-22 9l-104 22q-29 6 -29 21zM389 1034q0 -47 25 -72.5 t71 -25.5q45 0 71 26t26 72t-26.5 72.5t-70.5 26.5q-45 0 -70.5 -26t-25.5 -73z" />
<glyph unicode="+" d="M141 455v131q0 20 7 25t32 5h285q13 0 18.5 8.5t5.5 28.5v289q0 26 6.5 32.5t28.5 6.5h140q23 0 28.5 -6.5t5.5 -34.5v-287q0 -21 8.5 -29t32.5 -8h271q24 0 30.5 -5.5t6.5 -26.5v-133q0 -24 -4.5 -29.5t-28.5 -5.5h-283q-21 0 -27 -7.5t-6 -33.5v-293q0 -25 -6.5 -32 t-29.5 -7h-140q-19 0 -26 7t-7 30v297q0 25 -6 32t-30 7h-275q-25 0 -31 6.5t-6 32.5z" />
<glyph unicode="," horiz-adv-x="544" d="M51 -311q0 56 62 225q28 79 37.5 127t9.5 113q0 10 -3 36.5t-3 38.5q0 18 5.5 25.5t20.5 7.5h197q15 0 19.5 -6.5t4.5 -24.5q0 -13 -3 -42.5t-3 -38.5q0 -68 -6 -95t-33 -82l-71 -139q-71 -138 -113 -180z" />
<glyph unicode="-" horiz-adv-x="667" d="M102 434v187q0 18 7 22t30 4h264q42 0 85.5 1t48.5 1q17 0 22.5 -5.5t5.5 -22.5v-187q0 -18 -8 -22t-37 -4h-254q-37 0 -82 -4.5t-51 -4.5q-19 0 -25 6.5t-6 28.5z" />
<glyph unicode="." horiz-adv-x="538" d="M145 221q0 41 31 41h186q29 0 29 -43q0 -17 -4 -44t-4 -38q0 -16 5 -48t5 -46q0 -22 -5.5 -32.5t-22.5 -10.5h-187q-31 0 -31 47q0 14 2.5 46t2.5 48q0 12 -3.5 39t-3.5 41z" />
<glyph unicode="/" horiz-adv-x="892" d="M25 8q0 5 4 11.5t14 25t20 43.5l486 1163q33 81 48.5 114t24.5 42.5t23 9.5q4 0 78.5 -3t77.5 -3h57q10 0 10 -10q0 -5 -5 -14.5t-16 -29.5t-20 -42l-462 -1112q-83 -198 -88 -208q-9 -14 -15 -15q-1 0 -21.5 10t-43.5 10h-162q-10 0 -10 8z" />
<glyph unicode="0" horiz-adv-x="1114" d="M88 508q0 256 123.5 393t347.5 137q223 0 345 -138t122 -392q0 -247 -120 -387.5t-349 -140.5q-232 0 -350.5 140t-118.5 388zM371 508q0 -165 42 -240t144 -75t144 75.5t42 239.5q0 165 -40.5 241t-145.5 76q-103 0 -144.5 -77t-41.5 -240z" />
<glyph unicode="1" horiz-adv-x="995" d="M102 213q0 16 23 16q4 0 16 -1t21 -1h219q53 0 53 15q0 5 -5 19.5t-5 25.5v461q0 40 -25 40q-10 0 -30 -4l-219 -43q-8 -4 -15 -4q-10 0 -10 13l8 96q-6 62 -6 82q0 19 16 24l301 56q5 2 18 9t25 7l80 -4q90 4 113 4q14 0 14 -16q0 -7 -3 -28t-3 -30v-667q0 -32 8.5 -43 t36.5 -11h176q17 0 22.5 -1t9 -5t3.5 -14l-10 -86q10 -87 10 -103q0 -20 -18 -20l-389 6q-361 -6 -408 -6q-14 0 -18.5 5.5t-4.5 19.5l7 98q-11 72 -11 90z" />
<glyph unicode="2" horiz-adv-x="1075" d="M88 207q0 11 6.5 17.5t26.5 13.5q264 95 383 182t119 203q0 86 -57 135t-160 49q-140 0 -228 -51q-13 -8 -24 -8q-15 0 -15 16l8 117q-8 80 -8 92q0 14 15 20q127 45 303 45q212 0 329 -96.5t117 -269.5q0 -70 -24 -130t-68.5 -106t-96 -80.5t-118.5 -66.5 q-51 -22 -51 -35q0 -21 37 -21q2 0 50.5 8.5t57.5 8.5h273q15 0 19.5 -4t4.5 -21l-10 -96q8 -86 8 -106q0 -15 -7 -19t-28 -4l-422 8q-362 -8 -403 -8q-19 0 -26 5t-7 22l8 84q-12 80 -12 96z" />
<glyph unicode="3" horiz-adv-x="1089" d="M92 133v74q0 26 23 26h106q93 15 105 15q10 0 10 -15q0 -6 -2 -26t-2 -27q0 -98 48.5 -148t139.5 -50q92 0 140.5 46.5t48.5 137.5q0 84 -46.5 128t-127.5 44h-93q-15 0 -20.5 3.5t-5.5 16.5l10 86q-8 79 -8 93q0 11 2.5 14.5t11.5 3.5q6 0 49.5 -1t50.5 -1 q69 0 106.5 34.5t37.5 94.5q0 133 -180 133q-177 0 -271 -59q-12 -6 -20 -6q-15 0 -15 14l9 110q-9 71 -9 89q0 13 11 18q111 57 340 57q181 0 295 -79.5t114 -229.5q0 -71 -31.5 -126.5t-89.5 -86.5q-3 -2 -88 -27q-14 -5 -19 -9.5t-5 -14.5q0 -22 24 -29 q121 -21 185.5 -103t64.5 -196q0 -176 -127 -274.5t-336 -98.5q-211 0 -323.5 98.5t-112.5 270.5z" />
<glyph unicode="4" horiz-adv-x="1114" d="M80 270q0 135 110 295l308 455q9 12 22 12l125 -14h115q22 0 22 -14q0 -11 -16 -33l-414 -586q-47 -65 -47 -94q0 -51 96 -51h213q25 0 31 5.5t6 26.5v320q0 17 4 21.5t17 4.5l82 -10q117 13 133 13q20 0 20 -13q0 -6 -2 -20t-2 -21v-288q0 -14 8 -19.5t29 -5.5h86 q23 0 23 -16q0 -13 -4.5 -71.5t-4.5 -60.5q2 -3 6.5 -28t4.5 -33q0 -16 -31 -16h-82q-20 0 -27.5 -8.5t-7.5 -32.5v-142q0 -15 2 -32t2 -21q0 -8 -10 -8l-123 4q-92 -4 -106 -4q-12 0 -16.5 2.5t-4.5 11.5q0 7 2 22t2 23v144q0 7 4 16.5t4 15.5q0 9 -43 9h-284 q-118 0 -185 64t-67 177z" />
<glyph unicode="5" horiz-adv-x="1050" d="M133 -133l14 119v100q0 14 11 14q6 0 16 -10q41 -43 118 -67.5t169 -24.5q223 0 223 178q0 88 -50.5 127t-164.5 39h-307q-23 0 -23 20v289q0 195 101 291t309 96q94 0 189 -14.5t145 -40.5q10 -7 10 -20l-4 -82q4 -122 4 -140q0 -16 -12 -16q-3 0 -23 10 q-107 70 -276 70q-109 0 -154 -46.5t-45 -150.5v-78q0 -32 6.5 -42.5t28.5 -10.5q23 0 91 17.5t120 17.5q158 0 248 -91.5t90 -260.5q0 -182 -132.5 -289t-340.5 -107q-232 0 -344 68q-17 10 -17 35z" />
<glyph unicode="6" horiz-adv-x="1079" d="M88 547q0 342 136.5 524t396.5 182q94 0 183 -18.5t142 -48.5q19 -10 19 -25l-15 -82l-8 -133q0 -12 -12 -12q-11 0 -19 8q-42 35 -114 56.5t-144 21.5q-127 0 -192 -72t-68 -203q0 -9 -11 -39t-11 -34q0 -10 7 -15.5t15 -5.5q10 0 33 21t49.5 45.5t70 45.5t89.5 21 q157 0 256.5 -96.5t99.5 -288.5q0 -201 -124.5 -310t-323.5 -109q-214 0 -334.5 150.5t-120.5 416.5zM373 406q0 -110 45 -165t123 -55q80 0 125 55t45 158q0 107 -45.5 161t-124.5 54q-76 0 -122 -51.5t-46 -156.5z" />
<glyph unicode="7" horiz-adv-x="1046" d="M70 786l12 99q-6 106 -6 112q0 21 26 21h639q104 0 169 -54t65 -155q0 -97 -92 -262l-430 -766q-7 -12 -19 -12l-117 16h-149q-14 0 -14 12q0 10 6 19l450 790q16 29 42.5 57t43.5 45.5t17 26.5q0 19 -25 25t-86 6h-508q-24 0 -24 20z" />
<glyph unicode="8" horiz-adv-x="1095" d="M88 334q0 97 50.5 175.5t154.5 123.5q16 8 16 20q0 18 -18 25q-84 37 -122 101.5t-38 162.5q0 151 114 231t306 80q191 0 301.5 -77t110.5 -238q0 -173 -154 -250q-25 -12 -25 -24t25 -23q98 -41 148.5 -120t50.5 -187q0 -169 -122.5 -261.5t-355.5 -92.5 q-223 0 -332.5 90.5t-109.5 263.5zM381 373q0 -193 166 -193q168 0 168 189q0 95 -45 141.5t-121 46.5t-122 -45.5t-46 -138.5zM399 903q0 -174 148 -174q70 0 109.5 42.5t39.5 127.5q0 154 -147 154q-73 0 -111.5 -34t-38.5 -116z" />
<glyph unicode="9" horiz-adv-x="1079" d="M88 618q0 201 125 310.5t324 109.5q214 0 334 -152.5t120 -420.5q0 -343 -137 -522t-395 -179q-99 0 -188.5 20t-139.5 52q-18 9 -18 27l14 82l8 129q0 12 10 12q12 0 23 -8q41 -37 111 -58.5t147 -21.5q129 0 193.5 72t66.5 209q0 7 9.5 31.5t9.5 29.5q0 18 -25 18 q-13 0 -38 -19.5t-50.5 -43t-66.5 -43t-81 -19.5q-157 0 -256.5 96.5t-99.5 288.5zM369 618q0 -107 45.5 -161t124.5 -54q78 0 123 50.5t45 158.5q0 110 -45 164.5t-123 54.5q-79 0 -124.5 -55t-45.5 -158z" />
<glyph unicode=":" horiz-adv-x="614" d="M184 221q0 41 31 41h186q29 0 29 -43q0 -17 -4 -44t-4 -38q0 -16 5 -48t5 -46q0 -43 -29 -43h-186q-31 0 -31 47q0 14 2 46t2 48q0 12 -3 39t-3 41zM184 975q0 43 31 43h186q29 0 29 -43q0 -17 -4 -44t-4 -38q0 -16 5 -48t5 -46q0 -43 -29 -43h-186q-31 0 -31 47 q0 14 2 46t2 48q0 13 -3 39t-3 39z" />
<glyph unicode=";" horiz-adv-x="614" d="M84 -311q0 59 61 225q28 80 38 127.5t10 112.5q0 10 -3.5 36.5t-3.5 38.5q0 33 27 33h197q15 0 19.5 -6.5t4.5 -24.5q0 -13 -3 -42.5t-3 -38.5q0 -68 -6 -95t-33 -82l-72 -139q-72 -140 -112 -180zM184 975q0 43 31 43h186q29 0 29 -43q0 -17 -4 -44t-4 -38q0 -16 5 -48 t5 -46q0 -43 -29 -43h-186q-31 0 -31 47q0 14 2 46t2 48q0 13 -3 39t-3 39z" />
<glyph unicode="&#x3c;" d="M205 514q0 12 14 29l459 348q16 19 29 24t41 5h213q20 0 20 -13q0 -10 -10 -20l-463 -340q-16 -11 -16 -27q0 -15 16 -28l461 -349q14 -19 14 -22q0 -17 -25 -17h-219q-21 0 -32.5 5.5t-28.5 23.5l-457 350q-16 24 -16 31z" />
<glyph unicode="=" d="M154 236v129q0 20 7 26t32 6h804q24 0 30.5 -6t6.5 -29v-131q0 -25 -4 -29.5t-29 -4.5h-811q-25 0 -30.5 6.5t-5.5 32.5zM154 678v129q0 20 7 26.5t32 6.5h804q24 0 30.5 -6t6.5 -29v-131q0 -25 -4.5 -30t-28.5 -5h-811q-25 0 -30.5 6.5t-5.5 32.5z" />
<glyph unicode="&#x3e;" d="M205 903q0 17 24 17h220q19 0 31 -5.5t30 -23.5l457 -350q16 -24 16 -31q0 -12 -14 -29l-459 -348q-18 -20 -30.5 -24.5t-39.5 -4.5h-213q-20 0 -20 13q0 10 10 20l463 340q14 9 14 27q0 16 -14 28l-461 349q-14 19 -14 22z" />
<glyph unicode="?" horiz-adv-x="1001" d="M143 1311q0 18 25 35q60 41 145.5 65.5t178.5 24.5q177 0 277.5 -80.5t100.5 -229.5q0 -61 -26 -113.5t-67 -89.5t-90.5 -69t-99.5 -57t-91 -48t-67 -48t-26 -50q0 -67 82 -67q42 0 85 21t65 52q3 4 6 8.5t4.5 6.5t3.5 4.5t4 3t4 0.5q14 0 19 -21l22 -71q37 -46 37 -64 q0 -17 -18 -35q-44 -46 -116 -72t-144 -26q-137 0 -209 64.5t-72 183.5q0 69 31.5 125t78 90t101.5 66.5t101.5 56.5t78 58.5t31.5 74.5q0 56 -36 84.5t-99 28.5q-112 0 -209 -74q-3 -2 -7.5 -5.5t-7 -5.5t-6.5 -3.5t-8 -1.5q-5 0 -14.5 23.5t-16.5 47.5l-6 23 q-45 66 -45 84zM326 47q0 15 2 49t2 45q0 9 -2 37.5t-2 42.5q0 20 5.5 30.5t22.5 10.5h189q28 0 28 -43q0 -17 -5 -46.5t-5 -35.5q0 -11 5 -45t5 -49q0 -22 -5 -32.5t-21 -10.5h-189q-18 0 -24 11.5t-6 35.5z" />
<glyph unicode="@" horiz-adv-x="1957" d="M84 467q0 213 71 389t196.5 295t298.5 184.5t376 65.5q250 0 442 -97.5t299 -281.5t107 -428q0 -122 -37 -226t-99.5 -174t-146 -109.5t-176.5 -39.5q-61 0 -112 14.5t-78 32.5t-51 32.5t-37 14.5q-15 0 -42 -14.5t-55 -32.5t-73.5 -32.5t-94.5 -14.5q-157 0 -241 99 t-84 262q0 127 39 237t105.5 185.5t156 118t188.5 42.5q54 0 100.5 -17t72 -38t50.5 -38t41 -17h123q19 0 19 -21l-101 -559q-2 -10 -2 -37q0 -88 105 -88q111 0 194.5 112.5t83.5 305.5q0 312 -189.5 490t-506.5 178q-359 0 -573.5 -213t-214.5 -574q0 -331 193 -522 t540 -191q88 0 168.5 12t126 27t79.5 27t39 12q11 0 11 -12l-11 -59v-50q0 -19 -6 -26t-28 -15q-159 -59 -389 -59q-208 0 -374.5 62.5t-276.5 175.5t-168 269t-58 343zM803 408q0 -85 33.5 -136t107.5 -51q39 0 63.5 7.5t44.5 24.5t34.5 54.5t26.5 85t28 129.5 q24 120 24 187q0 42 -30 68t-86 26q-77 0 -134 -56.5t-84.5 -145t-27.5 -193.5z" />
<glyph unicode="A" horiz-adv-x="1271" d="M25 25q0 36 20 104l340 1147q7 24 14 54t10.5 41.5t12.5 24t24 16t43 3.5l134 -6q147 6 161 6q41 0 58 -16t35 -76l340 -1147q34 -106 34 -151q0 -15 -5 -20t-17 -5h-148l-47 -5q-47 -5 -63 -5q-15 0 -20 4.5t-5 21.5q0 29 -16 88l-72 254q-2 8 -6 28t-7 30.5t-12.5 20 t-23.5 9.5q-11 0 -49 -14t-55 -14h-224q-38 0 -52 -9.5t-23 -43.5l-74 -261q-5 -20 -9 -41.5t-5.5 -33t-5 -21.5t-9.5 -14t-16 -4q-14 0 -64 5t-51 5h-123q-24 0 -24 25zM485 666q0 -21 31 -21h232q28 0 28 17q0 12 -4 24l-86 303q-8 26 -16.5 60t-14 54.5t-12 40.5t-13 29 t-14.5 9q-12 0 -16.5 -25t-10 -76.5t-16.5 -91.5l-84 -301q-4 -10 -4 -22z" />
<glyph unicode="B" horiz-adv-x="1234" d="M147 172v1194q0 47 13 47q3 0 14 -3t14 -3q1 0 156.5 11.5t259.5 11.5q498 0 498 -367q0 -177 -135 -258q-3 -2 -22 -11t-30.5 -17.5t-11.5 -16.5q0 -15 64 -39q98 -38 148 -121.5t50 -204.5q0 -193 -126.5 -304t-348.5 -111q-266 0 -399 139q-15 14 -32 17t-77 3 q-23 0 -29 6t-6 27zM428 432q0 -121 48 -175t167 -54q108 0 161.5 50t53.5 161q0 119 -65 165t-189 46h-121q-7 0 -25 6t-22 6q-8 0 -8 -45v-160zM428 874q0 -20 6 -27t25 -7h149q97 0 147 45t50 147q0 92 -50.5 135t-156.5 43q-91 0 -145 -8q-15 -1 -20 -10t-5 -31v-287z " />
<glyph unicode="C" horiz-adv-x="1243" d="M76 707q0 358 137.5 543.5t413.5 185.5q218 0 331 -113q20 -20 48 -20h96q16 0 16 -23l-4 -131q4 -143 4 -176q0 -18 -4 -22.5t-16 -4.5l-92 6q-81 -6 -95 -6q-20 0 -20 23q0 113 -59.5 168t-169.5 55q-143 0 -212 -109.5t-69 -365.5q0 -268 66.5 -380t220.5 -112 q119 0 180 59.5t61 174.5q0 22 19 22l100 -6q82 6 98 6q17 0 17 -24l-6 -144q6 -124 6 -151q0 -23 -23 -23h-82q-20 0 -43 -20q-136 -139 -374 -139q-274 0 -409.5 185.5t-135.5 541.5z" />
<glyph unicode="D" horiz-adv-x="1329" d="M129 1362q0 17 41 27q66 17 204.5 32t233.5 15q160 0 277 -39.5t201 -125.5t125.5 -228t41.5 -341q0 -354 -145.5 -538t-417.5 -184q-260 0 -399 139q-12 12 -32 16t-83 4q-17 0 -23 7t-6 26v1137q0 15 -9 30.5t-9 22.5zM430 487q0 -146 49 -207t180 -61q153 0 221 113.5 t68 372.5q0 120 -16.5 208t-45 142t-73 86.5t-93.5 44.5t-114 12q-89 0 -147 -10q-18 -3 -23.5 -13t-5.5 -36v-652z" />
<glyph unicode="E" horiz-adv-x="1185" d="M133 18q0 6 7 40t7 65v1198q0 52 22 73t71 21h768q24 0 24 -20l-8 -107q6 -94 6 -110t-4 -19.5t-18 -3.5q-19 0 -78.5 6t-100.5 6h-344q-53 0 -53 -18q0 -5 3 -18t3 -23v-215q0 -26 9 -34.5t36 -8.5h355q18 0 24 -6.5t6 -22.5l-6 -96q6 -78 6 -96q0 -11 -8 -18t-20 -7 h-348q-33 0 -43.5 -12t-10.5 -45v-236q0 -42 13.5 -53.5t60.5 -11.5h330q23 0 32.5 8t10.5 35l4 71q1 11 2.5 16.5t5.5 9t12 3.5l95 -6q80 6 94 6q18 0 18 -24l-6 -158q6 -156 6 -189q0 -24 -26 -24q-28 0 -143.5 3t-166.5 3h-602q-28 0 -36.5 3t-8.5 15z" />
<glyph unicode="F" horiz-adv-x="1105" d="M147 47v1276q0 52 21 72t70 20h776q22 0 22 -16l-8 -99q6 -104 6 -122q0 -14 -5 -18.5t-19 -4.5q-11 0 -76.5 6t-97.5 6h-355q-49 0 -49 -16q0 -7 3 -20t3 -21v-301q0 -25 9.5 -34t35.5 -9h467q18 0 23.5 -5t5.5 -20l-6 -96q8 -77 8 -102q0 -23 -29 -23h-460 q-33 0 -43.5 -12t-10.5 -45v-359q0 -21 4 -52.5t4 -39.5q0 -14 -14 -14l-139 8q-94 -8 -117 -8q-19 0 -24 8.5t-5 40.5z" />
<glyph unicode="G" horiz-adv-x="1286" d="M76 709q0 360 142.5 543.5t410.5 183.5q115 0 196 -26.5t144 -86.5q22 -20 49 -20h94q18 0 18 -23l-6 -143q6 -129 6 -164q0 -17 -5.5 -22t-16.5 -5l-90 4q-76 -4 -96 -4q-19 0 -19 27q0 106 -61.5 162.5t-171.5 56.5q-147 0 -218 -109.5t-71 -369.5q0 -185 32.5 -293.5 t93 -151.5t159.5 -43q112 0 167.5 47t55.5 125v52q0 45 -37 45h-102q-10 0 -27 -4.5t-21 -4.5q-14 0 -14 13l6 104q-2 66 -2 86q0 19 27 19h434q33 0 33 -19q0 -8 -11.5 -39t-11.5 -49v-270q0 -3 2 -72.5t2 -97.5q0 -21 -22 -21h-84q-27 0 -41 -14q-86 -79 -177 -112 t-222 -33q-274 0 -409.5 185t-135.5 544z" />
<glyph unicode="H" horiz-adv-x="1396" d="M145 1380q0 12 1 18t6 11.5t16 5.5l117 -6q121 10 131 10q15 0 20.5 -5.5t5.5 -22.5q0 -11 -2 -51t-2 -70v-365q0 -51 45 -51h428q50 0 50 53v367q0 15 -2.5 54.5t-2.5 47.5q0 22 6 30.5t25 8.5l123 -6q99 6 119 6q12 0 17.5 -4t6 -9t0.5 -20q0 -10 -1 -44t-1 -56v-1055 q0 -52 3 -121t3 -77q0 -17 -4.5 -23t-15.5 -6l-123 8q-107 -12 -123 -12q-20 0 -25 16.5t-5 71.5v467q0 52 -8.5 71t-30.5 19q-13 0 -50.5 -16.5t-58.5 -16.5h-330q-27 0 -36 -15t-9 -48v-391q0 -38 5.5 -82.5t5.5 -53.5q0 -20 -17 -20l-133 8q-101 -8 -117 -8 q-22 0 -28.5 26t-6.5 115v1123q0 23 -1 63t-1 55z" />
<glyph unicode="I" horiz-adv-x="583" d="M147 18v1336q0 38 5 49.5t24 11.5l123 -6q101 10 119 10q24 0 24 -26q0 -10 -2 -51t-2 -72v-1043q0 -65 6.5 -134.5t6.5 -74.5q0 -18 -17 -18l-131 8q-116 -18 -141 -18q-10 0 -12.5 6t-2.5 22z" />
<glyph unicode="J" horiz-adv-x="874" d="M45 1194l6 100q-6 80 -6 92q0 19 5 24t24 5h418q16 0 115 2t108 2q14 0 19 -5t5 -23q0 -8 -2 -47t-2 -68v-1065q0 -230 -119.5 -346.5t-316.5 -116.5q-104 0 -178 31q-21 8 -21 33l15 84v127q0 16 12 16q6 0 32.5 -11.5t79 -23.5t121.5 -12q47 0 69 22.5t22 71.5 q0 10 -3.5 61t-3.5 99v872q0 32 -5.5 41.5t-26.5 9.5h-336q-31 0 -31 25z" />
<glyph unicode="K" horiz-adv-x="1347" d="M143 20q0 6 1 39.5t2 83.5t1 97v1128q0 27 6 37t23 10l109 -4q121 6 133 6q14 0 18 -6t4 -22q0 -8 -1 -52.5t-1 -66.5v-381q0 -29 8 -38t35 -9h62q37 0 54 9.5t40 45.5l319 494q15 24 24.5 33.5t20.5 9.5l127 -27l125 -12q9 0 15 -5.5t6 -11.5q0 -16 -35 -63l-338 -484 q-35 -49 -35 -81q0 -25 29 -72l254 -416q20 -31 43 -42t65 -11h31q17 0 17 -25l-7 -86q7 -59 7 -82q0 -16 -25 -16l-160 4q-176 -4 -211 -4q-12 0 -15 4t-3 16q0 5 1 38.5t1 37.5q0 20 -8 33l-234 416q-27 48 -49.5 62t-66.5 14h-56q-41 0 -41 -46v-348q0 -50 2 -115t2 -75 q0 -23 -3 -30t-15 -7l-133 8q-113 -14 -131 -14q-17 0 -17 26z" />
<glyph unicode="L" horiz-adv-x="1157" d="M133 20q0 5 7 41t7 70v1233q0 24 1 33t7.5 14.5t20.5 5.5l107 -6q125 6 135 6q15 0 19.5 -6.5t4.5 -24.5q0 -12 -2 -57t-2 -74v-950q0 -37 14.5 -48t59.5 -11h283q33 0 45.5 8t13.5 31l8 118q2 16 7 22.5t18 6.5l100 -6q84 6 94 6q18 0 22.5 -3.5t4.5 -20.5l-4 -168 q6 -191 6 -220q0 -22 -25 -22q-14 0 -97.5 7t-84.5 7q-9 0 -42.5 -6t-49.5 -6h-627q-51 0 -51 20z" />
<glyph unicode="M" horiz-adv-x="1773" d="M133 18q0 3 3.5 29t7 69.5t3.5 90.5v1175q0 19 6.5 26t24.5 7l180 -6q113 8 144 8q18 0 25 -6t12 -22q4 -9 23 -70.5t45.5 -141t49.5 -137.5l162 -397q14 -34 28 -85t22.5 -77t17.5 -26q10 0 18.5 26t21 75.5t27.5 84.5l164 403q25 63 45.5 122.5t44.5 138t25 81.5 q6 20 13 26.5t24 6.5l207 -10q81 6 112 6q23 0 30 -8t7 -31v-1173q0 -52 6 -111.5t6 -68.5q0 -23 -16 -23l-111 6q-114 -12 -137 -12q-16 0 -20 8.5t-4 28.5v682q0 31 4 123t4 108q0 55 -15 55q-9 0 -20 -33t-40 -124.5t-66 -184.5l-168 -415q-25 -64 -25 -133 q0 -13 1 -42.5t1 -37.5q0 -20 -5 -25.5t-20 -5.5l-118 8q-107 -8 -121 -8q-17 0 -21 5.5t-4 23.5q0 10 2 37.5t2 37.5q0 72 -22 127l-174 430q-31 79 -60 170.5t-42.5 130.5t-24.5 39q-12 0 -12 -53q0 -20 5 -108t5 -119v-553q0 -28 2 -80t2 -61q0 -18 -4.5 -22.5 t-20.5 -4.5l-121 6q-100 -6 -120 -6q-21 0 -21 20z" />
<glyph unicode="N" horiz-adv-x="1390" d="M143 1391q0 26 21 26l102 -6q103 6 113 6q11 0 18 -8.5t16 -27t17 -29.5l444 -619q21 -29 43 -69t34 -61t18 -21q9 0 11.5 17t2.5 85v588q0 13 -1 55t-1 53q0 19 4.5 28t18.5 9l114 -6q95 6 105 6q14 0 19 -7t5 -30q0 -14 -1 -51t-1 -63v-1041q0 -47 1 -118.5t1 -81.5 q0 -17 -4 -21t-18 -4l-103 6q-92 -12 -110 -12q-12 0 -15.5 4.5t-3.5 17.5q0 68 -12.5 109.5t-50.5 91.5l-441 602q-17 24 -32.5 59t-23.5 56.5t-13 21.5q-6 0 -8 -12.5t-2 -54.5v-676q0 -58 2 -104t4 -69t2 -26q0 -9 -3.5 -12.5t-13.5 -3.5l-133 6q-84 -6 -96 -6 q-15 0 -20 7.5t-5 25.5v1251q0 16 -2 56t-2 53z" />
<glyph unicode="O" horiz-adv-x="1320" d="M76 707q0 363 143 546t447 183q581 0 581 -731q0 -373 -150.5 -549t-439.5 -176q-292 0 -436.5 180.5t-144.5 546.5zM381 707q0 -264 66.5 -376t211.5 -112t213 110t68 376q0 180 -30.5 288.5t-90.5 155.5t-157 47q-96 0 -156 -44.5t-92.5 -153.5t-32.5 -291z" />
<glyph unicode="P" horiz-adv-x="1212" d="M147 31v1333q0 31 23 37q63 12 188.5 20.5t223.5 8.5q121 0 219 -26.5t174.5 -81.5t119 -148.5t42.5 -219.5q0 -235 -129 -358t-340 -123q-35 0 -67 14.5t-51 31.5t-43 31.5t-46 14.5q-23 0 -23 -28v-328q0 -48 2 -84t4.5 -54.5t4.5 -30t4 -16.5t2 -8q0 -16 -25 -16 l-127 6q-115 -6 -133 -6q-13 0 -18 6.5t-5 24.5zM438 860q0 -83 34 -120.5t134 -37.5q118 0 175 61t57 195q0 123 -61.5 182.5t-190.5 59.5q-89 0 -121 -8q-18 -3 -22.5 -10.5t-4.5 -28.5v-293z" />
<glyph unicode="Q" horiz-adv-x="1351" d="M76 707q0 363 143 546t447 183q581 0 581 -731q0 -170 -86 -289q-15 -24 -58 -63.5t-76.5 -74t-33.5 -55.5q0 -7 3 -9.5t12 -2.5q13 0 71.5 27.5t96.5 27.5h124q15 0 21 -4t6 -14l-12 -131v-109q0 -20 -19 -20q-3 0 -37 6t-47 6h-266q-63 0 -164 -5t-125 -5 q-293 0 -437 176t-144 541zM381 707q0 -264 66.5 -375t211.5 -111q96 0 156 44.5t92.5 152t32.5 287.5t-30.5 288.5t-90.5 155.5t-157 47q-96 0 -156 -44.5t-92.5 -153.5t-32.5 -291z" />
<glyph unicode="R" horiz-adv-x="1263" d="M135 8q0 6 6 21t6 32v1305q0 31 23 37q172 27 418 27q258 0 396 -111t138 -324q0 -128 -64.5 -223.5t-170.5 -138.5q-23 -9 -23 -21t27 -24q31 -15 57 -37.5t43 -43t35.5 -55.5t27.5 -55t26 -63t24 -60q22 -51 39.5 -67.5t48.5 -16.5h39q18 0 18 -18l-6 -74q6 -62 6 -78 q0 -20 -20 -20l-144 6q-130 -6 -167 -6q-22 0 -29 27q-15 38 -36 93t-32.5 85.5t-28.5 73t-28.5 66.5t-26.5 54t-27.5 46t-28 33t-31.5 26.5t-34 13.5q-134 35 -157 35q-25 0 -25 -43v-479q0 -17 -4 -24t-18 -7l-133 6q-106 -6 -129 -6q-15 0 -15 8zM428 1161q0 -11 3 -55.5 t3 -69.5v-200q0 -41 9 -57t42 -23q57 -11 117 -11q225 0 225 236q0 115 -60.5 170t-184.5 55q-90 0 -127 -6q-27 -5 -27 -39z" />
<glyph unicode="S" horiz-adv-x="1173" d="M80 168l6 133q-2 123 -2 154q0 16 6.5 21t22.5 5l86 -6q84 6 94 6q14 0 19 -5.5t5 -20.5q0 -131 61.5 -184.5t196.5 -53.5q122 0 177 43.5t55 136.5q0 44 -23.5 77.5t-64 55.5t-92.5 40.5t-109.5 36.5t-115 38.5t-109.5 51t-92.5 70t-64 100.5t-23.5 137q0 207 133 319.5 t366 112.5q120 0 229 -26t179 -69q19 -11 25 -18t6 -20t-9.5 -40t-19.5 -48l-10 -21q-15 -89 -19 -107q-2 -12 -6 -17t-14 -5q-13 0 -21 8q-59 56 -155 90.5t-195 34.5q-194 0 -194 -166q0 -36 23.5 -63.5t64 -46t92.5 -34.5t109.5 -34t115 -39.5t109.5 -56t92.5 -78.5 t64 -111t23.5 -151q0 -203 -137.5 -320.5t-364.5 -117.5q-262 0 -385 145q-12 14 -35 14h-69q-19 0 -25 5.5t-6 23.5z" />
<glyph unicode="T" horiz-adv-x="1142" d="M43 1386q0 18 6 23.5t27 5.5h891q28 0 73.5 8.5t53.5 8.5q4 0 8 -4t4 -11l-4 -100q6 -111 6 -129q0 -14 -5 -18.5t-20 -4.5q-10 0 -52 2t-73 2h-180q-38 0 -49.5 -11.5t-11.5 -41.5v-915q0 -35 7 -104t7 -81q0 -10 -3.5 -13t-16.5 -3l-133 6q-111 -6 -136 -6 q-22 0 -22 16q0 6 3 38t3 61v987q0 10 7 28t7 27q0 12 -24 12h-269q-24 0 -52.5 -5t-33.5 -5q-14 0 -14 17l4 122q-8 72 -8 88z" />
<glyph unicode="U" horiz-adv-x="1361" d="M131 1395q0 22 23 22l147 -8q99 8 117 8t18 -18q0 -35 -3 -98t-3 -101v-598q0 -79 6 -133t21.5 -100.5t44 -73.5t73.5 -42t109 -15q144 0 197 85t53 277v717q0 23 -8 51.5t-8 34.5q0 9 4 11.5t16 2.5l143 -6q110 6 133 6q17 0 17 -20q0 -8 -3 -32.5t-3 -37.5v-784 q0 -563 -551 -563q-535 0 -535 563v751q0 30 -4 64.5t-4 36.5z" />
<glyph unicode="V" horiz-adv-x="1300" d="M39 1393q0 22 24 22h142q107 10 119 10q6 0 10.5 -2t7.5 -7t5.5 -12t5.5 -20.5t6 -27.5t8.5 -37t11.5 -47l192 -707q9 -33 19 -73t16 -63t13 -50t12.5 -41t11.5 -27.5t12 -18.5t13 -5q18 0 24.5 30.5t15.5 105.5t27 140l209 772q18 65 24.5 77.5t24.5 12.5l129 -10h121 q23 0 23 -18q0 -8 -7 -29.5t-23.5 -71t-31.5 -100.5l-293 -1001q-29 -96 -45 -134t-31.5 -49.5t-46.5 -11.5l-135 10q-115 -10 -135 -10q-31 0 -46.5 10t-33.5 49.5t-45 128.5l-323 1084q-4 13 -11.5 37.5t-10.5 35.5t-6 25t-3 23z" />
<glyph unicode="W" horiz-adv-x="2011" d="M76 1395q0 20 24 20h109q133 12 149 12q4 0 7 -1.5t6 -5t4.5 -7.5t3.5 -12.5l4 -17t4.5 -22.5t4.5 -28t6 -35t8 -41l129 -663q9 -46 17.5 -98.5t13 -84t10 -59.5t11 -40.5t13.5 -12.5q18 0 32 47t29.5 126.5t28.5 117.5l154 461q18 58 18 120q0 32 -2 78t-2 62q0 12 5 17 t18 5l133 -8q113 8 131 8q15 0 19.5 -5.5t4.5 -20.5q0 -3 -1 -57t-1 -76q0 -54 23 -127l141 -453q11 -36 32.5 -118t36 -121.5t27.5 -39.5q16 0 22.5 27.5t14.5 105.5t19 140l125 661q27 141 37 161q9 17 24 17q11 0 73.5 -5t74.5 -7h106q19 0 19 -12q0 -5 -7.5 -27 t-21.5 -72t-27 -110l-188 -897q-29 -137 -48.5 -203t-31.5 -80t-31 -14l-112 8q-120 -8 -132 -8q-27 0 -44.5 14.5t-45.5 77t-69 191.5l-137 438q-5 18 -13 52.5t-13.5 50.5t-12.5 16q-8 0 -14.5 -15t-15.5 -50.5t-13 -49.5l-148 -498q-32 -108 -55 -158t-37 -59.5t-41 -9.5 l-119 8q-102 -8 -125 -8q-28 0 -42.5 14t-30 62.5t-39.5 161.5l-201 946q-11 50 -24.5 99.5t-20 74.5t-6.5 37z" />
<glyph unicode="X" horiz-adv-x="1368" d="M61 20q0 24 41 89l293 479q39 65 51.5 91.5t12.5 47.5q0 31 -47 107l-318 522q-14 21 -14 37q0 20 20 20h140q139 19 147 19q10 0 15.5 -6.5t15.5 -26.5l211 -381q11 -19 23.5 -47.5t20.5 -38.5t21 -10q11 0 18.5 11t19 38.5t22.5 46.5l211 381q12 21 18 28t16 7l131 -21 h144q18 0 18 -18q0 -22 -37 -80l-299 -488q-41 -63 -41 -106q0 -22 11.5 -47.5t46.5 -83.5l276 -451q58 -93 58 -116q0 -21 -29 -21h-113q-11 -3 -72.5 -10.5t-80.5 -7.5q-14 0 -28 14.5t-38 56.5l-182 334q-21 37 -38 79.5t-25.5 58.5t-20.5 16q-14 0 -22 -14.5t-23.5 -55 t-36.5 -76.5l-192 -342q-7 -13 -14 -27t-10.5 -20.5t-7.5 -13t-8.5 -8.5t-11.5 -2q-16 0 -83 8t-70 10h-115q-25 0 -25 18z" />
<glyph unicode="Y" horiz-adv-x="1212" d="M25 1395q0 20 20 20h133q121 12 137 12q7 0 9 -3t3 -13t3 -23.5t11 -40t24 -57.5l151 -309q26 -53 49 -113t33.5 -82t24.5 -22q8 0 14 26t19.5 79.5t35.5 101.5l152 317q19 42 27 78t10 48.5t8 12.5l141 -12h135q21 0 21 -20q0 -32 -58 -148l-288 -583 q-53 -108 -69.5 -179.5t-16.5 -150.5v-135q0 -35 2 -101t2 -75q0 -29 -19 -29l-129 14q-119 -8 -133 -8q-22 0 -22 12l4 16q4 16 4 27v275q0 87 -15 149.5t-77 186.5l-289 573q-57 114 -57 156z" />
<glyph unicode="Z" horiz-adv-x="1216" d="M55 246q0 122 105 243l508 594q19 21 45 43t40.5 34t14.5 18q0 12 -14 12q-10 0 -56.5 -10.5t-76.5 -10.5h-336q-45 0 -80.5 -4.5t-52.5 -9t-19 -4.5q-10 0 -10 12l6 121q-6 85 -6 105q0 19 6 24t29 4q9 0 71.5 -1t102.5 -1h655q65 0 102 -39.5t37 -111.5q0 -79 -77 -168 l-603 -678q-29 -32 -65 -62t-53 -46t-17 -29q0 -19 26 -27t93 -8h322q31 0 64.5 -10.5t41.5 -10.5q24 0 29 45l6 95q2 19 5 26.5t13 7.5l131 -4q70 4 78 4q15 0 19 -4t4 -18l-6 -150q4 -161 4 -190q0 -12 -4.5 -16.5t-16.5 -6.5q-7 -2 -85 -8t-105 -6h-606q-132 0 -200.5 62 t-68.5 184z" />
<glyph unicode="[" horiz-adv-x="677" d="M174 -352v1732q0 24 7 29.5t32 5.5h371q2 0 10 3t12 3q10 0 10 -20l-4 -78q4 -76 4 -94q0 -17 -8 -17q-2 0 -8 2.5t-10 2.5h-137q-9 0 -19.5 11t-13.5 11q-14 0 -14 -55v-1319q0 -31 13.5 -41t41.5 -10h133q20 0 20 -19l-6 -80q6 -78 6 -82q0 -24 -10 -24q-6 0 -21 4 t-20 4h-354q-24 0 -29.5 4.5t-5.5 26.5z" />
<glyph unicode="\" horiz-adv-x="892" d="M25 1401q0 10 10 10h57q3 0 77.5 3t78.5 3q14 0 23 -9.5t24.5 -42.5t48.5 -114l485 -1163q10 -25 20.5 -43t14.5 -25t4 -12q0 -8 -10 -8h-162q-23 0 -43.5 -10t-21.5 -10q-8 0 -19.5 24.5t-42.5 98.5q-8 19 -12.5 30.5t-12.5 31.5t-16 38l-462 1112q-9 22 -20 42 t-16 29.5t-5 14.5z" />
<glyph unicode="]" horiz-adv-x="677" d="M59 -197q0 17 11 17q2 0 7.5 -2t8.5 -2h139q9 0 19.5 -11.5t13.5 -11.5q14 0 14 55v1319q0 31 -13.5 41.5t-41.5 10.5h-133q-12 0 -16.5 3.5t-4.5 14.5l5 80q-5 78 -5 82q0 24 11 24q6 0 20.5 -4t20.5 -4h352q25 0 31 -4.5t6 -26.5v-1732q0 -24 -7.5 -29.5t-33.5 -5.5 h-369q-3 0 -10.5 -3t-11.5 -3q-13 0 -13 20l7 78q-7 76 -7 94z" />
<glyph unicode="^" horiz-adv-x="993" d="M111 365q0 4 6 11.5t14.5 19.5t13.5 24l185 387q18 37 55 37h229q23 0 30.5 -6t19.5 -31l196 -401q3 -6 9 -15t10 -15.5t4 -10.5q0 -11 -25 -11h-160q-45 0 -65 47l-109 256q-10 23 -16 31t-16 8q-17 0 -31 -39l-111 -256q-12 -28 -25 -37.5t-30 -9.5h-145q-39 0 -39 11z " />
<glyph unicode="_" horiz-adv-x="1030" d="M0 -213q0 8 90 8h885q13 0 27.5 5t17.5 5q10 0 10 -34v-144q0 -18 -11.5 -22t-62.5 -4h-919q-20 0 -25.5 5t-5.5 21v140q0 5 -3 12t-3 8z" />
<glyph unicode="`" horiz-adv-x="626" d="M137 1399q0 16 23 16h229q26 0 33.5 -8.5t13.5 -46.5l33 -174q3 -20 7.5 -35t6.5 -21.5t2 -11.5q0 -10 -16 -10h-152q-6 0 -10 0.5t-8 1.5t-7.5 5t-6 7.5t-7.5 12t-9 16t-12 23t-15 28.5l-92 168q-13 20 -13 29z" />
<glyph unicode="a" horiz-adv-x="1060" d="M74 260q0 140 83.5 214.5t235.5 74.5q53 0 130 -19.5t108 -19.5q28 0 39.5 15.5t11.5 52.5v47q0 180 -236 180q-70 0 -126.5 -10t-84.5 -22t-49.5 -22t-27.5 -10q-15 0 -15 15l4 100q-4 73 -4 96q0 22 17 29q120 57 321 57q212 0 330.5 -95t118.5 -298q0 -74 -5 -215 t-5 -180v-180q0 -15 -4.5 -20t-16.5 -5t-51 2t-49 2q-15 0 -71.5 -17t-136.5 -34.5t-153 -17.5q-184 0 -274 67t-90 213zM338 262q0 -61 39.5 -89t120.5 -28q102 0 143 46t41 147q0 33 -5.5 40t-27.5 7h-162q-76 0 -112.5 -27.5t-36.5 -95.5z" />
<glyph unicode="b" horiz-adv-x="1173" d="M133 1438q0 24 19 24l114 -6q107 6 119 6q14 0 18.5 -4.5t4.5 -21.5q0 -13 -2.5 -61.5t-2.5 -82.5v-327q0 -26 8.5 -32.5t30.5 -6.5q19 0 46 17.5t52.5 38.5t70.5 38.5t96 17.5q195 0 296 -143.5t101 -380.5q0 -256 -135.5 -395t-358.5 -139q-228 0 -350.5 126.5 t-122.5 372.5v813q0 26 -2 77t-2 69zM401 498q0 -169 52 -246.5t163 -77.5q205 0 205 336q0 176 -54 256t-159 80q-106 0 -156.5 -83.5t-50.5 -264.5z" />
<glyph unicode="c" horiz-adv-x="1017" d="M70 506q0 249 135.5 390.5t353.5 141.5q256 0 367 -145q14 -14 14 -31q0 -6 -10 -16l-64 -74q-41 -76 -45 -80q-10 -20 -20 -20q-14 0 -23 18q-55 139 -198 139q-228 0 -228 -309t283 -309q149 0 256 86q15 12 24 12q15 0 15 -20l-6 -111v-78q0 -21 -5.5 -30t-25.5 -19 q-115 -71 -315 -71q-248 0 -378 139.5t-130 386.5z" />
<glyph unicode="d" horiz-adv-x="1171" d="M70 496q0 240 106 391t299 151q54 0 98 -15.5t67.5 -33.5t48.5 -33.5t44 -15.5q21 0 27 6t6 33v311q0 39 -6 91t-6 59q0 12 5.5 17t22.5 5l123 -6q103 6 119 6q9 0 11.5 -5t2.5 -21q0 -13 -3 -65.5t-3 -80.5v-751q0 -90 -11 -151.5t-21.5 -91t-10.5 -42.5q0 -17 27 -51 l92 -111q20 -23 20 -33t-14 -18l-104 -53q-16 -8 -27 -8q-23 0 -37 18l-78 80q-20 20 -37 20q-14 0 -34 -16q-119 -102 -291 -102q-213 0 -324.5 139t-111.5 377zM350 502q0 -330 199 -330q110 0 166.5 86.5t56.5 253.5q0 336 -215 336q-101 0 -154 -92t-53 -254z" />
<glyph unicode="e" horiz-adv-x="1069" d="M70 508q0 150 57 269t170 190t264 71q189 0 304.5 -100t115.5 -274q0 -62 -14 -123q-6 -28 -19.5 -37.5t-40.5 -9.5h-510q-26 0 -36.5 -6.5t-10.5 -24.5q0 -123 79.5 -188.5t213.5 -65.5q161 0 268 86q10 10 25 10q16 0 16 -18l-8 -101v-86q0 -18 -5.5 -27t-23.5 -18 q-55 -35 -139.5 -55t-171.5 -20q-243 0 -388.5 138.5t-145.5 389.5zM352 672q3 -23 8.5 -31t18.5 -8q9 0 32 7t31 7h238q29 0 38 12t9 48q0 75 -47.5 114t-124.5 39q-89 0 -141.5 -51.5t-61.5 -136.5z" />
<glyph unicode="f" horiz-adv-x="784" d="M27 -133q0 14 16 14q3 0 15 -5t33.5 -10t47.5 -5q92 0 92 73q0 9 -9 52.5t-9 83.5v714q0 28 -5.5 34.5t-27.5 6.5h-102q-12 0 -17.5 3.5t-5.5 17.5l4 67q-4 50 -4 66q0 18 19 18h104q4 0 10.5 -4t10.5 -4q11 0 14 51q15 190 146.5 306t318.5 116q62 0 82 -8q14 -5 14 -20 l-10 -72v-113q0 -14 -14 -14q-8 0 -38.5 5t-49.5 5q-97 0 -142 -40t-45 -126q0 -53 11 -67.5t49 -14.5h178q14 0 17 -2t3 -14l-4 -66v-63q0 -18 -6 -22.5t-25 -4.5h-163q-14 0 -27.5 3t-20.5 3q-10 0 -10 -47v-739q0 -185 -90.5 -286t-228.5 -101q-71 0 -113 20 q-11 4 -14.5 10t-3.5 19l6 82q-6 76 -6 78z" />
<glyph unicode="g" horiz-adv-x="1001" d="M39 -129q0 61 24 98q11 19 23 19l74 -15q77 4 110 4q21 0 21 -12q0 -3 -4 -21.5t-4 -31.5q0 -66 56 -93.5t175 -27.5q99 0 152 33t53 92q0 56 -31 75t-119 25l-145 11q-114 8 -167 36.5t-62 88.5q24 45 45.5 114.5t21.5 100.5q0 21 -39 43q-139 82 -139 284 q0 155 102.5 245.5t292.5 90.5q54 0 208 -6t185 -6t31 -17q0 -5 -22.5 -31t-22.5 -57q0 -28 16.5 -97t16.5 -114q0 -160 -105 -253t-294 -93h-31q-13 0 -20 -3.5t-11 -16.5q-16 -40 -16 -62q0 -13 11.5 -20t43.5 -10l190 -13q314 -18 314 -282q0 -156 -135 -254t-355 -98 q-215 0 -329.5 68t-114.5 206zM332 684q0 -168 155 -168q76 0 116 45.5t40 122.5q0 86 -36 130t-122 44q-78 0 -115.5 -46.5t-37.5 -127.5z" />
<glyph unicode="h" horiz-adv-x="1206" d="M143 27q0 8 2 24.5t2 24.5v465q0 63 8.5 142.5t8.5 113.5q0 40 -8.5 144t-8.5 163v326q0 14 1 19t6.5 9t17.5 4l107 -6q104 6 122 6q17 0 17 -22q0 -9 -4 -41.5t-4 -55.5v-288q0 -21 -7.5 -61.5t-7.5 -53.5q0 -33 17 -33q16 0 42 34t40 42q79 55 213 55q169 0 267.5 -127 t98.5 -360v-422q0 -23 2 -58t2 -48q0 -15 -4.5 -20t-19.5 -5l-119 6q-84 -6 -98 -6q-17 0 -23 6.5t-6 22.5q0 5 2 26.5t2 32.5v442q0 148 -42 219.5t-157 71.5q-111 0 -156.5 -72t-45.5 -217v-503q0 -18 -5.5 -23.5t-21.5 -5.5l-123 4q-84 -4 -102 -4q-15 0 -15 29z" />
<glyph unicode="i" horiz-adv-x="557" d="M141 983q0 22 6 29.5t23 7.5l109 -6q102 6 116 6q10 0 13.5 -6t3.5 -21q0 -11 -1 -34.5t-1 -30.5v-754q0 -46 7 -101.5t7 -60.5q0 -14 -12 -14l-125 8q-99 -8 -117 -8q-16 0 -21.5 4.5t-5.5 15.5q0 6 2 24.5t2 31.5v778q0 25 -3 70.5t-3 60.5zM168 1217q0 13 3 38t3 37 t-3 36t-3 32q0 37 29 37h163q29 0 29 -35q0 -15 -4 -38.5t-4 -31.5q0 -12 4 -39t4 -39q0 -36 -27 -36h-165q-17 0 -23 9t-6 30z" />
<glyph unicode="j" horiz-adv-x="561" d="M-37 -193q0 17 17 17q3 0 15 -5t33.5 -10.5t47.5 -5.5q48 0 72 20t24 52q0 14 -11 56t-11 81v858q0 19 -2.5 64.5t-2.5 56.5q0 17 4 23t15 6l102 -6q113 6 123 6q17 0 21 -7.5t4 -31.5v-993q0 -186 -91 -286.5t-229 -100.5q-74 0 -112 18q-19 9 -19 29l6 82zM172 1217 q0 13 3 38t3 37t-3 36t-3 32q0 37 29 37h161q29 0 29 -35q0 -15 -3 -38.5t-3 -31.5q0 -12 3 -39t3 -39q0 -36 -26 -36h-164q-17 0 -23 9t-6 30z" />
<glyph unicode="k" horiz-adv-x="1146" d="M139 33q0 12 4 62.5t4 78.5v1151q0 25 -1 65t-1 46q0 24 19 24q13 0 54 -2.5t44 -3.5q4 1 56.5 4.5t66.5 3.5q15 0 20 -5.5t5 -20.5q0 -11 -2 -37t-2 -39v-606q0 -36 8 -54.5t30 -33.5l78 -64q6 -4 17 -12.5t16 -12t12 -7t13 -3.5q12 0 16 14.5t4 49.5v55q0 93 26 162 t74 110t108.5 60.5t135.5 19.5q15 0 40.5 -2t27.5 -2q15 -3 19.5 -7t4.5 -15l-8 -86q4 -87 4 -103t-8 -16q-4 0 -23 4t-34 4q-70 0 -106 -56t-36 -159v-90q0 -61 11 -88t47 -57l174 -140q49 -40 49 -55q0 -6 -16 -26t-32 -37l-16 -17q-26 -43 -41 -64.5t-21 -26.5t-13 -5 q-26 0 -93 57l-346 287q-32 25 -55 51.5t-31.5 38.5t-13.5 12q-22 0 -22 -127v-284q0 -19 -4.5 -25t-18.5 -6l-111 6q-92 -6 -104 -6q-17 0 -23 8.5t-6 26.5z" />
<glyph unicode="l" horiz-adv-x="606" d="M139 266v1164q0 21 4.5 26.5t22.5 5.5l115 -6q97 6 122 6q13 0 13 -16q0 -10 -7.5 -53.5t-7.5 -67.5v-1012q0 -63 19 -87.5t67 -24.5q34 0 66 14t35 14q9 0 11.5 -3.5t2.5 -12.5l-8 -88q8 -70 8 -82q0 -14 -16 -25q-63 -38 -174 -38q-273 0 -273 286z" />
<glyph unicode="m" horiz-adv-x="1769" d="M72 946q0 15 12 21l90 63q12 8 25 8q15 0 69.5 -47t79.5 -47q12 0 38 14.5t55 32.5t82 32.5t114 14.5q59 0 108.5 -16.5t76 -36.5t54.5 -36.5t50 -16.5q25 0 56.5 16.5t62 36.5t89 36.5t130.5 16.5q175 0 273.5 -128.5t98.5 -362.5v-414q0 -26 3 -64t3 -44q0 -15 -4 -20 t-18 -5l-113 6q-106 -6 -114 -6q-23 0 -23 29q0 6 2 33.5t2 41.5v400q0 64 -3.5 108.5t-14 86t-29 66.5t-49.5 39.5t-74 14.5q-85 0 -132.5 -45.5t-47.5 -161.5v-487q0 -23 2 -59t2 -37q0 -15 -4 -22t-18 -7l-115 4q-89 -4 -105 -4q-18 0 -22 6t-4 27q0 6 1 29t1 34v516 q0 119 -39.5 163t-122.5 44q-49 0 -83.5 -16t-54.5 -41t-31.5 -67.5t-15 -84.5t-3.5 -102v-424q0 -8 1 -29t1 -28q0 -18 -4 -23.5t-19 -5.5l-121 6q-86 -4 -104 -4q-10 0 -13 5.5t-3 19.5v512q0 65 8.5 112t18 66t18 36.5t8.5 30.5q0 23 -65.5 87t-65.5 77z" />
<glyph unicode="n" horiz-adv-x="1193" d="M72 946q0 12 12 21l90 63q13 8 25 8q15 0 70 -47t81 -47q11 0 38.5 14.5t59.5 32.5t91.5 32.5t128.5 14.5q186 0 289.5 -127t103.5 -364v-418q0 -24 2 -58.5t2 -45.5q0 -15 -5 -21t-18 -6l-114 8q-91 -8 -105 -8q-18 0 -22 5.5t-4 23.5q0 7 1 28t1 31v418q0 68 -4 114 t-16 86.5t-33 64t-55 37t-83 13.5t-84 -15t-56.5 -40.5t-34 -66.5t-17 -84.5t-4.5 -102.5v-426q0 -8 1 -30t1 -29q0 -16 -4.5 -21.5t-18.5 -5.5l-115 6q-92 -6 -108 -6q-18 0 -18 22v517q0 65 8.5 112t18 66t18 36.5t8.5 30.5q0 23 -65.5 87t-65.5 77z" />
<glyph unicode="o" horiz-adv-x="1118" d="M70 514q0 133 45 243t121 169q40 0 78.5 17.5t68 38.5t84 38.5t121.5 17.5q220 0 340.5 -137t120.5 -393t-132 -392t-354 -136q-244 0 -368.5 135t-124.5 399zM352 514q0 -167 48.5 -248.5t158.5 -81.5q107 0 157 81.5t50 242.5q0 166 -49 246t-160 80q-205 0 -205 -320z " />
<glyph unicode="p" horiz-adv-x="1183" d="M86 967q0 7 12 16l103 68q13 10 18 10q15 0 83 -54.5t91 -54.5q10 0 37 12.5t59 27.5t88.5 27.5t118.5 12.5q189 0 303.5 -139.5t114.5 -378.5q0 -153 -49 -272.5t-145.5 -189.5t-227.5 -70q-49 0 -91.5 16t-65.5 35t-48.5 35t-44.5 16q-20 0 -26 -8t-6 -35v-277 q0 -34 4 -75t4 -51q0 -21 -25 -21l-106 6q-107 -8 -123 -8q-19 0 -19 27q0 19 2.5 70t2.5 73v700q0 76 11 136t24.5 88t24.5 51t11 35q0 20 -67.5 90.5t-67.5 81.5zM412 485q0 -169 52.5 -248t162.5 -79q109 0 156.5 88t47.5 256q0 172 -53 250.5t-157 78.5 q-209 0 -209 -346z" />
<glyph unicode="q" horiz-adv-x="1175" d="M70 494q0 260 126.5 402t342.5 142q79 0 144 -19.5t97.5 -43t57.5 -43t34 -19.5h142q11 0 14.5 -4t3.5 -16q0 -6 -2 -34.5t-2 -41.5v-1028q0 -25 4 -73t4 -68q0 -17 -3.5 -24t-14.5 -7l-121 8q-101 -8 -113 -8q-13 0 -17.5 6t-4.5 23q0 16 3 63t3 80v248q0 25 -8 32 t-29 7q-20 0 -44 -15t-45.5 -33t-64 -33t-94.5 -15q-194 0 -303.5 141t-109.5 373zM350 506q0 -165 47.5 -249.5t151.5 -84.5q106 0 163.5 89t57.5 249q0 173 -48.5 255.5t-162.5 82.5q-102 0 -155.5 -91t-53.5 -251z" />
<glyph unicode="r" horiz-adv-x="851" d="M72 946q0 12 12 21l92 63q11 8 21 8q15 0 71.5 -47t79.5 -47q15 0 38.5 14.5t48.5 32.5t80 32.5t126 14.5q84 0 150 -28q30 -18 30 -37q0 -5 -7.5 -28.5t-15.5 -44.5l-7 -21l-19 -103q-7 -28 -27 -28q-11 0 -34 15t-56 30.5t-69 15.5q-98 0 -136 -72t-38 -211v-376 q0 -20 4 -68.5t4 -54.5q0 -29 -27 -29l-106 6q-101 -6 -119 -6t-18 25v514q0 61 8.5 108t18 68.5t18 40t8.5 28.5q0 23 -65.5 87t-65.5 77z" />
<glyph unicode="s" horiz-adv-x="964" d="M70 131q0 11 19.5 39.5t31.5 40.5q20 66 24 76q9 24 19 24q5 0 10 -2.5t8 -5t10.5 -9t10.5 -9.5q52 -49 128 -77t158 -28q71 0 102.5 22t31.5 74q0 31 -22.5 53.5t-59 36t-83.5 28t-95.5 27.5t-95.5 36.5t-83.5 53t-59 78t-22.5 111.5q0 161 105.5 249.5t281.5 88.5 q208 0 330 -75q35 -22 35 -39q0 -4 -10 -25.5t-20 -40.5l-11 -20q-23 -101 -37 -101q-18 0 -35 17q-38 38 -109 63t-140 25q-72 0 -103 -25t-31 -74q0 -27 29 -47t75.5 -34.5t103 -29.5t112.5 -39.5t102.5 -57t75.5 -88.5t29 -128q0 -162 -105.5 -250.5t-300.5 -88.5 q-243 0 -385 112q-24 19 -24 39z" />
<glyph unicode="t" horiz-adv-x="837" d="M37 854l4 57q-2 54 -2 58q0 18 6.5 23t24.5 5h127q32 0 50.5 13t33.5 49l43 110q8 24 14 30.5t22 6.5h170q19 0 19 -18q0 -5 -3 -60t-3 -73q0 -58 53 -58h174q18 0 24.5 -0.5t11.5 -6t5 -17.5q0 -47 -10 -115q-3 -21 -10.5 -27t-28.5 -6h-148q-48 0 -61.5 -8.5 t-13.5 -34.5q0 -7 3 -27t3 -34v-615q0 -16 2 -44.5t2 -38.5q0 -14 -3.5 -19.5t-15.5 -5.5l-110 6q-105 -6 -123 -6q-15 0 -19 3t-4 15q0 8 4.5 42t4.5 53v624q0 51 -12.5 70.5t-49.5 19.5h-151q-20 0 -26.5 7t-6.5 22z" />
<glyph unicode="u" horiz-adv-x="1189" d="M129 993q0 15 5 21t18 6l114 -8q91 8 105 8q17 0 21.5 -5t4.5 -24q0 -8 -1 -27t-1 -28v-418q0 -170 39 -242.5t154 -72.5q49 0 84 16t56 42t33.5 67.5t16.5 85t4 102.5v475q0 29 23 29l106 -6q99 6 117 6q16 0 16 -23v-520q0 -80 -15 -133t-29.5 -79t-14.5 -42 q0 -21 65.5 -87t65.5 -77q0 -13 -10 -18l-117 -53q-13 -8 -24 -8q-15 0 -62.5 43t-71.5 43q-9 0 -33.5 -13.5t-55 -29.5t-91 -29.5t-131.5 -13.5q-178 0 -282.5 123.5t-104.5 363.5v434q0 21 -2 52t-2 40z" />
<glyph unicode="v" horiz-adv-x="1091" d="M47 1001q0 17 19 17h88q122 14 149 14q11 0 18 -5.5t11 -18.5t6.5 -27t8 -40.5t11.5 -49.5l127 -473q29 -111 44 -143.5t40 -32.5q13 0 18 9.5t5 35.5q0 59 16 121l129 481q2 10 11 51t14 57q6 21 13 28t24 7l137 -14h88q20 0 20 -19q0 -12 -5.5 -31t-19.5 -59t-22 -65 l-190 -588q-31 -96 -48.5 -143t-38.5 -75t-38.5 -33t-52.5 -5h-166q-24 0 -37 1.5t-28.5 10.5t-25 23.5t-24 46t-28.5 71t-35 105.5l-191 584q-5 16 -19 55t-21 63.5t-7 40.5z" />
<glyph unicode="w" horiz-adv-x="1681" d="M74 997q0 8 6.5 14.5t13.5 6.5h96q128 14 140 14q14 0 20.5 -6t9.5 -20q1 -7 6.5 -48.5t10.5 -66.5l74 -416q5 -27 12 -71q14 -84 22.5 -107t30.5 -23q9 0 14.5 5t8.5 16.5t4 22t2 30.5q3 37 26 117l109 362q5 19 31 19l133 -8q123 8 133 8q12 0 17 -4.5t10 -16.5 l108 -350q30 -95 33 -131q0 -43 5.5 -56.5t20.5 -13.5q6 0 10.5 1.5t8.5 5t6 8.5t4.5 14t4.5 18.5t4.5 25.5t5 31.5t6.5 39.5t8 47l80 424q2 12 8.5 52.5t9.5 55.5q6 33 29 33l139 -12h96q21 0 21 -17q0 -3 -9.5 -28.5t-22 -61.5t-17.5 -61l-125 -592q-16 -75 -28.5 -121 t-24 -75t-27 -42t-30 -16.5t-40.5 -3.5h-174q-29 0 -45 3.5t-34.5 17t-32 43t-30 77t-36.5 123.5l-78 305q-3 11 -5 23t-3 19t-2.5 13.5t-4 9.5t-5.5 3q-5 0 -7.5 -7t-5 -26.5t-6.5 -34.5l-80 -311q-31 -121 -56 -176.5t-47 -68.5t-65 -13h-182q-23 0 -36 3.5t-27 16 t-25 42.5t-23.5 76.5t-29.5 123.5l-131 580q-6 29 -24.5 85t-18.5 70z" />
<glyph unicode="x" horiz-adv-x="1093" d="M51 59q0 15 21 41l245 332q8 11 19 25.5t15.5 21.5t10 16t7.5 16t2 15q0 6 -1.5 12t-3.5 10.5t-7 12t-7.5 11t-10.5 14t-11 14.5l-240 307q-37 50 -37 62q0 5 5.5 11t15.5 7l127 21q94 30 102 30q18 0 39 -30l152 -217q14 -20 24.5 -48t17.5 -42.5t17 -14.5t17 14 t18 41.5t24 46.5l158 224q17 26 39 26l86 -30q92 -17 123 -21q20 -3 20 -18q0 -16 -28 -54l-246 -319q-39 -49 -39 -72q0 -25 59 -106l232 -314q22 -34 22 -47t-16 -18l-111 -23q-91 -36 -104 -36q-18 0 -32.5 15t-46.5 61q-5 7 -7 10l-105 147q-19 27 -33.5 60t-22.5 48 t-21 15t-22 -13t-24.5 -46t-33.5 -60l-113 -164q-31 -43 -46 -58t-32 -15q-12 0 -90 34l-110 29q-17 6 -17 16z" />
<glyph unicode="y" horiz-adv-x="1091" d="M49 997q0 5 5.5 13t13.5 8h135q80 14 92 14q15 0 23 -4t12.5 -16t6.5 -25.5t7.5 -41.5t13.5 -54l129 -445q16 -56 30 -131t23.5 -105t26.5 -30q12 0 17.5 16.5t5.5 59.5q0 89 24 180l127 453q7 24 12.5 51.5t8 41t8 27t14 18.5t23.5 5l98 -14h125q19 0 19 -21 q0 -22 -45 -151l-211 -621q-6 -17 -26.5 -78t-26 -79.5t-19.5 -66t-18.5 -72.5t-9.5 -61t-5 -67v-147q0 -23 -5.5 -30t-23.5 -7l-110 6q-95 -12 -111 -12q-8 0 -11.5 3t-4 6.5t-0.5 12.5q0 5 2 25.5t2 30.5v112q0 66 -16 127.5t-54.5 159t-54.5 143.5l-205 611 q-1 3 -16.5 45.5t-23 68t-7.5 41.5z" />
<glyph unicode="z" horiz-adv-x="1013" d="M76 248q0 81 43.5 145t144.5 142l305 235q15 12 33.5 23t27.5 17t9 9q0 8 -14 8q-10 0 -85.5 -13t-117.5 -13h-164q-45 0 -86 -9.5t-43 -9.5q-12 9 -12 23l4 115q-2 48 -2 73q0 16 7 20.5t24 4.5h630q68 0 110 -42.5t42 -117.5q0 -92 -90 -162l-414 -329 q-34 -27 -71.5 -50t-51.5 -33.5t-14 -25.5q0 -23 42.5 -32t158.5 -9h274q45 0 87.5 11.5t45.5 11.5q12 0 15.5 -5.5t3.5 -21.5l-7 -84q7 -76 7 -90q0 -39 -50 -39h-485q-151 0 -229 63t-78 185z" />
<glyph unicode="{" horiz-adv-x="733" d="M119 473v90q0 17 4 22.5t16 10.5l146 49q49 16 49 43q0 16 -26.5 59.5t-58.5 92.5t-58.5 121.5t-26.5 138.5q0 159 99.5 237t279.5 78q59 0 72.5 -3t15.5 -17l6 -66q16 -60 16 -72q0 -14 -14 -14q-6 0 -28.5 2t-28.5 2q-176 0 -176 -166q0 -55 27 -122.5t60 -118t60 -102 t27 -79.5q0 -40 -31 -49l-217 -69q-31 -9 -31 -25q0 -9 6 -13.5t25 -10.5l213 -68q35 -12 35 -45q0 -29 -18 -67.5t-43.5 -79t-51 -84.5t-43.5 -97.5t-18 -103.5q0 -80 45.5 -119t119.5 -39q14 0 39.5 2t32.5 2q12 0 12 -16l-20 -74l-4 -59q-3 -19 -16.5 -23t-77.5 -4 q-184 0 -278.5 79.5t-94.5 237.5q0 65 26.5 136.5t58.5 121t58.5 93t26.5 59.5q0 26 -35 37l-160 55q-20 8 -20 37z" />
<glyph unicode="|" horiz-adv-x="628" d="M190 -498q0 7 3.5 86.5t3.5 130.5v1702q0 25 -1 64t-1 41q0 10 14 10l106 -4q97 4 107 4q12 0 12 -27q0 -8 -2 -61.5t-2 -93.5v-1778q0 -22 4 -46.5t4 -27.5q0 -14 -12 -14h-156q-16 0 -41 -6t-28 -6q-11 0 -11 26z" />
<glyph unicode="}" horiz-adv-x="733" d="M78 1255l20 74l4 60q3 19 16.5 22.5t78.5 3.5q184 0 278 -79.5t94 -237.5q0 -65 -26.5 -136.5t-58.5 -121t-58.5 -93t-26.5 -59.5q0 -26 35 -37l160 -55q20 -8 20 -37v-90q0 -17 -4 -22.5t-16 -10.5l-145 -49q-50 -16 -50 -43q0 -16 26.5 -59.5t58.5 -92.5t58.5 -121.5 t26.5 -138.5q0 -159 -99.5 -237t-279.5 -78q-59 0 -72.5 3.5t-15.5 17.5l-6 65q-16 60 -16 72q0 14 14 14q6 0 29 -2t29 -2q176 0 176 166q0 55 -27 122.5t-60 118t-60 102t-27 79.5q0 40 30 49l217 70q19 6 25 11t6 13q0 9 -6 14t-25 11l-213 67q-34 11 -34 45 q0 29 18 67.5t43.5 79t51 84.5t43.5 97.5t18 103.5q0 80 -46 119t-120 39q-14 0 -39.5 -2t-32.5 -2q-12 0 -12 16z" />
<glyph unicode="~" horiz-adv-x="978" d="M137 465q0 129 57.5 193.5t147.5 64.5q38 0 83 -21t79.5 -45.5t73.5 -45.5t67 -21q71 0 74 94q0 16 0.5 22.5t4.5 12.5t13 6l43 -4q29 4 39 4q14 0 18.5 -8.5t4.5 -28.5q0 -119 -53 -187.5t-148 -68.5q-49 0 -108 33t-112 65.5t-87 32.5q-42 0 -57 -25.5t-17 -72.5 q0 -13 -0.5 -18t-5.5 -11t-16 -6q-6 0 -19.5 2t-17.5 2q-5 0 -21 -1t-24 -1q-12 0 -15.5 6.5t-3.5 26.5z" />
<glyph unicode="&#xa1;" horiz-adv-x="686" d="M184 -373q0 12 5 47.5t6 53.5l45 616q8 122 8 221q0 15 3.5 20t14.5 5l90 -6q54 8 64 8t14 -6t4 -21q0 -125 8 -221l50 -633q6 -75 6 -78q0 -19 -7 -25.5t-24 -6.5l-109 4q-139 -6 -147 -6q-18 0 -24.5 5t-6.5 23zM217 799q0 17 5 46.5t5 35.5q0 11 -5 45t-5 49 q0 43 27 43h188q31 0 31 -47q0 -15 -2 -49t-2 -45q0 -9 3 -37.5t3 -42.5q0 -41 -31 -41h-188q-29 0 -29 43z" />
<glyph unicode="&#xa2;" d="M152 506q0 237 113 372t304 156v113q0 17 -4 41.5t-4 28.5q0 14 17 14h110q14 0 14 -12q0 -3 -4 -28.5t-4 -45.5v-109q209 -13 314 -139q14 -18 14 -35q0 -5 -18 -28t-36 -44l-18 -20q-51 -102 -63 -102q-19 0 -27 18q-57 145 -207 145q-223 0 -223 -311 q0 -160 63.5 -235.5t204.5 -75.5q88 0 167.5 31t125.5 77q15 15 23 15q16 0 16 -23l-8 -114v-76q0 -21 -5 -30t-24 -21q-111 -73 -305 -86v-119q0 -18 4 -41t4 -27q0 -12 -16 -12h-113q-12 0 -12 12l4 25q4 24 4 47v117q-208 23 -309.5 158.5t-101.5 363.5z" />
<glyph unicode="&#xa3;" d="M143 393v66q0 8 7 8q6 0 14 -3t10 -3h135q-3 18 -14 59t-14 53h-121q-17 0 -17 17v65q0 9 7 9q5 0 12.5 -2.5t11.5 -2.5h88q-4 40 -4 60q0 153 108 236t300 83q94 0 183 -17.5t144 -47.5q8 -3 8 -15l-24 -100v-84q0 -14 -16 -14q-3 0 -15 6q-38 27 -105.5 46t-133.5 19 q-98 0 -142.5 -33t-44.5 -102q0 -21 4 -37h389q7 0 7 -8q0 -3 -1.5 -12t-3 -22t-2.5 -19q-3 -16 -9 -20.5t-25 -4.5h-334q2 -11 16.5 -57t16.5 -55h305q8 0 17.5 4t12.5 4q7 0 7 -8q0 -4 -7 -60q-1 -17 -6 -20.5t-26 -3.5h-283q2 -10 2 -25q0 -82 -90 -123q-14 -5 -14 -22 t16 -17q10 0 35 5.5t37 5.5h215q23 0 42 -11.5t23 -11.5q13 0 19 43l4 49q1 18 5.5 22.5t16.5 4.5l58 -4q57 4 63 4q19 0 19 -18l-5 -123q5 -103 5 -136q0 -14 -6 -17t-23 -3h-789q-6 0 -29 -2t-28 -2q-20 0 -20 24l6 74q-2 74 -2 86q0 19 14 19q9 0 27 -4.5t28 -4.5 q54 0 81.5 33t27.5 90q0 34 -6 64h-168q-19 0 -19 16z" />
<glyph unicode="&#xa4;" d="M109 199q0 10 16 26l151 156q-34 67 -34 156q0 86 34 153l-151 158q-16 16 -16 26q0 11 22.5 29t44.5 31l23 12q57 64 80 64q3 0 6 -1t7 -4.5t8 -7.5l12 -12t16 -16.5t22.5 -23.5t28.5 -30l57 -59q72 37 158 37q84 0 156 -37l59 59q14 15 28.5 30t22.5 23.5t16 16.5 l12 12t8 7.5t7 4.5t6 1q10 0 30 -16t35 -32l15 -16q90 -47 90 -72q0 -10 -16 -26l-152 -158q35 -68 35 -153q0 -77 -35 -156l152 -156q16 -16 16 -26q0 -11 -22.5 -29t-44.5 -30l-23 -13q-57 -64 -80 -64q-4 0 -8 2.5t-11 9.5t-15.5 16.5t-26.5 28t-39 38.5l-59 57 q-68 -35 -156 -35q-90 0 -158 35l-57 -57q-14 -15 -28.5 -30t-22.5 -23.5t-16 -16.5l-12 -12t-8 -7.5t-7 -4.5t-6 -1q-10 0 -30 16t-35 32l-15 16q-90 47 -90 72zM424 537q0 -83 44 -129t126 -46q81 0 125.5 46.5t44.5 128.5q0 84 -43 129t-127 45t-127 -45t-43 -129z" />
<glyph unicode="&#xa5;" d="M106 1001q0 17 23 17h109q14 0 68 4t61 4q9 0 13 -3t8.5 -13t8 -22.5t14 -39t23.5 -55.5l105 -223q11 -23 21 -56t15.5 -54.5t15 -37.5t21.5 -16q8 0 11 23t9 65t21 74l107 225q55 117 63 126q7 7 15 7l120 -8h97q24 0 24 -17q0 -31 -65 -147l-193 -332q0 -16 19 -16h192 q15 0 15 -17v-55q0 -18 -17 -18q-4 0 -26 2t-39 2h-162q-19 0 -26 -4.5t-15 -20.5l-27 -55q-8 -16 -8 -21q0 -7 5 -8.5t20 -1.5h278q17 0 17 -20v-62q0 -12 -9 -12q-2 0 -26 4t-45 4h-207q-22 0 -29.5 -9.5t-7.5 -37.5v-360q0 -35 -16 -35l-111 8q-103 -8 -113 -8 q-22 0 -22 18q0 4 2 18.5t2 24.5v340q0 22 -7.5 31.5t-25.5 9.5h-278q-15 0 -15 13v59q0 18 19 18q7 0 27.5 -2t35.5 -2h223q15 0 15 10q0 11 -6 23l-29 59q-11 19 -31 19h-233q-21 0 -21 16v66q0 12 8 12q2 0 26.5 -4t45.5 -4h133q9 0 12 2.5t3 11.5l-209 363 q-52 91 -52 118z" />
<glyph unicode="&#xa6;" horiz-adv-x="628" d="M190 -498q0 7 3.5 86.5t3.5 130.5v476q0 25 -1 63.5t-1 40.5q0 10 14 10l106 -4q97 4 107 4q12 0 12 -26q0 -8 -2 -62t-2 -94v-551q0 -22 4 -46.5t4 -27.5q0 -14 -12 -14h-156q-16 0 -41 -6t-28 -6q-11 0 -11 26zM190 729q0 7 3.5 86.5t3.5 130.5v475q0 25 -1 64t-1 41 q0 10 14 10l106 -4q97 4 107 4q12 0 12 -27q0 -8 -2 -61.5t-2 -93.5v-551q0 -22 4 -46.5t4 -27.5q0 -14 -12 -14h-156q-16 0 -41 -6.5t-28 -6.5q-11 0 -11 27z" />
<glyph unicode="&#xa7;" d="M143 393q0 76 41.5 130.5t116.5 74.5q3 1 16.5 3t21 5.5t7.5 9.5t-7 11t-18.5 9t-15.5 7q-33 21 -53.5 61t-20.5 87q0 118 101.5 182.5t279.5 64.5q94 0 188.5 -14t153.5 -39q31 -11 31 -24l-22 -91l-9 -86q-4 -18 -16 -18q-4 0 -30.5 12t-62 27t-99.5 27t-134 12 t-97.5 -13.5t-27.5 -46.5q0 -26 41.5 -45t103 -30t134 -32t134 -49t103 -83.5t41.5 -132.5q0 -78 -41.5 -133.5t-113.5 -75.5q-5 -2 -20 -4t-24 -5.5t-9 -9.5t8 -10t20 -7t15 -5q75 -47 75 -154q0 -116 -101.5 -180t-279.5 -64q-209 0 -340 52q-17 8 -23.5 13.5t-6.5 14.5 l18 99l8 77q0 19 13 19q5 0 31.5 -13t62 -28t100 -28t135.5 -13q69 0 99 12t30 47q0 27 -41.5 46.5t-103 30.5t-134 32.5t-134 49.5t-103 84t-41.5 134zM395 420q0 -32 31 -58t75.5 -39.5t86 -20.5t71.5 -7q63 0 98.5 18.5t35.5 69.5q0 32 -30.5 57t-74.5 38.5t-85 20.5 t-71 7q-68 0 -102.5 -17t-34.5 -69z" />
<glyph unicode="&#xa8;" horiz-adv-x="925" d="M172 1190q0 11 3 39.5t3 42.5q0 10 -3 36t-3 35q0 37 29 37h161q29 0 29 -34q0 -14 -3 -40.5t-3 -35.5q0 -12 3 -41t3 -43q0 -35 -26 -35h-164q-17 0 -23 9t-6 30zM526 1190q0 11 3 39.5t3 42.5q0 10 -3 36t-3 35q0 37 29 37h164q29 0 29 -34q0 -14 -4.5 -40.5 t-4.5 -35.5q0 -12 4.5 -41t4.5 -43q0 -35 -27 -35h-166q-17 0 -23 9t-6 30z" />
<glyph unicode="&#xa9;" horiz-adv-x="1536" d="M115 694q0 188 84.5 337.5t234 233t334.5 83.5q181 0 330 -82.5t236 -232.5t87 -339q0 -144 -49.5 -267t-135.5 -209.5t-207 -135.5t-261 -49q-186 0 -335.5 84t-233.5 235t-84 342zM225 688q0 -160 67.5 -287.5t192 -200.5t283.5 -73q244 0 393.5 155.5t149.5 405.5 q0 247 -153 406t-390 159q-249 0 -396 -157.5t-147 -407.5zM438 692q0 188 84.5 280.5t237.5 92.5q104 0 178 -53q13 -8 33 -8h49q12 0 12 -17v-174q0 -12 -10 -12h-115q-12 0 -12 10q-6 115 -123 115q-76 0 -109.5 -53.5t-33.5 -180.5q0 -96 18 -149t48 -70.5t83 -17.5 q117 0 127 120q0 11 10 11h117q12 0 12 -13v-174q0 -14 -14 -14h-61q-15 0 -23 -6q-74 -64 -186 -64q-157 0 -239.5 96t-82.5 281z" />
<glyph unicode="&#xaa;" horiz-adv-x="737" d="M117 1020q0 74 44 112.5t126 38.5q31 0 73 -11t58 -11q15 0 20.5 8.5t5.5 34.5q0 88 -131 88q-48 0 -82 -9t-49.5 -17.5t-17.5 -8.5q-8 0 -8 10v111q0 18 14 23q67 28 178 28q114 0 181 -50t67 -153q0 -37 -3 -139t-3 -157q0 -9 -2.5 -12t-9.5 -3q-5 0 -25 1t-25 1 q-8 0 -81.5 -18.5t-139.5 -18.5q-87 0 -138.5 37t-51.5 115zM276 1018q0 -31 17 -43t59 -12q54 0 73 21.5t19 70.5q0 17 -2.5 20.5t-11.5 3.5h-88q-36 0 -51 -14t-15 -47z" />
<glyph unicode="&#xab;" horiz-adv-x="1179" d="M117 502v45q0 17 14 33l307 387q11 14 21 14l106 -8q58 2 70 2t12 -8q0 -4 -1.5 -7t-8 -12t-12.5 -18l-236 -369q-3 -5 -8.5 -11.5t-8.5 -11t-3 -8.5t8.5 -13.5t11.5 -14.5l223 -373q4 -7 17.5 -22.5t13.5 -20.5q0 -6 -3 -8t-15 -2h-146q-8 0 -16.5 -5t-11.5 -5 q-14 0 -41 34l-275 369q-3 4 -7 9l-6 7.5t-3.5 7t-1.5 9.5zM532 502v45q0 15 15 33l307 387q11 14 20 14l107 -8q58 2 70 2t12 -8q0 -4 -2 -7t-8.5 -12t-12.5 -18l-235 -369q-3 -5 -12 -15t-9 -16q0 -4 9 -13t12 -15l223 -373q4 -7 17.5 -22.5t13.5 -20.5q0 -10 -19 -10 h-145q-8 0 -17 -5t-12 -5q-14 0 -41 34l-274 369q-3 4 -7 9t-6.5 7.5t-4 7t-1.5 9.5z" />
<glyph unicode="&#xac;" horiz-adv-x="1193" d="M104 567v144q0 21 7 26.5t32 5.5h867q25 0 32 -6t7 -30v-447q0 -24 -6 -30.5t-25 -6.5h-150q-22 0 -28 7t-6 30v229q0 22 -10 31.5t-36 9.5h-649q-22 0 -28.5 6t-6.5 31z" />
<glyph unicode="&#xad;" horiz-adv-x="667" d="M102 434v187q0 18 7 22t30 4h264q42 0 85.5 1t48.5 1q17 0 22.5 -5.5t5.5 -22.5v-187q0 -18 -8 -22t-37 -4h-254q-37 0 -82 -4.5t-51 -4.5q-19 0 -25 6.5t-6 28.5z" />
<glyph unicode="&#xae;" horiz-adv-x="1536" d="M115 694q0 188 84.5 337.5t234 233t334.5 83.5q181 0 330 -82.5t236 -232.5t87 -339q0 -144 -49.5 -267t-135.5 -209.5t-207 -135.5t-261 -49q-186 0 -335.5 84t-233.5 235t-84 342zM225 688q0 -160 67.5 -287.5t192 -200.5t283.5 -73q244 0 393.5 155.5t149.5 405.5 q0 247 -153 406t-390 159q-249 0 -396 -157.5t-147 -407.5zM494 342v686q0 18 16 21q70 12 231 12q159 0 234.5 -55t75.5 -168q0 -68 -36.5 -114t-94.5 -62q-11 -6 -11 -11q0 -8 17 -12q29 -12 48.5 -33.5t27 -40.5t18.5 -49.5t18 -46.5q10 -22 18.5 -28.5t22.5 -6.5h15 q6 0 8 -2.5t2 -11.5v-80q0 -14 -17 -14h-169q-13 0 -19 3.5t-10 14.5q-9 26 -20 60t-16.5 51.5t-13.5 39.5t-14.5 33t-16 23.5t-20.5 19.5t-26 13q-14 5 -41.5 10.5t-36.5 5.5q-12 0 -12 -20v-240q0 -16 -13 -16h-151q-14 0 -14 18zM670 756q0 -18 4.5 -25t19.5 -10 q32 -4 74 -4q49 0 76.5 27t27.5 81t-29.5 79.5t-94.5 25.5h-56q-22 0 -22 -27v-147z" />
<glyph unicode="&#xaf;" horiz-adv-x="1024" d="M221 1198v139q0 18 9.5 24.5t33.5 6.5h498q24 0 32.5 -5.5t8.5 -23.5v-143q0 -20 -8.5 -26.5t-32.5 -6.5h-498q-27 0 -35 6.5t-8 28.5z" />
<glyph unicode="&#xb0;" horiz-adv-x="804" d="M117 967q0 124 81.5 205t202.5 81q123 0 205 -79.5t82 -206.5q0 -123 -81.5 -205t-205.5 -82q-125 0 -204.5 81t-79.5 206zM272 967q0 -58 36.5 -95.5t92.5 -37.5q57 0 92 38t35 95q0 59 -34.5 97t-92.5 38q-57 0 -93 -37.5t-36 -97.5z" />
<glyph unicode="&#xb1;" d="M154 41v111q0 23 7 28.5t36 5.5h794q29 0 36 -6t7 -28v-115q0 -23 -6 -30t-31 -7h-804q-24 0 -31.5 7t-7.5 34zM154 600v123q0 20 7 25.5t32 5.5h278q25 0 25 37v208q0 26 6 32.5t28 6.5h132q23 0 28.5 -6.5t5.5 -34.5v-206q0 -21 8.5 -29t32.5 -8h260q24 0 30.5 -6 t6.5 -27v-123q0 -25 -3.5 -31t-20.5 -6h-281q-19 0 -26 -8t-7 -33v-211q0 -26 -7 -32.5t-27 -6.5h-134q-21 0 -26.5 6.5t-5.5 30.5v215q0 25 -7 32t-30 7h-269q-25 0 -30.5 6.5t-5.5 32.5z" />
<glyph unicode="&#xb2;" horiz-adv-x="921" d="M102 582q0 16 27 24q211 71 299 135t88 156q0 129 -164 129q-109 0 -176 -39q-2 0 -9.5 -3t-12.5 -3q-11 0 -11 14l7 105q-7 70 -7 76q0 10 13 16q95 37 243 37q170 0 265.5 -77.5t95.5 -215.5q0 -56 -18.5 -101t-56 -80t-75.5 -59t-96 -53q-13 -4 -24 -13t-11 -14 q0 -16 29 -16q2 0 37 7t43 7h221q11 0 14.5 -3.5t3.5 -16.5l-8 -88q6 -74 6 -88q0 -13 -5.5 -17t-20.5 -4l-342 9q-283 -9 -326 -9q-14 0 -19.5 4t-5.5 17l7 78q-11 74 -11 86z" />
<glyph unicode="&#xb3;" horiz-adv-x="921" d="M86 504v63q0 15 3.5 20t12.5 5h95q72 12 82 12t10 -12v-45q0 -77 35 -112.5t106 -35.5q150 0 150 131q0 67 -36.5 101.5t-103.5 34.5h-73q-23 0 -23 16l8 72q-6 61 -6 73q0 17 10 17h80q115 0 115 90q0 52 -34 75t-111 23q-71 0 -125 -10t-79 -19.5t-26 -9.5 q-12 0 -12 11l8 90q-8 59 -8 73q0 10 8 15q106 47 274 47q155 0 248.5 -66.5t93.5 -189.5q0 -136 -133 -182q-24 -9 -24 -21q0 -3 1 -6t2.5 -4.5t4 -3t4 -2.5t5.5 -2t5 -2q168 -56 168 -234q0 -144 -103 -225.5t-278 -81.5q-170 0 -262 77t-92 218z" />
<glyph unicode="&#xb4;" horiz-adv-x="612" d="M133 1118q0 5 2.5 11.5t7 21.5t7.5 35l32 174q6 38 14 46.5t35 8.5h230q20 0 20 -16q0 -9 -10 -29l-94 -168q-7 -12 -14 -25.5t-11 -21t-8.5 -16t-7 -12.5t-6 -8t-6 -5.5t-6 -3t-7 -2t-8.5 -0.5h-151q-19 0 -19 10z" />
<glyph unicode="&#xb6;" d="M127 524q0 257 134.5 385.5t373.5 128.5q88 0 158.5 -13t108.5 -25.5t46 -12.5q5 0 15 1t14 1q12 0 15 -7.5t3 -33.5v-1014q0 -21 4.5 -64t4.5 -60q0 -31 -21 -31l-168 8q-143 -8 -168 -8q-26 0 -26 26q0 11 4 53.5t4 75.5v156q0 7 1 19t1 18q0 18 -15 18 q-25 0 -67.5 -23.5t-83.5 -23.5q-151 0 -244.5 114t-93.5 312zM403 555q0 -147 38.5 -211.5t119.5 -64.5q40 0 55 18t15 70v442q0 29 -10 37t-43 8q-80 0 -127.5 -71.5t-47.5 -227.5zM778 811q0 -4 3 -54t3 -85v-664q0 -14 -2 -31.5t-2 -21.5q0 -10 11 -10h45q13 0 15.5 3.5 t2.5 18.5q0 5 -4 65.5t-4 106.5v609q0 13 2 32.5t2 22.5q0 8 -3 11.5t-13 6.5q-2 1 -20 7t-21 6q-15 0 -15 -23z" />
<glyph unicode="&#xb7;" horiz-adv-x="538" d="M152 616q0 43 30 43h176q29 0 29 -43q0 -16 -5 -43t-5 -38q0 -16 5 -48.5t5 -46.5q0 -43 -27 -43h-176q-19 0 -24.5 11t-5.5 36q0 14 2 46.5t2 48.5q0 13 -3 39t-3 38z" />
<glyph unicode="&#xb8;" horiz-adv-x="1050" d="M303 -223q0 14 8 14q6 0 15 -6q50 -35 141 -35q49 0 70.5 11.5t21.5 39.5q0 29 -23 41.5t-81 12.5h-54q-16 0 -16 20l51 150q6 16 25 16h80q30 0 30 -16l-30 -76q0 -13 5.5 -17.5t26.5 -5.5q83 -6 126.5 -43t43.5 -114q0 -84 -72 -129.5t-192 -45.5q-89 0 -151 25 q-17 6 -21 12.5t-4 24.5v121z" />
<glyph unicode="&#xb9;" horiz-adv-x="921" d="M139 571q0 17 21 17h190q41 0 41 10q0 4 -4 15.5t-4 21.5v336q0 19 -3 26t-13 7q-11 0 -23 -3l-160 -30q-8 -2 -18 -2q-8 0 -8 8l6 78q-4 53 -4 69t12 21l229 53q5 1 15 6.5t18 5.5l78 -4q88 4 106 4q11 0 11 -12q0 -6 -2 -23t-2 -24v-520q0 -26 5.5 -34.5t28.5 -8.5h132 q18 0 23 -2.5t5 -14.5l-8 -82q8 -63 8 -75q0 -17 -16 -17l-318 6q-288 -6 -325 -6q-12 0 -15.5 4t-3.5 15l6 76q-8 65 -8 79z" />
<glyph unicode="&#xba;" horiz-adv-x="737" d="M96 1143q0 132 73.5 203t199.5 71q128 0 200 -69.5t72 -204.5q0 -137 -74.5 -206t-197.5 -69q-126 0 -199.5 70t-73.5 205zM268 1143q0 -81 25.5 -116.5t77.5 -35.5q100 0 100 152q0 81 -25 116t-77 35t-76.5 -37t-24.5 -114z" />
<glyph unicode="&#xbb;" horiz-adv-x="1179" d="M117 78q0 4 1.5 7t8 12t12.5 18l236 368q3 5 8.5 11.5t8.5 11t3 8.5t-8.5 14t-11.5 15l-223 372q-4 7 -17.5 22.5t-13.5 20.5q0 6 3.5 8.5t14.5 2.5h146q8 0 16.5 5t11.5 5q13 0 41 -35l275 -369q2 -3 5.5 -7t5.5 -6.5t3.5 -5.5t2.5 -6t1 -7v-45q0 -17 -14 -33l-307 -387 q-12 -15 -21 -15l-106 9q-58 -2 -70 -2t-12 8zM532 78q0 4 2 7t8.5 12t12.5 18l236 368q3 5 8.5 11.5t8.5 11t3 8.5t-8.5 14t-11.5 15l-224 372q-4 7 -17 22.5t-13 20.5q0 6 3.5 8.5t14.5 2.5h145q8 0 17 5t12 5q13 0 41 -35l274 -369q3 -4 6 -7.5t5 -6l4 -5t3 -6t1 -7.5 v-45q0 -17 -14 -33l-308 -387q-12 -15 -20 -15l-107 9q-57 -2 -69 -2q-13 0 -13 8z" />
<glyph unicode="&#xbc;" horiz-adv-x="2252" d="M139 571q0 17 21 17h190q41 0 41 10q0 4 -4 15.5t-4 21.5v336q0 19 -3 26t-13 7q-11 0 -23 -3l-160 -30q-8 -2 -18 -2q-8 0 -8 8l6 78q-4 53 -4 69t12 21l229 53q5 1 15 6.5t18 5.5l78 -4q88 4 106 4q11 0 11 -12q0 -6 -2 -23t-2 -24v-520q0 -26 5.5 -34.5t28.5 -8.5h132 q18 0 23 -2.5t5 -14.5l-8 -82q8 -63 8 -75q0 -17 -16 -17l-318 6q-288 -6 -325 -6q-12 0 -15.5 4t-3.5 15l6 76q-8 65 -8 79zM729 -336q0 5 6 14t16.5 26t18.5 40l485 1483q39 122 56.5 156t36.5 34l94 -6h59q10 0 10 -10q0 -5 -6 -17.5t-15 -32t-15 -36.5l-469 -1454 q-72 -223 -103 -223q-2 0 -21.5 9t-37.5 9h-107q-8 0 -8 8zM1411 383q0 107 82 223l268 375q5 10 19 10l108 -12h97q16 0 16 -12t-12 -27l-353 -477q-34 -43 -34 -62q0 -36 69 -36h168q21 0 26 4t5 20v252q0 18 3.5 22.5t16.5 4.5l76 -9q97 11 111 11q16 0 16 -11 q0 -5 -2 -15t-2 -17v-232q0 -10 6 -14t25 -4h57q21 0 21 -17l-7 -106q11 -45 11 -55t-6.5 -13.5t-24.5 -3.5h-53q-16 0 -22.5 -6t-6.5 -26v-101q0 -14 2 -26.5t2 -16.5q0 -6 -8 -6l-100 6q-87 -6 -101 -6q-18 0 -18 14q0 5 2 16t2 17v103q0 8 3 15t3 11q0 6 -35 6h-235 q-95 0 -145 57t-50 144z" />
<glyph unicode="&#xbd;" horiz-adv-x="2252" d="M139 571q0 17 21 17h190q41 0 41 10q0 4 -4 15.5t-4 21.5v336q0 19 -3 26t-13 7q-11 0 -23 -3l-160 -30q-8 -2 -18 -2q-8 0 -8 8l6 78q-4 53 -4 69t12 21l229 53q5 1 15 6.5t18 5.5l78 -4q88 4 106 4q11 0 11 -12q0 -6 -2 -23t-2 -24v-520q0 -26 5.5 -34.5t28.5 -8.5h132 q18 0 23 -2.5t5 -14.5l-8 -82q8 -63 8 -75q0 -17 -16 -17l-318 6q-288 -6 -325 -6q-12 0 -15.5 4t-3.5 15l6 76q-8 65 -8 79zM729 -336q0 5 6 14t16.5 26t18.5 40l485 1483q39 122 56.5 156t36.5 34l94 -6h59q10 0 10 -10q0 -5 -6 -17.5t-15 -32t-15 -36.5l-469 -1454 q-72 -223 -103 -223q-2 0 -21.5 9t-37.5 9h-107q-8 0 -8 8zM1434 184q0 17 26 25q211 71 299 135t88 156q0 129 -164 129q-109 0 -176 -39q-2 0 -9.5 -3t-12.5 -3q-10 0 -10 14l6 104q-6 70 -6 76q0 11 12 17q92 36 244 36q170 0 265 -77t95 -215q0 -56 -18.5 -101t-56 -80 t-75.5 -59t-96 -53q-13 -4 -24 -13t-11 -14q0 -16 29 -16q2 0 37 7t43 7h221q11 0 15 -3.5t4 -16.5l-9 -88q7 -75 7 -89q0 -13 -5.5 -16.5t-21.5 -3.5l-342 8q-283 -8 -326 -8q-14 0 -19 3.5t-5 16.5l6 78q-10 74 -10 86z" />
<glyph unicode="&#xbe;" horiz-adv-x="2252" d="M86 504v63q0 15 3.5 20t12.5 5h95q72 12 82 12t10 -12v-45q0 -77 35 -112.5t106 -35.5q150 0 150 131q0 67 -36.5 101.5t-103.5 34.5h-73q-23 0 -23 16l8 72q-6 61 -6 73q0 17 10 17h80q115 0 115 90q0 52 -34 75t-111 23q-71 0 -125 -10t-79 -19.5t-26 -9.5 q-12 0 -12 11l8 90q-8 59 -8 73q0 10 8 15q106 47 274 47q155 0 248.5 -66.5t93.5 -189.5q0 -136 -133 -182q-24 -9 -24 -21q0 -3 1 -6t2.5 -4.5t4 -3t4 -2.5t5.5 -2t5 -2q168 -56 168 -234q0 -144 -103 -225.5t-278 -81.5q-170 0 -262 77t-92 218zM729 -336q0 5 6 14 t16.5 26t18.5 40l485 1483q39 122 56.5 156t36.5 34l94 -6h59q10 0 10 -10q0 -5 -6 -17.5t-15 -32t-15 -36.5l-469 -1454q-72 -223 -103 -223q-2 0 -21.5 9t-37.5 9h-107q-8 0 -8 8zM1411 383q0 107 82 223l268 375q5 10 19 10l108 -12h97q16 0 16 -12t-12 -27l-353 -477 q-34 -43 -34 -62q0 -36 69 -36h168q21 0 26 4t5 20v252q0 18 3.5 22.5t16.5 4.5l76 -9q97 11 111 11q16 0 16 -11q0 -5 -2 -15t-2 -17v-232q0 -10 6 -14t25 -4h57q21 0 21 -17l-7 -106q11 -45 11 -55t-6.5 -13.5t-24.5 -3.5h-53q-16 0 -22.5 -6t-6.5 -26v-101q0 -14 2 -26.5 t2 -16.5q0 -6 -8 -6l-100 6q-87 -6 -101 -6q-18 0 -18 14q0 5 2 16t2 17v103q0 8 3 15t3 11q0 6 -35 6h-235q-95 0 -145 57t-50 144z" />
<glyph unicode="&#xbf;" horiz-adv-x="1001" d="M131 -109q0 61 26 113.5t67 89.5t90.5 69.5t99.5 57.5t91 48t67 48t26 50q0 67 -82 67q-42 0 -84.5 -21.5t-64.5 -52.5q-2 -2 -4.5 -6t-4 -5.5t-3 -4t-2.5 -3l-3 -1.5l-3 -1.5t-3 -0.5q-14 0 -18 20l-23 72q-37 46 -37 64q0 15 19 34q44 46 116.5 72.5t143.5 26.5 q137 0 208.5 -64.5t71.5 -183.5q0 -69 -31.5 -125t-78 -90t-101.5 -66.5t-101.5 -56.5t-78 -58.5t-31.5 -74.5q0 -56 36.5 -84.5t99.5 -28.5q112 0 209 74q4 2 8 5.5t6 5.5t6 3.5t8 1.5q5 0 14.5 -23.5t15.5 -47.5l7 -23q45 -66 45 -84q0 -19 -24 -35q-60 -41 -145.5 -65.5 t-178.5 -24.5q-177 0 -278 80t-101 229zM430 799q0 17 5 46.5t5 35.5q0 11 -5 45t-5 49q0 43 27 43h188q31 0 31 -47q0 -15 -2 -49t-2 -45q0 -9 2 -37.5t2 -42.5q0 -41 -29 -41h-188q-29 0 -29 43z" />
<glyph unicode="&#xc0;" horiz-adv-x="1271" d="M25 25q0 36 20 104l340 1147q7 24 14 54t10.5 41.5t12.5 24t24 16t43 3.5l134 -6q147 6 161 6q41 0 58 -16t35 -76l340 -1147q34 -106 34 -151q0 -15 -5 -20t-17 -5h-148l-47 -5q-47 -5 -63 -5q-15 0 -20 4.5t-5 21.5q0 29 -16 88l-72 254q-2 8 -6 28t-7 30.5t-12.5 20 t-23.5 9.5q-11 0 -49 -14t-55 -14h-224q-38 0 -52 -9.5t-23 -43.5l-74 -261q-5 -20 -9 -41.5t-5.5 -33t-5 -21.5t-9.5 -14t-16 -4q-14 0 -64 5t-51 5h-123q-24 0 -24 25zM303 1737q0 12 21 12h186q13 0 28.5 1t18.5 1q6 0 12.5 -8t24.5 -35l102 -158q12 -17 22.5 -28.5 t16 -16.5t6.5 -8q0 -6 -16 -6h-162q-11 0 -17.5 3t-11.5 8.5t-21.5 23t-39.5 37.5l-154 141q-16 13 -16 33zM485 666q0 -21 31 -21h232q28 0 28 17q0 12 -4 24l-86 303q-8 26 -16.5 60t-14 54.5t-12 40.5t-13 29t-14.5 9q-12 0 -16.5 -25t-10 -76.5t-16.5 -91.5l-84 -301 q-4 -10 -4 -22z" />
<glyph unicode="&#xc1;" horiz-adv-x="1271" d="M25 25q0 36 20 104l340 1147q7 24 14 54t10.5 41.5t12.5 24t24 16t43 3.5l134 -6q147 6 161 6q41 0 58 -16t35 -76l340 -1147q34 -106 34 -151q0 -15 -5 -20t-17 -5h-148l-47 -5q-47 -5 -63 -5q-15 0 -20 4.5t-5 21.5q0 29 -16 88l-72 254q-2 8 -6 28t-7 30.5t-12.5 20 t-23.5 9.5q-11 0 -49 -14t-55 -14h-224q-38 0 -52 -9.5t-23 -43.5l-74 -261q-5 -20 -9 -41.5t-5.5 -33t-5 -21.5t-9.5 -14t-16 -4q-14 0 -64 5t-51 5h-123q-24 0 -24 25zM485 666q0 -21 31 -21h232q28 0 28 17q0 12 -4 24l-86 303q-8 26 -16.5 60t-14 54.5t-12 40.5t-13 29 t-14.5 9q-12 0 -16.5 -25t-10 -76.5t-16.5 -91.5l-84 -301q-4 -10 -4 -22zM510 1497q1 3 6.5 8t16 16.5t22.5 28.5l102 158q28 43 35 43q3 0 19.5 -1t29.5 -1h187q20 0 20 -12q0 -20 -16 -33l-154 -141q-23 -20 -39.5 -37.5t-21.5 -23t-11.5 -8.5t-17.5 -3h-162q-16 0 -16 6 z" />
<glyph unicode="&#xc2;" horiz-adv-x="1271" d="M25 25q0 36 20 104l340 1147q7 24 14 54t10.5 41.5t12.5 24t24 16t43 3.5l134 -6q147 6 161 6q41 0 58 -16t35 -76l340 -1147q34 -106 34 -151q0 -15 -5 -20t-17 -5h-148l-47 -5q-47 -5 -63 -5q-15 0 -20 4.5t-5 21.5q0 29 -16 88l-72 254q-2 8 -6 28t-7 30.5t-12.5 20 t-23.5 9.5q-11 0 -49 -14t-55 -14h-224q-38 0 -52 -9.5t-23 -43.5l-74 -261q-5 -20 -9 -41.5t-5.5 -33t-5 -21.5t-9.5 -14t-16 -4q-14 0 -64 5t-51 5h-123q-24 0 -24 25zM297 1509q0 13 18 37l119 156q22 28 34.5 37.5t31.5 9.5h241q27 0 41 -8t35 -35l121 -162 q20 -29 20 -35q0 -18 -18 -18h-141q-21 0 -34.5 6.5t-35.5 30.5l-82 88q-11 14 -24 14t-27 -14l-90 -88q-23 -23 -37.5 -30t-34.5 -7h-117q-10 0 -15 5.5t-5 12.5zM485 666q0 -21 31 -21h232q28 0 28 17q0 12 -4 24l-86 303q-8 26 -16.5 60t-14 54.5t-12 40.5t-13 29 t-14.5 9q-12 0 -16.5 -25t-10 -76.5t-16.5 -91.5l-84 -301q-4 -10 -4 -22z" />
<glyph unicode="&#xc3;" horiz-adv-x="1271" d="M25 25q0 36 20 104l340 1147q7 24 14 54t10.5 41.5t12.5 24t24 16t43 3.5l134 -6q147 6 161 6q41 0 58 -16t35 -76l340 -1147q34 -106 34 -151q0 -15 -5 -20t-17 -5h-148l-47 -5q-47 -5 -63 -5q-15 0 -20 4.5t-5 21.5q0 29 -16 88l-72 254q-2 8 -6 28t-7 30.5t-12.5 20 t-23.5 9.5q-11 0 -49 -14t-55 -14h-224q-38 0 -52 -9.5t-23 -43.5l-74 -261q-5 -20 -9 -41.5t-5.5 -33t-5 -21.5t-9.5 -14t-16 -4q-14 0 -64 5t-51 5h-123q-24 0 -24 25zM311 1520q0 124 51.5 183.5t133.5 59.5q42 0 95.5 -25t103 -50t81.5 -25q64 0 64 68q0 20 2.5 26 t11.5 6l41 -4q25 4 37 4t16 -7.5t4 -26.5q0 -116 -47 -179t-133 -63q-56 0 -153 50t-132 50q-61 0 -61 -71q0 -19 -3 -24t-15 -5l-41 4q-27 -4 -39 -4q-10 0 -13.5 6.5t-3.5 26.5zM485 666q0 -21 31 -21h232q28 0 28 17q0 12 -4 24l-86 303q-8 26 -16.5 60t-14 54.5 t-12 40.5t-13 29t-14.5 9q-12 0 -16.5 -25t-10 -76.5t-16.5 -91.5l-84 -301q-4 -10 -4 -22z" />
<glyph unicode="&#xc4;" horiz-adv-x="1271" d="M25 25q0 36 20 104l340 1147q7 24 14 54t10.5 41.5t12.5 24t24 16t43 3.5l134 -6q147 6 161 6q41 0 58 -16t35 -76l340 -1147q34 -106 34 -151q0 -15 -5 -20t-17 -5h-148l-47 -5q-47 -5 -63 -5q-15 0 -20 4.5t-5 21.5q0 29 -16 88l-72 254q-2 8 -6 28t-7 30.5t-12.5 20 t-23.5 9.5q-11 0 -49 -14t-55 -14h-224q-38 0 -52 -9.5t-23 -43.5l-74 -261q-5 -20 -9 -41.5t-5.5 -33t-5 -21.5t-9.5 -14t-16 -4q-14 0 -64 5t-51 5h-123q-24 0 -24 25zM348 1534q0 12 3 37t3 39q0 10 -3 30.5t-3 30.5q0 31 29 31h149q27 0 27 -29q0 -11 -4 -33t-4 -34 q0 -14 5 -39t5 -39q0 -29 -27 -29h-149q-31 0 -31 35zM485 666q0 -21 31 -21h232q28 0 28 17q0 12 -4 24l-86 303q-8 26 -16.5 60t-14 54.5t-12 40.5t-13 29t-14.5 9q-12 0 -16.5 -25t-10 -76.5t-16.5 -91.5l-84 -301q-4 -10 -4 -22zM692 1669q0 33 29 33h149q29 0 29 -33 q0 -10 -4 -30.5t-4 -32.5q0 -14 4 -39t4 -39q0 -29 -25 -29h-151q-29 0 -29 37q0 12 2 37t2 37q0 9 -3 29.5t-3 29.5z" />
<glyph unicode="&#xc5;" horiz-adv-x="1271" d="M25 25q0 36 20 104l340 1147q7 24 14 54.5t12 45t13 23.5q-39 51 -39 129q0 99 68.5 159t183.5 60q116 0 184 -58.5t68 -160.5q0 -80 -43 -135q17 -20 31 -70l340 -1147q34 -106 34 -151q0 -15 -5 -20t-17 -5h-148l-47 -5q-47 -5 -63 -5q-15 0 -20 4.5t-5 21.5 q0 29 -16 88l-72 254q-2 8 -6 28t-7 30.5t-12.5 20t-23.5 9.5q-11 0 -49 -14t-55 -14h-224q-38 0 -52 -9.5t-23 -43.5l-74 -261q-5 -20 -9 -41.5t-5.5 -33t-5 -21.5t-9.5 -14t-16 -4q-14 0 -64 5t-51 5h-123q-24 0 -24 25zM485 666q0 -21 31 -21h232q28 0 28 17q0 12 -4 24 l-86 303q-8 26 -16.5 60t-14 54.5t-12 40.5t-13 29t-14.5 9q-12 0 -16.5 -25t-10 -76.5t-16.5 -91.5l-84 -301q-4 -10 -4 -22zM543 1528q0 -43 25.5 -68.5t68.5 -25.5q42 0 67 26t25 68q0 44 -24.5 70t-67.5 26q-42 0 -68 -26t-26 -70z" />
<glyph unicode="&#xc6;" horiz-adv-x="1937" d="M25 25q0 36 20 104l344 1147q8 27 13.5 56.5t7 41.5t9.5 23.5t22.5 14.5t43.5 3l150 -8q231 8 340 8h784q25 0 25 -20l-8 -107q6 -94 6 -110t-4 -19.5t-19 -3.5q-19 0 -78 6t-100 6h-344q-53 0 -53 -18q0 -5 3 -18t3 -23v-215q0 -26 9 -34.5t36 -8.5h354q18 0 24.5 -6.5 t6.5 -22.5l-6 -96q6 -78 6 -96q0 -10 -8.5 -17.5t-20.5 -7.5h-348q-33 0 -43 -12t-10 -45v-236q0 -42 14.5 -53.5t61.5 -11.5h327q23 0 32.5 8t10.5 35l4 71q0 29 19 29l96 -6q80 6 94 6q19 0 19 -24l-6 -158q6 -156 6 -189q0 -11 -7.5 -17.5t-19.5 -6.5q-28 0 -143 3 t-166 3h-621q-15 0 -19.5 3.5t-4.5 14.5q0 6 6 40t6 65v485h-244q-47 0 -88 15.5t-45 15.5q-18 0 -31 -19t-26 -65l-131 -451q-8 -26 -13 -59.5t-10.5 -44t-21.5 -10.5q-14 0 -64 5t-51 5h-125q-24 0 -24 25zM557 870q0 -24 31 -24h272q22 0 30.5 9t8.5 34v280h-227 q-18 0 -27.5 -15t-26.5 -71l-53 -180q-8 -21 -8 -33z" />
<glyph unicode="&#xc7;" horiz-adv-x="1243" d="M76 707q0 358 137.5 543.5t413.5 185.5q218 0 331 -113q20 -20 48 -20h96q16 0 16 -23l-4 -131q4 -143 4 -176q0 -18 -4 -22.5t-16 -4.5l-92 6q-81 -6 -95 -6q-20 0 -20 23q0 113 -59.5 168t-169.5 55q-143 0 -212 -109.5t-69 -365.5q0 -268 66.5 -380t220.5 -112 q119 0 180 59.5t61 174.5q0 22 19 22l100 -6q82 6 98 6q17 0 17 -24l-6 -144q6 -124 6 -151q0 -23 -23 -23h-82q-20 0 -43 -20q-118 -121 -317 -137l-12 -31q0 -11 6 -15.5t28 -5.5q181 -13 181 -161q0 -84 -77.5 -129.5t-205.5 -45.5q-94 0 -162 25q-15 6 -18.5 12.5 t-3.5 24.5v121q0 16 8 16q5 0 14 -6q49 -35 150 -35q51 0 73.5 11t22.5 40q0 28 -24.5 40t-86.5 12h-57q-16 0 -16 20l39 111q-231 26 -346 209.5t-115 511.5z" />
<glyph unicode="&#xc8;" horiz-adv-x="1185" d="M133 18q0 6 7 40t7 65v1198q0 52 22 73t71 21h768q24 0 24 -20l-8 -107q6 -94 6 -110t-4 -19.5t-18 -3.5q-19 0 -78.5 6t-100.5 6h-344q-53 0 -53 -18q0 -5 3 -18t3 -23v-215q0 -26 9 -34.5t36 -8.5h355q18 0 24 -6.5t6 -22.5l-6 -96q6 -78 6 -96q0 -11 -8 -18t-20 -7 h-348q-33 0 -43.5 -12t-10.5 -45v-236q0 -42 13.5 -53.5t60.5 -11.5h330q23 0 32.5 8t10.5 35l4 71q1 11 2.5 16.5t5.5 9t12 3.5l95 -6q80 6 94 6q18 0 18 -24l-6 -158q6 -156 6 -189q0 -24 -26 -24q-28 0 -143.5 3t-166.5 3h-602q-28 0 -36.5 3t-8.5 15zM293 1737 q0 12 20 12h187q13 0 28.5 1t18.5 1q6 0 12.5 -8t24.5 -35l102 -158q12 -17 22.5 -28.5t16 -16.5t6.5 -8q0 -6 -16 -6h-162q-11 0 -17.5 3t-11.5 8.5t-21.5 23t-39.5 37.5l-154 141q-16 13 -16 33z" />
<glyph unicode="&#xc9;" horiz-adv-x="1185" d="M133 18q0 6 7 40t7 65v1198q0 52 22 73t71 21h768q24 0 24 -20l-8 -107q6 -94 6 -110t-4 -19.5t-18 -3.5q-19 0 -78.5 6t-100.5 6h-344q-53 0 -53 -18q0 -5 3 -18t3 -23v-215q0 -26 9 -34.5t36 -8.5h355q18 0 24 -6.5t6 -22.5l-6 -96q6 -78 6 -96q0 -11 -8 -18t-20 -7 h-348q-33 0 -43.5 -12t-10.5 -45v-236q0 -42 13.5 -53.5t60.5 -11.5h330q23 0 32.5 8t10.5 35l4 71q1 11 2.5 16.5t5.5 9t12 3.5l95 -6q80 6 94 6q18 0 18 -24l-6 -158q6 -156 6 -189q0 -24 -26 -24q-28 0 -143.5 3t-166.5 3h-602q-28 0 -36.5 3t-8.5 15zM459 1497 q1 3 6.5 8t16 16.5t22.5 28.5l102 158q28 43 35 43q3 0 19.5 -1t29.5 -1h187q20 0 20 -12q0 -20 -16 -33l-154 -141q-23 -20 -39.5 -37.5t-21.5 -23t-11.5 -8.5t-17.5 -3h-162q-16 0 -16 6z" />
<glyph unicode="&#xca;" horiz-adv-x="1185" d="M133 18q0 6 7 40t7 65v1198q0 52 22 73t71 21h768q24 0 24 -20l-8 -107q6 -94 6 -110t-4 -19.5t-18 -3.5q-19 0 -78.5 6t-100.5 6h-344q-53 0 -53 -18q0 -5 3 -18t3 -23v-215q0 -26 9 -34.5t36 -8.5h355q18 0 24 -6.5t6 -22.5l-6 -96q6 -78 6 -96q0 -11 -8 -18t-20 -7 h-348q-33 0 -43.5 -12t-10.5 -45v-236q0 -42 13.5 -53.5t60.5 -11.5h330q23 0 32.5 8t10.5 35l4 71q1 11 2.5 16.5t5.5 9t12 3.5l95 -6q80 6 94 6q18 0 18 -24l-6 -158q6 -156 6 -189q0 -24 -26 -24q-28 0 -143.5 3t-166.5 3h-602q-28 0 -36.5 3t-8.5 15zM266 1509 q0 12 19 37l118 156q22 28 34.5 37.5t31.5 9.5h242q27 0 40.5 -8t34.5 -35l121 -162q21 -30 21 -35q0 -18 -19 -18h-141q-21 0 -34.5 6.5t-35.5 30.5l-82 88q-11 14 -24 14t-27 -14l-90 -88q-23 -23 -37.5 -30t-34.5 -7h-116q-10 0 -15.5 5.5t-5.5 12.5z" />
<glyph unicode="&#xcb;" horiz-adv-x="1185" d="M133 18q0 6 7 40t7 65v1198q0 52 22 73t71 21h768q24 0 24 -20l-8 -107q6 -94 6 -110t-4 -19.5t-18 -3.5q-19 0 -78.5 6t-100.5 6h-344q-53 0 -53 -18q0 -5 3 -18t3 -23v-215q0 -26 9 -34.5t36 -8.5h355q18 0 24 -6.5t6 -22.5l-6 -96q6 -78 6 -96q0 -11 -8 -18t-20 -7 h-348q-33 0 -43.5 -12t-10.5 -45v-236q0 -42 13.5 -53.5t60.5 -11.5h330q23 0 32.5 8t10.5 35l4 71q1 11 2.5 16.5t5.5 9t12 3.5l95 -6q80 6 94 6q18 0 18 -24l-6 -158q6 -156 6 -189q0 -24 -26 -24q-28 0 -143.5 3t-166.5 3h-602q-28 0 -36.5 3t-8.5 15zM319 1534 q0 12 3.5 37t3.5 39q0 10 -3.5 30.5t-3.5 30.5q0 31 29 31h150q26 0 26 -29q0 -11 -4 -33t-4 -34q0 -14 5 -39t5 -39q0 -29 -26 -29h-150q-31 0 -31 35zM664 1669q0 33 28 33h150q28 0 28 -33q0 -10 -4 -30.5t-4 -32.5q0 -14 4 -39t4 -39q0 -29 -24 -29h-152q-28 0 -28 37 q0 12 2 37t2 37q0 9 -3 29.5t-3 29.5z" />
<glyph unicode="&#xcc;" horiz-adv-x="583" d="M-14 1737q0 12 20 12h187q13 0 28.5 1t18.5 1q6 0 11.5 -7t24.5 -36l103 -158q12 -17 22.5 -28.5t16 -16.5t6.5 -8q0 -6 -16 -6h-162q-11 0 -17.5 3t-11.5 8.5t-21.5 23t-39.5 37.5l-154 141q-16 13 -16 33zM147 18v1336q0 38 5 49.5t24 11.5l123 -6q101 10 119 10 q24 0 24 -26q0 -10 -2 -51t-2 -72v-1043q0 -65 6.5 -134.5t6.5 -74.5q0 -18 -17 -18l-131 8q-116 -18 -141 -18q-10 0 -12.5 6t-2.5 22z" />
<glyph unicode="&#xcd;" horiz-adv-x="583" d="M147 18v1336q0 38 5 49.5t24 11.5l123 -6q101 10 119 10q24 0 24 -26q0 -10 -2 -51t-2 -72v-1043q0 -65 6.5 -134.5t6.5 -74.5q0 -18 -17 -18l-131 8q-116 -18 -141 -18q-10 0 -12.5 6t-2.5 22zM166 1497q1 3 6.5 8t16 16.5t22.5 28.5l102 158q28 43 35 43q3 0 19.5 -1 t29.5 -1h187q20 0 20 -12q0 -20 -16 -33l-154 -141q-23 -20 -39.5 -37.5t-21.5 -23t-11.5 -8.5t-17.5 -3h-162q-16 0 -16 6z" />
<glyph unicode="&#xce;" horiz-adv-x="583" d="M-4 1507q0 7 12 39l88 156q17 29 30.5 38t35.5 9h248q29 0 42 -7.5t27 -35.5l92 -162q15 -26 15 -37q0 -16 -19 -16h-141q-24 0 -35.5 7t-28.5 34l-51 84q-13 20 -26 20q-14 0 -27 -20l-59 -86q-17 -24 -30 -31.5t-36 -7.5h-119q-18 0 -18 16zM147 18v1336q0 38 5 49.5 t24 11.5l123 -6q101 10 119 10q24 0 24 -26q0 -10 -2 -51t-2 -72v-1043q0 -65 6.5 -134.5t6.5 -74.5q0 -18 -17 -18l-131 8q-116 -18 -141 -18q-10 0 -12.5 6t-2.5 22z" />
<glyph unicode="&#xcf;" horiz-adv-x="583" d="M37 1534q0 12 2 37t2 39q0 10 -2 30.5t-2 30.5q0 31 26 31h152q25 0 25 -29q0 -11 -3.5 -33t-3.5 -34q0 -14 4.5 -39t4.5 -39q0 -29 -25 -29h-151q-29 0 -29 35zM147 18v1336q0 38 5 49.5t24 11.5l123 -6q101 10 119 10q24 0 24 -26q0 -10 -2 -51t-2 -72v-1043 q0 -65 6.5 -134.5t6.5 -74.5q0 -18 -17 -18l-131 8q-116 -18 -141 -18q-10 0 -12.5 6t-2.5 22zM342 1669q0 33 29 33h149q29 0 29 -33q0 -10 -4 -30.5t-4 -32.5q0 -14 4 -39t4 -39q0 -29 -25 -29h-151q-29 0 -29 37q0 12 2 37t2 37q0 9 -3 29.5t-3 29.5z" />
<glyph unicode="&#xd0;" horiz-adv-x="1329" d="M43 633v176q0 13 7 16.5t30 3.5h67v480q0 15 -9 30.5t-9 22.5q0 17 41 27q66 17 204.5 32t233.5 15q160 0 277 -39.5t201 -125.5t125.5 -228t41.5 -341q0 -354 -145.5 -538t-417.5 -184q-260 0 -399 139q-12 12 -32 16t-83 4q-17 0 -23 7t-6 26v436q-70 -4 -73 -4 q-18 0 -24.5 5.5t-6.5 23.5zM430 487q0 -146 49 -207t180 -61q153 0 221 113.5t68 372.5q0 120 -16.5 208t-45 142t-73 86.5t-93.5 44.5t-114 12q-89 0 -147 -10q-18 -3 -23.5 -13t-5.5 -36v-310h121q40 0 80.5 2.5t46.5 2.5q27 0 27 -25v-176q0 -15 -10 -19t-40 -4h-225 v-123z" />
<glyph unicode="&#xd1;" horiz-adv-x="1390" d="M143 1391q0 26 21 26l102 -6q103 6 113 6q11 0 18 -8.5t16 -27t17 -29.5l444 -619q21 -29 43 -69t34 -61t18 -21q9 0 11.5 17t2.5 85v588q0 13 -1 55t-1 53q0 19 4.5 28t18.5 9l114 -6q95 6 105 6q14 0 19 -7t5 -30q0 -14 -1 -51t-1 -63v-1041q0 -47 1 -118.5t1 -81.5 q0 -17 -4 -21t-18 -4l-103 6q-92 -12 -110 -12q-12 0 -15.5 4.5t-3.5 17.5q0 68 -12.5 109.5t-50.5 91.5l-441 602q-17 24 -32.5 59t-23.5 56.5t-13 21.5q-6 0 -8 -12.5t-2 -54.5v-676q0 -58 2 -104t4 -69t2 -26q0 -9 -3.5 -12.5t-13.5 -3.5l-133 6q-84 -6 -96 -6 q-15 0 -20 7.5t-5 25.5v1251q0 16 -2 56t-2 53zM385 1520q0 124 51 183.5t133 59.5q42 0 96 -25t103.5 -50t81.5 -25q63 0 63 68q0 20 3 26t12 6l41 -4q25 4 37 4t16 -7.5t4 -26.5q0 -116 -47 -179t-133 -63q-56 0 -153 50t-132 50q-61 0 -61 -71q0 -19 -3.5 -24t-15.5 -5 l-41 4q-27 -4 -39 -4q-10 0 -13 6t-3 27z" />
<glyph unicode="&#xd2;" horiz-adv-x="1320" d="M76 707q0 363 143 546t447 183q581 0 581 -731q0 -373 -150.5 -549t-439.5 -176q-292 0 -436.5 180.5t-144.5 546.5zM375 1737q0 12 20 12h187q13 0 28.5 1t18.5 1q6 0 12.5 -8t24.5 -35l102 -158q12 -17 22.5 -28.5t16 -16.5t6.5 -8q0 -6 -16 -6h-162q-11 0 -17.5 3 t-11.5 8.5t-21.5 23t-39.5 37.5l-154 141q-16 13 -16 33zM381 707q0 -264 66.5 -376t211.5 -112t213 110t68 376q0 180 -30.5 288.5t-90.5 155.5t-157 47q-96 0 -156 -44.5t-92.5 -153.5t-32.5 -291z" />
<glyph unicode="&#xd3;" horiz-adv-x="1320" d="M76 707q0 363 143 546t447 183q581 0 581 -731q0 -373 -150.5 -549t-439.5 -176q-292 0 -436.5 180.5t-144.5 546.5zM381 707q0 -264 66.5 -376t211.5 -112t213 110t68 376q0 180 -30.5 288.5t-90.5 155.5t-157 47q-96 0 -156 -44.5t-92.5 -153.5t-32.5 -291zM532 1497 q1 3 7 8t16.5 16.5t22.5 28.5l102 158q28 43 35 43q3 0 19.5 -1t29.5 -1h186q21 0 21 -12q0 -19 -17 -33l-153 -141q-23 -20 -39.5 -37.5t-21.5 -23t-11.5 -8.5t-17.5 -3h-162q-17 0 -17 6z" />
<glyph unicode="&#xd4;" horiz-adv-x="1320" d="M76 707q0 363 143 546t447 183q581 0 581 -731q0 -373 -150.5 -549t-439.5 -176q-292 0 -436.5 180.5t-144.5 546.5zM334 1509q0 13 18 37l119 156q22 28 34.5 37.5t31.5 9.5h241q27 0 41 -8t35 -35l121 -162q20 -29 20 -35q0 -18 -18 -18h-141q-21 0 -34.5 6.5 t-35.5 30.5l-82 88q-11 14 -25 14q-12 0 -26 -14l-90 -88q-23 -23 -37.5 -30t-34.5 -7h-117q-10 0 -15 5.5t-5 12.5zM381 707q0 -264 66.5 -376t211.5 -112t213 110t68 376q0 180 -30.5 288.5t-90.5 155.5t-157 47q-96 0 -156 -44.5t-92.5 -153.5t-32.5 -291z" />
<glyph unicode="&#xd5;" horiz-adv-x="1320" d="M76 707q0 363 143 546t447 183q581 0 581 -731q0 -373 -150.5 -549t-439.5 -176q-292 0 -436.5 180.5t-144.5 546.5zM332 1520q0 124 51 183.5t133 59.5q42 0 96 -25t103.5 -50t81.5 -25q63 0 63 68q0 20 2.5 26t11.5 6l41 -4q25 4 37 4t16.5 -7.5t4.5 -26.5 q0 -116 -47 -179t-133 -63q-44 0 -99.5 25t-105 50t-80.5 25q-62 0 -62 -71q0 -19 -3 -24t-15 -5l-41 4q-27 -4 -39 -4q-10 0 -13 6t-3 27zM381 707q0 -264 66.5 -376t211.5 -112t213 110t68 376q0 180 -30.5 288.5t-90.5 155.5t-157 47q-96 0 -156 -44.5t-92.5 -153.5 t-32.5 -291z" />
<glyph unicode="&#xd6;" horiz-adv-x="1320" d="M76 707q0 363 143 546t447 183q581 0 581 -731q0 -373 -150.5 -549t-439.5 -176q-292 0 -436.5 180.5t-144.5 546.5zM381 707q0 -264 66.5 -376t211.5 -112t213 110t68 376q0 180 -30.5 288.5t-90.5 155.5t-157 47q-96 0 -156 -44.5t-92.5 -153.5t-32.5 -291zM391 1534 q0 12 3 37t3 39q0 10 -3 30.5t-3 30.5q0 31 29 31h149q27 0 27 -29q0 -11 -4 -33t-4 -34q0 -14 5 -39t5 -39q0 -29 -27 -29h-149q-31 0 -31 35zM735 1669q0 33 29 33h149q29 0 29 -33q0 -10 -4 -30.5t-4 -32.5q0 -14 4 -39t4 -39q0 -29 -24 -29h-152q-29 0 -29 37q0 12 2 37 t2 37q0 9 -3 29.5t-3 29.5z" />
<glyph unicode="&#xd7;" d="M182 231q0 8 15 23l235 235q12 12 12 21q0 15 -16 31l-227 225q-17 14 -17 27q0 9 17 26l88 90q13 13 22 13q10 0 27 -17l229 -227q13 -16 27 -16q10 0 27 14l229 229q19 19 27 19q7 0 26 -19l88 -90q13 -10 13 -20q0 -13 -19 -29l-235 -238q-9 -6 -9 -14q0 -9 17 -29 l229 -227q17 -17 17 -27q0 -9 -15 -24l-88 -90q-17 -17 -24 -17q-10 0 -31 21l-225 227q-18 14 -27 14q-13 0 -29 -16l-227 -227q-14 -17 -25 -17q-9 0 -24 15l-88 88q-19 19 -19 26z" />
<glyph unicode="&#xd8;" horiz-adv-x="1320" d="M76 707q0 363 143 546t447 183q177 0 303 -72l51 90q10 19 18 36t11.5 25.5t6 14.5t5 8t6.5 2l63 -6h37q9 0 9 -8q0 -4 -4.5 -12.5t-13.5 -23t-15 -26.5l-90 -161q194 -178 194 -598q0 -373 -150.5 -549t-439.5 -176q-186 0 -309 69l-45 -82q-15 -27 -26 -53.5 t-15.5 -34.5t-9.5 -8l-72 12h-22q-17 0 -17 8q0 6 4.5 13t14.5 20.5t18 28.5l88 158q-190 175 -190 596zM381 707q0 -213 41 -320l416 743q-63 66 -176 66q-96 0 -156 -44.5t-92.5 -153.5t-32.5 -291zM481 285q63 -66 178 -66q145 0 213 110t68 376q0 208 -41 323z" />
<glyph unicode="&#xd9;" horiz-adv-x="1361" d="M131 1395q0 22 23 22l147 -8q99 8 117 8t18 -18q0 -35 -3 -98t-3 -101v-598q0 -79 6 -133t21.5 -100.5t44 -73.5t73.5 -42t109 -15q144 0 197 85t53 277v717q0 23 -8 51.5t-8 34.5q0 9 4 11.5t16 2.5l143 -6q110 6 133 6q17 0 17 -20q0 -8 -3 -32.5t-3 -37.5v-784 q0 -563 -551 -563q-535 0 -535 563v751q0 30 -4 64.5t-4 36.5zM373 1737q0 12 20 12h187q13 0 28.5 1t18.5 1q6 0 12.5 -8t24.5 -35l102 -158q12 -17 22.5 -28.5t16 -16.5t6.5 -8q0 -6 -16 -6h-162q-11 0 -17.5 3t-11.5 8.5t-21.5 23t-39.5 37.5l-154 141q-16 13 -16 33z " />
<glyph unicode="&#xda;" horiz-adv-x="1361" d="M131 1395q0 22 23 22l147 -8q99 8 117 8t18 -18q0 -35 -3 -98t-3 -101v-598q0 -79 6 -133t21.5 -100.5t44 -73.5t73.5 -42t109 -15q144 0 197 85t53 277v717q0 23 -8 51.5t-8 34.5q0 9 4 11.5t16 2.5l143 -6q110 6 133 6q17 0 17 -20q0 -8 -3 -32.5t-3 -37.5v-784 q0 -563 -551 -563q-535 0 -535 563v751q0 30 -4 64.5t-4 36.5zM551 1497q1 3 6.5 8t16 16.5t22.5 28.5l102 158q28 43 35 43q3 0 19.5 -1t29.5 -1h187q20 0 20 -12q0 -20 -16 -33l-154 -141q-23 -20 -39.5 -37.5t-21.5 -23t-11.5 -8.5t-17.5 -3h-162q-16 0 -16 6z" />
<glyph unicode="&#xdb;" horiz-adv-x="1361" d="M131 1395q0 22 23 22l147 -8q99 8 117 8t18 -18q0 -35 -3 -98t-3 -101v-598q0 -79 6 -133t21.5 -100.5t44 -73.5t73.5 -42t109 -15q144 0 197 85t53 277v717q0 23 -8 51.5t-8 34.5q0 9 4 11.5t16 2.5l143 -6q110 6 133 6q17 0 17 -20q0 -8 -3 -32.5t-3 -37.5v-784 q0 -563 -551 -563q-535 0 -535 563v751q0 30 -4 64.5t-4 36.5zM348 1509q0 12 19 37l118 156q22 28 34.5 37.5t31.5 9.5h242q27 0 40.5 -8t34.5 -35l121 -162q21 -30 21 -35q0 -18 -19 -18h-141q-21 0 -34.5 6.5t-35.5 30.5l-82 88q-11 14 -24 14t-27 -14l-90 -88 q-23 -23 -37.5 -30t-34.5 -7h-116q-10 0 -15.5 5.5t-5.5 12.5z" />
<glyph unicode="&#xdc;" horiz-adv-x="1361" d="M131 1395q0 22 23 22l147 -8q99 8 117 8t18 -18q0 -35 -3 -98t-3 -101v-598q0 -79 6 -133t21.5 -100.5t44 -73.5t73.5 -42t109 -15q144 0 197 85t53 277v717q0 23 -8 51.5t-8 34.5q0 9 4 11.5t16 2.5l143 -6q110 6 133 6q17 0 17 -20q0 -8 -3 -32.5t-3 -37.5v-784 q0 -563 -551 -563q-535 0 -535 563v751q0 30 -4 64.5t-4 36.5zM406 1534q0 12 3 37t3 39q0 10 -3 30.5t-3 30.5q0 16 6 23.5t22 7.5h150q26 0 26 -29q0 -11 -4 -33t-4 -34q0 -14 5 -39t5 -39q0 -29 -26 -29h-150q-30 0 -30 35zM750 1669q0 33 28 33h150q28 0 28 -33 q0 -10 -4 -30.5t-4 -32.5q0 -14 4 -39t4 -39q0 -29 -24 -29h-152q-28 0 -28 37q0 12 2 37t2 37q0 9 -3 29.5t-3 29.5z" />
<glyph unicode="&#xdd;" horiz-adv-x="1212" d="M25 1395q0 20 20 20h133q121 12 137 12q7 0 9 -3t3 -13t3 -23.5t11 -40t24 -57.5l151 -309q26 -53 49 -113t33.5 -82t24.5 -22q8 0 14 26t19.5 79.5t35.5 101.5l152 317q19 42 27 78t10 48.5t8 12.5l141 -12h135q21 0 21 -20q0 -32 -58 -148l-288 -583 q-53 -108 -69.5 -179.5t-16.5 -150.5v-135q0 -35 2 -101t2 -75q0 -29 -19 -29l-129 14q-119 -8 -133 -8q-22 0 -22 12l4 16q4 16 4 27v275q0 87 -15 149.5t-77 186.5l-289 573q-57 114 -57 156zM475 1497q1 3 6.5 8t16 16.5t22.5 28.5l103 158q28 43 34 43q3 0 20 -1t30 -1 h186q20 0 20 -12q0 -20 -16 -33l-154 -141q-23 -20 -39.5 -37.5t-21.5 -23t-11.5 -8.5t-17.5 -3h-161q-17 0 -17 6z" />
<glyph unicode="&#xde;" horiz-adv-x="1212" d="M147 29v1325q0 38 5 50.5t24 12.5l123 -6q105 8 123 8q14 0 19 -5.5t5 -20.5q0 -10 -4 -51t-4 -72v-64q0 -16 15 -16q6 0 51.5 2t77.5 2q121 0 218.5 -26t174.5 -80.5t119.5 -148t42.5 -220.5q0 -233 -129 -356t-340 -123q-35 0 -67 14.5t-51 31.5t-42.5 31.5t-44.5 14.5 q-25 0 -25 -29v-203q0 -24 7.5 -52.5t7.5 -33.5q0 -16 -21 -16l-129 6q-115 -6 -133 -6q-13 0 -18 6.5t-5 24.5zM438 625q0 -82 34.5 -120t133.5 -38q232 0 232 256q0 242 -252 242q-65 0 -121 -7q-18 -3 -22.5 -10t-4.5 -30v-293z" />
<glyph unicode="&#xdf;" horiz-adv-x="1226" d="M-37 -133q0 14 14 14q3 0 15 -5t34 -10t48 -5q92 0 92 69q0 13 -8 57t-8 83v944q0 205 122.5 326.5t352.5 121.5q189 0 295 -73t106 -213q0 -61 -31.5 -122.5t-69 -103.5t-69 -93t-31.5 -93q0 -33 25.5 -67t63.5 -61.5t83 -64.5t83 -75t63.5 -94.5t25.5 -120.5 q0 -134 -90 -217.5t-252 -83.5q-190 0 -303 94q-24 21 -24 37q0 9 10 31.5t20 40.5l11 18q14 46 22 69q9 25 21 25q7 0 32 -29q34 -39 87.5 -62.5t109.5 -23.5q100 0 100 80q0 31 -25.5 61.5t-63.5 55t-82 57.5t-82 68t-63.5 89.5t-25.5 117.5q0 58 31 122t67.5 110 t67.5 100t31 96q0 116 -154 116q-106 0 -154 -56.5t-48 -182.5v-969q0 -185 -91 -286t-229 -101q-70 0 -112 20q-17 7 -17 29l4 82q-4 76 -4 78z" />
<glyph unicode="&#xe0;" horiz-adv-x="1060" d="M74 260q0 140 83.5 214.5t235.5 74.5q53 0 130 -19.5t108 -19.5q28 0 39.5 15.5t11.5 52.5v47q0 180 -236 180q-70 0 -126.5 -10t-84.5 -22t-49.5 -22t-27.5 -10q-15 0 -15 15l4 100q-4 73 -4 96q0 22 17 29q120 57 321 57q212 0 330.5 -95t118.5 -298q0 -74 -5 -215 t-5 -180v-180q0 -15 -4.5 -20t-16.5 -5t-51 2t-49 2q-15 0 -71.5 -17t-136.5 -34.5t-153 -17.5q-184 0 -274 67t-90 213zM274 1399q0 16 23 16h229q26 0 33.5 -8.5t13.5 -46.5l33 -174q3 -20 7.5 -35t7 -21.5t2.5 -11.5q0 -10 -17 -10h-151h-9.5t-7.5 2t-6 3.5t-6 6t-6 8 t-7 12t-9 15.5t-11 21t-14 26l-92 168q-13 20 -13 29zM338 262q0 -61 39.5 -89t120.5 -28q102 0 143 46t41 147q0 33 -5.5 40t-27.5 7h-162q-76 0 -112.5 -27.5t-36.5 -95.5z" />
<glyph unicode="&#xe1;" horiz-adv-x="1060" d="M74 260q0 140 83.5 214.5t235.5 74.5q53 0 130 -19.5t108 -19.5q28 0 39.5 15.5t11.5 52.5v47q0 180 -236 180q-70 0 -126.5 -10t-84.5 -22t-49.5 -22t-27.5 -10q-15 0 -15 15l4 100q-4 73 -4 96q0 22 17 29q120 57 321 57q212 0 330.5 -95t118.5 -298q0 -74 -5 -215 t-5 -180v-180q0 -15 -4.5 -20t-16.5 -5t-51 2t-49 2q-15 0 -71.5 -17t-136.5 -34.5t-153 -17.5q-184 0 -274 67t-90 213zM338 262q0 -61 39.5 -89t120.5 -28q102 0 143 46t41 147q0 33 -5.5 40t-27.5 7h-162q-76 0 -112.5 -27.5t-36.5 -95.5zM393 1118q0 5 2.5 11.5t7 21.5 t7.5 35l32 174q6 37 14.5 46t35.5 9h229q20 0 20 -16q0 -9 -10 -29l-94 -168q-7 -12 -14 -25.5t-11 -21t-8.5 -16t-7 -12.5t-6 -8t-6 -5.5t-6 -3t-7 -2t-8.5 -0.5h-151q-19 0 -19 10z" />
<glyph unicode="&#xe2;" horiz-adv-x="1060" d="M74 260q0 140 83.5 214.5t235.5 74.5q53 0 130 -19.5t108 -19.5q28 0 39.5 15.5t11.5 52.5v47q0 180 -236 180q-70 0 -126.5 -10t-84.5 -22t-49.5 -22t-27.5 -10q-15 0 -15 15l4 100q-4 73 -4 96q0 22 17 29q120 57 321 57q212 0 330.5 -95t118.5 -298q0 -74 -5 -215 t-5 -180v-180q0 -15 -4.5 -20t-16.5 -5t-51 2t-49 2q-15 0 -71.5 -17t-136.5 -34.5t-153 -17.5q-184 0 -274 67t-90 213zM184 1122q0 14 23 52l129 196q19 30 29.5 37.5t31.5 7.5h248q22 0 32.5 -8t29.5 -37l129 -196q22 -36 22 -52q0 -14 -18 -14h-133q-23 0 -38 8.5 t-40 38.5l-76 88q-25 29 -39 29q-16 0 -39 -29l-76 -90q-25 -28 -38.5 -36.5t-32.5 -8.5h-125q-19 0 -19 14zM338 262q0 -61 39.5 -89t120.5 -28q102 0 143 46t41 147q0 33 -5.5 40t-27.5 7h-162q-76 0 -112.5 -27.5t-36.5 -95.5z" />
<glyph unicode="&#xe3;" horiz-adv-x="1060" d="M74 260q0 140 83.5 214.5t235.5 74.5q53 0 130 -19.5t108 -19.5q28 0 39.5 15.5t11.5 52.5v47q0 180 -236 180q-70 0 -126.5 -10t-84.5 -22t-49.5 -22t-27.5 -10q-15 0 -15 15l4 100q-4 73 -4 96q0 22 17 29q120 57 321 57q212 0 330.5 -95t118.5 -298q0 -74 -5 -215 t-5 -180v-180q0 -15 -4.5 -20t-16.5 -5t-51 2t-49 2q-15 0 -71.5 -17t-136.5 -34.5t-153 -17.5q-184 0 -274 67t-90 213zM174 1147q0 131 56.5 200.5t142.5 69.5q48 0 105.5 -26t108.5 -52t83 -26q67 0 71 71q0 21 3 28t14 7l41 -4q27 4 41 4t18 -7t4 -26 q0 -123 -51.5 -195.5t-144.5 -72.5q-48 0 -106 26t-109.5 51.5t-83.5 25.5q-65 0 -72 -76q0 -20 -3.5 -25.5t-15.5 -5.5l-40 4q-31 -2 -43 -2t-15.5 6t-3.5 25zM338 262q0 -61 39.5 -89t120.5 -28q102 0 143 46t41 147q0 33 -5.5 40t-27.5 7h-162q-76 0 -112.5 -27.5 t-36.5 -95.5z" />
<glyph unicode="&#xe4;" horiz-adv-x="1060" d="M74 260q0 140 83.5 214.5t235.5 74.5q53 0 130 -19.5t108 -19.5q28 0 39.5 15.5t11.5 52.5v47q0 180 -236 180q-70 0 -126.5 -10t-84.5 -22t-49.5 -22t-27.5 -10q-15 0 -15 15l4 100q-4 73 -4 96q0 22 17 29q120 57 321 57q212 0 330.5 -95t118.5 -298q0 -74 -5 -215 t-5 -180v-180q0 -15 -4.5 -20t-16.5 -5t-51 2t-49 2q-15 0 -71.5 -17t-136.5 -34.5t-153 -17.5q-184 0 -274 67t-90 213zM231 1190q0 11 3.5 39.5t3.5 42.5q0 10 -3.5 36t-3.5 35q0 37 29 37h162q29 0 29 -34q0 -14 -3.5 -40.5t-3.5 -35.5q0 -12 3.5 -41t3.5 -43 q0 -35 -27 -35h-164q-17 0 -23 9t-6 30zM338 262q0 -61 39.5 -89t120.5 -28q102 0 143 46t41 147q0 33 -5.5 40t-27.5 7h-162q-76 0 -112.5 -27.5t-36.5 -95.5zM586 1190q0 11 3 39.5t3 42.5q0 10 -3 36t-3 35q0 37 28 37h164q29 0 29 -34q0 -14 -4 -40.5t-4 -35.5 q0 -12 4 -41t4 -43q0 -35 -27 -35h-166q-17 0 -22.5 9t-5.5 30z" />
<glyph unicode="&#xe5;" horiz-adv-x="1060" d="M74 260q0 140 83.5 214.5t235.5 74.5q53 0 130 -19.5t108 -19.5q28 0 39.5 15.5t11.5 52.5v47q0 180 -236 180q-70 0 -126.5 -10t-84.5 -22t-49.5 -22t-27.5 -10q-15 0 -15 15l4 100q-4 73 -4 96q0 22 17 29q120 57 321 57q212 0 330.5 -95t118.5 -298q0 -74 -5 -215 t-5 -180v-180q0 -15 -4.5 -20t-16.5 -5t-51 2t-49 2q-15 0 -71.5 -17t-136.5 -34.5t-153 -17.5q-184 0 -274 67t-90 213zM262 1319q0 97 69.5 157t184.5 60q116 0 184 -58t68 -159q0 -102 -67.5 -161.5t-184.5 -59.5t-185.5 59t-68.5 162zM338 262q0 -61 39.5 -89t120.5 -28 q102 0 143 46t41 147q0 33 -5.5 40t-27.5 7h-162q-76 0 -112.5 -27.5t-36.5 -95.5zM422 1319q0 -44 25.5 -70t68.5 -26q42 0 67 26.5t25 69.5t-25.5 68.5t-66.5 25.5q-42 0 -68 -25t-26 -69z" />
<glyph unicode="&#xe6;" horiz-adv-x="1656" d="M74 260q0 140 83.5 214.5t235.5 74.5q53 0 130 -19.5t108 -19.5q28 0 39.5 15.5t11.5 52.5v47q0 180 -236 180q-70 0 -126.5 -10t-84.5 -22t-49.5 -22t-27.5 -10q-15 0 -15 15l4 100q-4 73 -4 98q0 20 17 27q120 57 321 57q214 0 324 -98q16 -16 26 -16q6 0 25 16 q128 98 293 98q191 0 305.5 -101t114.5 -273q0 -66 -13 -123q-7 -28 -20 -37.5t-41 -9.5h-508q-27 0 -38 -6.5t-11 -24.5q0 -66 23 -116t64.5 -79.5t93 -44t112.5 -14.5q165 0 268 86q7 10 25 10q16 0 16 -18l-6 -88v-99q0 -18 -5.5 -26t-23.5 -19q-57 -37 -142 -56 t-169 -19q-185 0 -303 75q-40 23 -55 23q-8 0 -19.5 -4t-26 -10.5t-18.5 -8.5q-65 -32 -155.5 -53.5t-178.5 -21.5q-184 0 -274 67t-90 213zM338 262q0 -61 39.5 -89t120.5 -28q102 0 143 47.5t41 145.5q0 33 -5.5 40t-27.5 7h-162q-76 0 -112.5 -27.5t-36.5 -95.5zM942 672 q1 -23 7 -31t20 -8q9 0 31.5 7t31.5 7h238q27 0 36 12t9 48q0 75 -47.5 114t-124.5 39q-89 0 -141 -51.5t-60 -136.5z" />
<glyph unicode="&#xe7;" horiz-adv-x="1017" d="M70 506q0 249 135.5 390.5t353.5 141.5q256 0 367 -145q14 -14 14 -31q0 -6 -10 -16l-64 -74q-41 -76 -45 -80q-10 -20 -20 -20q-14 0 -23 18q-55 139 -198 139q-228 0 -228 -309t283 -309q149 0 256 86q15 12 24 12q15 0 15 -20l-6 -111v-78q0 -21 -5.5 -30t-25.5 -19 q-112 -68 -299 -71l-12 -31q0 -13 5.5 -17.5t26.5 -5.5q83 -6 126.5 -43t43.5 -114q0 -84 -72 -129.5t-192 -45.5q-89 0 -151 25q-17 6 -21 12.5t-4 24.5v121q0 14 8 14q6 0 15 -6q50 -35 141 -35q49 0 70.5 11.5t21.5 39.5q0 29 -23 41.5t-81 12.5h-54q-16 0 -16 20l39 113 q-194 30 -294.5 165.5t-100.5 352.5z" />
<glyph unicode="&#xe8;" horiz-adv-x="1069" d="M70 508q0 150 57 269t170 190t264 71q189 0 304.5 -100t115.5 -274q0 -62 -14 -123q-6 -28 -19.5 -37.5t-40.5 -9.5h-510q-26 0 -36.5 -6.5t-10.5 -24.5q0 -123 79.5 -188.5t213.5 -65.5q161 0 268 86q10 10 25 10q16 0 16 -18l-8 -101v-86q0 -18 -5.5 -27t-23.5 -18 q-55 -35 -139.5 -55t-171.5 -20q-243 0 -388.5 138.5t-145.5 389.5zM326 1399q0 16 22 16h230q26 0 33.5 -8.5t13.5 -46.5l32 -174q3 -20 7.5 -35t7 -21.5t2.5 -11.5q0 -10 -17 -10h-151h-9.5t-7.5 2t-6 3.5t-6 6t-6 8t-7 12t-9 15.5t-11 21t-14 26l-92 168q-12 18 -12 29z M352 672q3 -23 8.5 -31t18.5 -8q9 0 32 7t31 7h238q29 0 38 12t9 48q0 75 -47.5 114t-124.5 39q-89 0 -141.5 -51.5t-61.5 -136.5z" />
<glyph unicode="&#xe9;" horiz-adv-x="1069" d="M70 508q0 150 57 269t170 190t264 71q189 0 304.5 -100t115.5 -274q0 -62 -14 -123q-6 -28 -19.5 -37.5t-40.5 -9.5h-510q-26 0 -36.5 -6.5t-10.5 -24.5q0 -123 79.5 -188.5t213.5 -65.5q161 0 268 86q10 10 25 10q16 0 16 -18l-8 -101v-86q0 -18 -5.5 -27t-23.5 -18 q-55 -35 -139.5 -55t-171.5 -20q-243 0 -388.5 138.5t-145.5 389.5zM352 672q3 -23 8.5 -31t18.5 -8q9 0 32 7t31 7h238q29 0 38 12t9 48q0 75 -47.5 114t-124.5 39q-89 0 -141.5 -51.5t-61.5 -136.5zM461 1118q0 5 2 11.5t6.5 21.5t7.5 35l33 174q6 38 14 46.5t35 8.5h229 q21 0 21 -16q0 -9 -10 -29l-94 -168q-7 -12 -14 -25.5t-11 -21t-8.5 -16t-7 -12.5t-6 -8t-6 -5.5t-6 -3t-7 -2t-8.5 -0.5h-152q-18 0 -18 10z" />
<glyph unicode="&#xea;" horiz-adv-x="1069" d="M70 508q0 150 57 269t170 190t264 71q189 0 304.5 -100t115.5 -274q0 -62 -14 -123q-6 -28 -19.5 -37.5t-40.5 -9.5h-510q-26 0 -36.5 -6.5t-10.5 -24.5q0 -123 79.5 -188.5t213.5 -65.5q161 0 268 86q10 10 25 10q16 0 16 -18l-8 -101v-86q0 -18 -5.5 -27t-23.5 -18 q-55 -35 -139.5 -55t-171.5 -20q-243 0 -388.5 138.5t-145.5 389.5zM223 1122q0 14 23 52l129 196q19 30 29 37.5t32 7.5h248q22 0 32 -7.5t29 -37.5l129 -196q23 -38 23 -52t-18 -14h-134q-22 0 -36.5 8.5t-40.5 38.5l-76 88q-25 29 -39 29q-16 0 -39 -29l-76 -90 q-25 -28 -38.5 -36.5t-32.5 -8.5h-125q-19 0 -19 14zM352 672q3 -23 8.5 -31t18.5 -8q9 0 32 7t31 7h238q29 0 38 12t9 48q0 75 -47.5 114t-124.5 39q-89 0 -141.5 -51.5t-61.5 -136.5z" />
<glyph unicode="&#xeb;" horiz-adv-x="1069" d="M70 508q0 150 57 269t170 190t264 71q189 0 304.5 -100t115.5 -274q0 -62 -14 -123q-6 -28 -19.5 -37.5t-40.5 -9.5h-510q-26 0 -36.5 -6.5t-10.5 -24.5q0 -123 79.5 -188.5t213.5 -65.5q161 0 268 86q10 10 25 10q16 0 16 -18l-8 -101v-86q0 -18 -5.5 -27t-23.5 -18 q-55 -35 -139.5 -55t-171.5 -20q-243 0 -388.5 138.5t-145.5 389.5zM268 1190q0 11 3 39.5t3 42.5q0 10 -3 36t-3 35q0 37 29 37h162q28 0 28 -34q0 -14 -3 -40.5t-3 -35.5q0 -12 3 -41t3 -43q0 -35 -26 -35h-164q-17 0 -23 9t-6 30zM352 672q3 -23 8.5 -31t18.5 -8 q9 0 32 7t31 7h238q29 0 38 12t9 48q0 75 -47.5 114t-124.5 39q-89 0 -141.5 -51.5t-61.5 -136.5zM623 1190q0 11 3 39.5t3 42.5q0 10 -3 36t-3 35q0 37 28 37h164q29 0 29 -34q0 -14 -4 -40.5t-4 -35.5q0 -12 4 -41t4 -43q0 -35 -27 -35h-166q-17 0 -22.5 9t-5.5 30z" />
<glyph unicode="&#xec;" horiz-adv-x="557" d="M33 1399q0 16 22 16h230q26 0 33.5 -8.5t13.5 -46.5l33 -174q3 -20 7.5 -35t6.5 -21.5t2 -11.5q0 -10 -16 -10h-152h-9.5t-7.5 2t-6 3.5t-6 6t-6 8t-7 12t-9 15.5t-11 21t-14 26l-92 168q-12 18 -12 29zM141 983q0 22 6 29.5t23 7.5l109 -6q102 6 116 6q10 0 13.5 -6 t3.5 -21q0 -11 -1 -34.5t-1 -30.5v-754q0 -46 7 -101.5t7 -60.5q0 -14 -12 -14l-125 8q-99 -8 -117 -8q-16 0 -21.5 4.5t-5.5 15.5q0 6 2 24.5t2 31.5v778q0 25 -3 70.5t-3 60.5z" />
<glyph unicode="&#xed;" horiz-adv-x="557" d="M141 983q0 22 6 29.5t23 7.5l109 -6q102 6 116 6q10 0 13.5 -6t3.5 -21q0 -11 -1 -34.5t-1 -30.5v-754q0 -46 7 -101.5t7 -60.5q0 -14 -12 -14l-125 8q-99 -8 -117 -8q-16 0 -21.5 4.5t-5.5 15.5q0 6 2 24.5t2 31.5v778q0 25 -3 70.5t-3 60.5zM174 1118q0 5 2 11.5 t6.5 21.5t7.5 35l33 174q6 38 14 46.5t35 8.5h230q20 0 20 -16q0 -9 -10 -29l-94 -168q-7 -12 -14 -25.5t-11 -21t-8.5 -16t-7 -12.5t-6 -8t-6 -5.5t-6 -3t-7 -2t-8.5 -0.5h-151q-19 0 -19 10z" />
<glyph unicode="&#xee;" horiz-adv-x="557" d="M-2 1122q0 21 16 54l92 194q13 29 23 37t31 8h235q21 0 31 -8t23 -37l94 -194q16 -40 16 -54t-18 -14h-119q-15 0 -23.5 2t-20.5 13t-24 32l-47 88q-16 37 -35 37q-17 0 -36 -37l-48 -90q-25 -45 -63 -45h-111q-16 0 -16 14zM141 983q0 22 6 29.5t23 7.5l109 -6 q102 6 116 6q10 0 13.5 -6t3.5 -21q0 -11 -1 -34.5t-1 -30.5v-754q0 -46 7 -101.5t7 -60.5q0 -14 -12 -14l-125 8q-99 -8 -117 -8q-16 0 -21.5 4.5t-5.5 15.5q0 6 2 24.5t2 31.5v778q0 25 -3 70.5t-3 60.5z" />
<glyph unicode="&#xef;" horiz-adv-x="557" d="M14 1190q0 14 3 43t3 43q0 12 -3 36t-3 36q0 17 6 24.5t21 7.5h152q26 0 26 -30q0 -13 -4 -40t-4 -38q0 -16 4 -46t4 -44q0 -31 -24 -31h-152q-29 0 -29 39zM141 983q0 22 6 29.5t23 7.5l109 -6q102 6 116 6q10 0 13.5 -6t3.5 -21q0 -11 -1 -34.5t-1 -30.5v-754 q0 -46 7 -101.5t7 -60.5q0 -14 -12 -14l-125 8q-99 -8 -117 -8q-16 0 -21.5 4.5t-5.5 15.5q0 6 2 24.5t2 31.5v778q0 25 -3 70.5t-3 60.5zM334 1346q0 18 6 26t22 8h152q27 0 27 -34q0 -12 -4.5 -37t-4.5 -37q0 -16 5.5 -46t5.5 -44q0 -31 -27 -31h-151q-29 0 -29 45 q0 12 2 39t2 41q0 10 -3 35t-3 35z" />
<glyph unicode="&#xf0;" horiz-adv-x="1116" d="M70 496q0 238 107 383t278 145q22 0 67.5 -14.5t57.5 -14.5q15 0 19.5 5t4.5 22q-89 86 -211 158l-137 -117q-11 -8 -20 -8l-60 51q-14 6 -14 22l127 109q-71 31 -109 43q-11 5 -14.5 12t-3.5 25l80 88l55 82q6 12 14 12t23 -6q129 -75 151 -90l131 113q10 10 21 10 l72 -68q0 -9 -13 -22l-114 -97q247 -174 357 -364t110 -426q0 -136 -40.5 -245.5t-110.5 -179.5t-160.5 -107t-192.5 -37q-118 0 -209.5 38.5t-149 108.5t-87 163t-29.5 206zM352 498q0 -144 51 -229t148 -85q109 0 162 87.5t53 244.5q0 169 -43 246.5t-137 77.5 q-121 0 -177.5 -77.5t-56.5 -264.5z" />
<glyph unicode="&#xf1;" horiz-adv-x="1193" d="M72 946q0 12 12 21l90 63q13 8 25 8q15 0 70 -47t81 -47q11 0 38.5 14.5t59.5 32.5t91.5 32.5t128.5 14.5q186 0 289.5 -127t103.5 -364v-418q0 -24 2 -58.5t2 -45.5q0 -15 -5 -21t-18 -6l-114 8q-91 -8 -105 -8q-18 0 -22 5.5t-4 23.5q0 7 1 28t1 31v418q0 68 -4 114 t-16 86.5t-33 64t-55 37t-83 13.5t-84 -15t-56.5 -40.5t-34 -66.5t-17 -84.5t-4.5 -102.5v-426q0 -8 1 -30t1 -29q0 -16 -4.5 -21.5t-18.5 -5.5l-115 6q-92 -6 -108 -6q-18 0 -18 22v517q0 65 8.5 112t18 66t18 36.5t8.5 30.5q0 23 -65.5 87t-65.5 77zM258 1147 q0 131 56.5 200.5t142.5 69.5q48 0 105.5 -26t108.5 -52t83 -26q67 0 71 71q0 21 3 28t14 7l41 -4q27 4 41 4t18 -7t4 -26q0 -123 -51.5 -195.5t-144.5 -72.5q-48 0 -106 26t-109.5 51.5t-83.5 25.5q-65 0 -72 -76q0 -20 -3.5 -25.5t-15.5 -5.5l-41 4q-31 -2 -43 -2t-15 6 t-3 25z" />
<glyph unicode="&#xf2;" horiz-adv-x="1118" d="M70 514q0 133 45 243t121 169q40 0 78.5 17.5t68 38.5t84 38.5t121.5 17.5q220 0 340.5 -137t120.5 -393t-132 -392t-354 -136q-244 0 -368.5 135t-124.5 399zM340 1399q0 16 22 16h230q26 0 33.5 -8.5t13.5 -46.5l33 -174q3 -20 7.5 -35t6.5 -21.5t2 -11.5 q0 -10 -16 -10h-152h-9.5t-7.5 2t-6 3.5t-6 6t-6 8t-7 12t-9 15.5t-11 21t-14 26l-92 168q-12 18 -12 29zM352 514q0 -167 48.5 -248.5t158.5 -81.5q107 0 157 81.5t50 242.5q0 166 -49 246t-160 80q-205 0 -205 -320z" />
<glyph unicode="&#xf3;" horiz-adv-x="1118" d="M70 514q0 133 45 243t121 169q40 0 78.5 17.5t68 38.5t84 38.5t121.5 17.5q220 0 340.5 -137t120.5 -393t-132 -392t-354 -136q-244 0 -368.5 135t-124.5 399zM352 514q0 -167 48.5 -248.5t158.5 -81.5q107 0 157 81.5t50 242.5q0 166 -49 246t-160 80q-205 0 -205 -320z M449 1118q0 5 2 11.5t6.5 21.5t7.5 35l33 174q6 38 14 46.5t35 8.5h229q21 0 21 -16q0 -7 -11 -29l-94 -168q-7 -12 -14 -25.5t-11 -21t-8.5 -16t-7 -12.5t-6 -8t-6 -5.5t-6 -3t-7 -2t-8.5 -0.5h-151q-18 0 -18 10z" />
<glyph unicode="&#xf4;" horiz-adv-x="1118" d="M70 514q0 133 45 243t121 169q40 0 78.5 17.5t68 38.5t84 38.5t121.5 17.5q220 0 340.5 -137t120.5 -393t-132 -392t-354 -136q-244 0 -368.5 135t-124.5 399zM233 1122q0 14 23 52l129 196q19 30 29 37.5t32 7.5h248q22 0 32.5 -8t29.5 -37l129 -196q22 -36 22 -52 q0 -14 -18 -14h-133q-23 0 -38 8.5t-40 38.5l-76 88q-25 29 -39 29q-16 0 -39 -29l-75 -90q-24 -27 -38.5 -36t-33.5 -9h-125q-19 0 -19 14zM352 514q0 -167 48.5 -248.5t158.5 -81.5q107 0 157 81.5t50 242.5q0 166 -49 246t-160 80q-205 0 -205 -320z" />
<glyph unicode="&#xf5;" horiz-adv-x="1118" d="M70 514q0 133 45 243t121 169q40 0 78.5 17.5t68 38.5t84 38.5t121.5 17.5q220 0 340.5 -137t120.5 -393t-132 -392t-354 -136q-244 0 -368.5 135t-124.5 399zM221 1147q0 131 56.5 200.5t142.5 69.5q48 0 105.5 -26t108.5 -52t83 -26q67 0 71 71q0 21 3 28t14 7l41 -4 q27 4 41 4t18 -7t4 -26q0 -123 -51.5 -195.5t-144.5 -72.5q-48 0 -106 26t-109.5 51.5t-83.5 25.5q-65 0 -72 -76q0 -20 -3 -25.5t-15 -5.5l-41 4q-31 -2 -43 -2t-15.5 6t-3.5 25zM352 514q0 -167 48.5 -248.5t158.5 -81.5q107 0 157 81.5t50 242.5q0 166 -49 246t-160 80 q-205 0 -205 -320z" />
<glyph unicode="&#xf6;" horiz-adv-x="1118" d="M70 514q0 133 45 243t121 169q40 0 78.5 17.5t68 38.5t84 38.5t121.5 17.5q220 0 340.5 -137t120.5 -393t-132 -392t-354 -136q-244 0 -368.5 135t-124.5 399zM276 1190q0 11 3.5 39.5t3.5 42.5q0 10 -3.5 36t-3.5 35q0 37 29 37h162q29 0 29 -34q0 -14 -3.5 -40.5 t-3.5 -35.5q0 -12 3.5 -41t3.5 -43q0 -35 -27 -35h-164q-17 0 -23 9t-6 30zM352 514q0 -167 48.5 -248.5t158.5 -81.5q107 0 157 81.5t50 242.5q0 166 -49 246t-160 80q-205 0 -205 -320zM631 1190q0 11 3 39.5t3 42.5q0 10 -3 36t-3 35q0 37 28 37h164q29 0 29 -34 q0 -14 -4 -40.5t-4 -35.5q0 -12 4 -41t4 -43q0 -35 -27 -35h-166q-17 0 -22.5 9t-5.5 30z" />
<glyph unicode="&#xf7;" d="M154 463v104q0 23 7 29t36 6h794q29 0 36 -6.5t7 -28.5v-108q0 -24 -6 -30.5t-31 -6.5h-804q-25 0 -32 6.5t-7 34.5zM475 246q0 41 31 41h176q29 0 29 -43q0 -15 -4.5 -43t-4.5 -39q0 -14 4.5 -47t4.5 -47q0 -43 -27 -43h-176q-31 0 -31 49q0 13 2 45.5t2 48.5 q0 12 -3 38.5t-3 39.5zM475 942q0 43 31 43h176q29 0 29 -43q0 -16 -4.5 -44t-4.5 -38q0 -16 4.5 -48t4.5 -46q0 -43 -27 -43h-176q-31 0 -31 47q0 14 2 46t2 48q0 12 -3 39t-3 39z" />
<glyph unicode="&#xf8;" horiz-adv-x="1118" d="M70 514q0 133 45 243t121 169q40 0 78.5 17.5t68 38.5t84 38.5t121.5 17.5q123 0 213 -43l33 56q16 27 29.5 52.5t20 40t12.5 26t10 16t9 4.5l39 -6h54q10 0 10 -4q0 -6 -35 -66l-102 -170q168 -133 168 -436q0 -256 -132 -392t-354 -136q-137 0 -235 40l-56 -94 q-10 -17 -19 -35t-13.5 -28.5t-9 -19t-8.5 -12t-9 -3.5l-63 12q-25 0 -31 1t-6 7q0 4 4 10.5t14 21t19 28.5l96 160q-176 132 -176 446zM352 514q0 -144 31 -215l297 496q-45 39 -123 39q-205 0 -205 -320zM444 215q48 -31 115 -31q107 0 157 81.5t50 242.5q0 122 -27 199z " />
<glyph unicode="&#xf9;" horiz-adv-x="1189" d="M129 993q0 15 5 21t18 6l114 -8q91 8 105 8q17 0 21.5 -5t4.5 -24q0 -8 -1 -27t-1 -28v-418q0 -170 39 -242.5t154 -72.5q49 0 84 16t56 42t33.5 67.5t16.5 85t4 102.5v475q0 29 23 29l106 -6q99 6 117 6q16 0 16 -23v-520q0 -80 -15 -133t-29.5 -79t-14.5 -42 q0 -21 65.5 -87t65.5 -77q0 -13 -10 -18l-117 -53q-13 -8 -24 -8q-15 0 -62.5 43t-71.5 43q-9 0 -33.5 -13.5t-55 -29.5t-91 -29.5t-131.5 -13.5q-178 0 -282.5 123.5t-104.5 363.5v434q0 21 -2 52t-2 40zM348 1399q0 16 23 16h229q26 0 33.5 -8.5t13.5 -46.5l33 -174 q3 -20 7.5 -35t6.5 -21.5t2 -11.5q0 -10 -16 -10h-152q-6 0 -10 0.5t-8 1.5t-7.5 5t-6 7.5t-7.5 12t-9 16t-12 23t-15 28.5l-93 168q-12 18 -12 29z" />
<glyph unicode="&#xfa;" horiz-adv-x="1189" d="M129 993q0 15 5 21t18 6l114 -8q91 8 105 8q17 0 21.5 -5t4.5 -24q0 -8 -1 -27t-1 -28v-418q0 -170 39 -242.5t154 -72.5q49 0 84 16t56 42t33.5 67.5t16.5 85t4 102.5v475q0 29 23 29l106 -6q99 6 117 6q16 0 16 -23v-520q0 -80 -15 -133t-29.5 -79t-14.5 -42 q0 -21 65.5 -87t65.5 -77q0 -13 -10 -18l-117 -53q-13 -8 -24 -8q-15 0 -62.5 43t-71.5 43q-9 0 -33.5 -13.5t-55 -29.5t-91 -29.5t-131.5 -13.5q-178 0 -282.5 123.5t-104.5 363.5v434q0 21 -2 52t-2 40zM467 1118q0 5 2 11.5t6.5 21.5t7.5 35l33 174q6 38 14 46.5t35 8.5 h230q20 0 20 -16q0 -9 -10 -29l-94 -168q-7 -12 -14 -25.5t-11 -21t-8.5 -16t-7 -12.5t-6 -8t-6 -5.5t-6 -3t-7 -2t-8.5 -0.5h-152q-18 0 -18 10z" />
<glyph unicode="&#xfb;" horiz-adv-x="1189" d="M129 993q0 15 5 21t18 6l114 -8q91 8 105 8q17 0 21.5 -5t4.5 -24q0 -8 -1 -27t-1 -28v-418q0 -170 39 -242.5t154 -72.5q49 0 84 16t56 42t33.5 67.5t16.5 85t4 102.5v475q0 29 23 29l106 -6q99 6 117 6q16 0 16 -23v-520q0 -80 -15 -133t-29.5 -79t-14.5 -42 q0 -21 65.5 -87t65.5 -77q0 -13 -10 -18l-117 -53q-13 -8 -24 -8q-15 0 -62.5 43t-71.5 43q-9 0 -33.5 -13.5t-55 -29.5t-91 -29.5t-131.5 -13.5q-178 0 -282.5 123.5t-104.5 363.5v434q0 21 -2 52t-2 40zM260 1122q0 14 23 52l129 196q19 30 29.5 37.5t31.5 7.5h248 q21 0 31.5 -7.5t29.5 -37.5l129 -196q23 -38 23 -52t-19 -14h-133q-22 0 -36.5 8.5t-40.5 38.5l-76 88q-25 29 -39 29q-16 0 -39 -29l-76 -90q-24 -27 -38.5 -36t-33.5 -9h-124q-19 0 -19 14z" />
<glyph unicode="&#xfc;" horiz-adv-x="1189" d="M129 993q0 15 5 21t18 6l114 -8q91 8 105 8q17 0 21.5 -5t4.5 -24q0 -8 -1 -27t-1 -28v-418q0 -170 39 -242.5t154 -72.5q49 0 84 16t56 42t33.5 67.5t16.5 85t4 102.5v475q0 29 23 29l106 -6q99 6 117 6q16 0 16 -23v-520q0 -80 -15 -133t-29.5 -79t-14.5 -42 q0 -21 65.5 -87t65.5 -77q0 -13 -10 -18l-117 -53q-13 -8 -24 -8q-15 0 -62.5 43t-71.5 43q-9 0 -33.5 -13.5t-55 -29.5t-91 -29.5t-131.5 -13.5q-178 0 -282.5 123.5t-104.5 363.5v434q0 21 -2 52t-2 40zM301 1190q0 11 3 39.5t3 42.5q0 10 -3 36t-3 35q0 37 29 37h162 q28 0 28 -34q0 -14 -3 -40.5t-3 -35.5q0 -12 3 -41t3 -43q0 -35 -26 -35h-164q-17 0 -23 9t-6 30zM655 1190q0 11 3.5 39.5t3.5 42.5q0 10 -3.5 36t-3.5 35q0 37 29 37h164q29 0 29 -34q0 -14 -4.5 -40.5t-4.5 -35.5q0 -12 4.5 -41t4.5 -43q0 -35 -27 -35h-166q-17 0 -23 9 t-6 30z" />
<glyph unicode="&#xfd;" horiz-adv-x="1091" d="M49 997q0 5 5.5 13t13.5 8h135q80 14 92 14q15 0 23 -4t12.5 -16t6.5 -25.5t7.5 -41.5t13.5 -54l129 -445q16 -56 30 -131t23.5 -105t26.5 -30q12 0 17.5 16.5t5.5 59.5q0 89 24 180l127 453q7 24 12.5 51.5t8 41t8 27t14 18.5t23.5 5l98 -14h125q19 0 19 -21 q0 -22 -45 -151l-211 -621q-6 -17 -26.5 -78t-26 -79.5t-19.5 -66t-18.5 -72.5t-9.5 -61t-5 -67v-147q0 -23 -5.5 -30t-23.5 -7l-110 6q-95 -12 -111 -12q-8 0 -11.5 3t-4 6.5t-0.5 12.5q0 5 2 25.5t2 30.5v112q0 66 -16 127.5t-54.5 159t-54.5 143.5l-205 611 q-1 3 -16.5 45.5t-23 68t-7.5 41.5zM444 1118q0 5 2.5 11.5t7 21.5t7.5 35l33 174q6 38 14 46.5t35 8.5h229q21 0 21 -16q0 -7 -11 -29l-94 -168q-7 -12 -14 -25.5t-11 -21t-8.5 -16t-7 -12.5t-6 -8t-6 -5.5t-6 -3t-7 -2t-8.5 -0.5h-151q-19 0 -19 10z" />
<glyph unicode="&#xfe;" horiz-adv-x="1183" d="M145 -358q0 19 2.5 70t2.5 73v1645q0 22 4.5 27t21.5 5l113 -6q100 6 125 6q10 0 10 -16q0 -10 -6 -53.5t-6 -67.5v-352q0 -19 4 -26t14 -7q8 0 30 14.5t49 31.5t78 31.5t109 14.5q189 0 303.5 -139.5t114.5 -378.5q0 -153 -49 -272.5t-146 -189.5t-229 -70 q-49 0 -91 15.5t-65 33.5t-48 33.5t-44 15.5q-21 0 -26.5 -6.5t-5.5 -32.5v-277q0 -34 4 -75t4 -51q0 -21 -25 -21l-106 6q-107 -8 -123 -8q-19 0 -19 27zM412 485q0 -169 52.5 -248t162.5 -79q109 0 156.5 88t47.5 256q0 172 -53 250.5t-157 78.5q-209 0 -209 -346z" />
<glyph unicode="&#xff;" horiz-adv-x="1091" d="M49 997q0 5 5.5 13t13.5 8h135q80 14 92 14q15 0 23 -4t12.5 -16t6.5 -25.5t7.5 -41.5t13.5 -54l129 -445q16 -56 30 -131t23.5 -105t26.5 -30q12 0 17.5 16.5t5.5 59.5q0 89 24 180l127 453q7 24 12.5 51.5t8 41t8 27t14 18.5t23.5 5l98 -14h125q19 0 19 -21 q0 -22 -45 -151l-211 -621q-6 -17 -26.5 -78t-26 -79.5t-19.5 -66t-18.5 -72.5t-9.5 -61t-5 -67v-147q0 -23 -5.5 -30t-23.5 -7l-110 6q-95 -12 -111 -12q-8 0 -11.5 3t-4 6.5t-0.5 12.5q0 5 2 25.5t2 30.5v112q0 66 -16 127.5t-54.5 159t-54.5 143.5l-205 611 q-1 3 -16.5 45.5t-23 68t-7.5 41.5zM266 1190q0 11 3 39.5t3 42.5q0 10 -3 36t-3 35q0 37 29 37h162q28 0 28 -34q0 -14 -3 -40.5t-3 -35.5q0 -12 3 -41t3 -43q0 -35 -26 -35h-164q-17 0 -23 9t-6 30zM621 1190q0 11 3 39.5t3 42.5q0 10 -3 36t-3 35q0 37 28 37h164 q29 0 29 -34q0 -14 -4 -40.5t-4 -35.5q0 -12 4 -41t4 -43q0 -35 -27 -35h-166q-17 0 -22.5 9t-5.5 30z" />
<glyph unicode="&#x152;" horiz-adv-x="1933" d="M76 705q0 370 150 543t450 173q55 0 156.5 -3t154.5 -3h768q25 0 25 -20l-8 -107q6 -94 6 -110q0 -15 -4.5 -19t-18.5 -4q-19 0 -78 6t-100 6h-344q-53 0 -53 -18q0 -5 3 -18t3 -23v-215q0 -25 9.5 -34t35.5 -9h356q18 0 23.5 -5.5t5.5 -21.5l-6 -98q6 -78 6 -98 q0 -10 -8 -16.5t-19 -6.5h-350q-32 0 -42.5 -12.5t-10.5 -44.5v-236q0 -42 14.5 -53.5t61.5 -11.5h327q24 0 33 8.5t10 32.5l4 73q2 16 5.5 22.5t13.5 6.5l106 -6q68 6 82 6q21 0 21 -24l-9 -160q9 -148 9 -187q0 -10 -8.5 -17t-20.5 -7q-26 0 -141 3t-166 3h-641 q-42 0 -123.5 -3t-124.5 -3q-286 0 -424.5 173t-138.5 538zM381 705q0 -265 67 -371.5t246 -106.5q58 0 90.5 2.5t57.5 7.5t35 18.5t14 31t4 49.5v745q0 32 -4 49t-13.5 30.5t-34.5 18.5t-56.5 7t-90.5 2q-84 0 -140.5 -21.5t-97 -75.5t-59 -148.5t-18.5 -237.5z" />
<glyph unicode="&#x153;" horiz-adv-x="1746" d="M70 514q0 130 47 240.5t119 171.5q39 0 78 17.5t69 38.5t85 38.5t124 17.5q189 0 295 -112q21 -21 26 -21q12 0 33 21q115 112 293 112q189 0 304.5 -100t115.5 -274q0 -74 -14 -123q-6 -26 -19 -36.5t-41 -10.5h-508q-28 0 -38.5 -7.5t-10.5 -23.5q0 -123 79.5 -188.5 t213.5 -65.5q165 0 268 86q10 10 25 10q16 0 16 -18l-8 -101v-86q0 -16 -5.5 -24.5t-23.5 -20.5q-55 -35 -139.5 -55t-171.5 -20q-103 0 -193.5 28t-150.5 82q-19 19 -33 19q-11 0 -35 -19q-60 -52 -140 -81t-165 -29q-249 0 -372 137t-123 397zM352 514q0 -166 50.5 -248 t158.5 -82q205 0 205 324q0 166 -49 246t-160 80q-205 0 -205 -320zM1030 672q3 -23 8.5 -31t18.5 -8q9 0 32 7t31 7h238q29 0 38 12t9 48q0 75 -47.5 114t-124.5 39q-89 0 -141.5 -51.5t-61.5 -136.5z" />
<glyph unicode="&#x178;" horiz-adv-x="1212" d="M25 1395q0 20 20 20h133q121 12 137 12q7 0 9 -3t3 -13t3 -23.5t11 -40t24 -57.5l151 -309q26 -53 49 -113t33.5 -82t24.5 -22q8 0 14 26t19.5 79.5t35.5 101.5l152 317q19 42 27 78t10 48.5t8 12.5l141 -12h135q21 0 21 -20q0 -32 -58 -148l-288 -583 q-53 -108 -69.5 -179.5t-16.5 -150.5v-135q0 -35 2 -101t2 -75q0 -29 -19 -29l-129 14q-119 -8 -133 -8q-22 0 -22 12l4 16q4 16 4 27v275q0 87 -15 149.5t-77 186.5l-289 573q-57 114 -57 156zM326 1534q0 12 3 37t3 39q0 10 -3 30.5t-3 30.5q0 16 6 23.5t22 7.5h150 q26 0 26 -29q0 -11 -4 -33t-4 -34q0 -14 5 -39t5 -39q0 -29 -26 -29h-150q-30 0 -30 35zM670 1669q0 33 28 33h150q29 0 29 -33q0 -10 -4.5 -30.5t-4.5 -32.5q0 -14 4.5 -39t4.5 -39q0 -29 -25 -29h-152q-28 0 -28 37q0 12 2 37t2 37q0 9 -3 29.5t-3 29.5z" />
<glyph unicode="&#x2c6;" horiz-adv-x="1021" d="M174 1122q0 14 23 52l129 196q19 30 29.5 37.5t31.5 7.5h248q21 0 31.5 -7.5t29.5 -37.5l129 -196q23 -38 23 -52t-19 -14h-133q-23 0 -38 8.5t-40 38.5l-75 88q-25 29 -39 29q-16 0 -39 -29l-76 -90q-24 -27 -38.5 -36t-33.5 -9h-124q-19 0 -19 14z" />
<glyph unicode="&#x2dc;" horiz-adv-x="1044" d="M178 1147q0 131 56.5 200.5t142.5 69.5q48 0 105.5 -26t108.5 -52t83 -26q67 0 71 71q0 21 3 28t14 7l41 -4q27 4 41 4t18 -7t4 -26q0 -123 -51.5 -195.5t-144.5 -72.5q-48 0 -106 26t-109.5 51.5t-83.5 25.5q-65 0 -72 -76q0 -20 -3 -25.5t-15 -5.5l-41 4q-31 -2 -43 -2 t-15.5 6t-3.5 25z" />
<glyph unicode="&#x2000;" horiz-adv-x="881" />
<glyph unicode="&#x2001;" horiz-adv-x="1763" />
<glyph unicode="&#x2002;" horiz-adv-x="881" />
<glyph unicode="&#x2003;" horiz-adv-x="1763" />
<glyph unicode="&#x2004;" horiz-adv-x="587" />
<glyph unicode="&#x2005;" horiz-adv-x="440" />
<glyph unicode="&#x2006;" horiz-adv-x="293" />
<glyph unicode="&#x2007;" horiz-adv-x="293" />
<glyph unicode="&#x2008;" horiz-adv-x="220" />
<glyph unicode="&#x2009;" horiz-adv-x="352" />
<glyph unicode="&#x200a;" horiz-adv-x="97" />
<glyph unicode="&#x2010;" horiz-adv-x="667" d="M102 434v187q0 18 7 22t30 4h264q42 0 85.5 1t48.5 1q17 0 22.5 -5.5t5.5 -22.5v-187q0 -18 -8 -22t-37 -4h-254q-37 0 -82 -4.5t-51 -4.5q-19 0 -25 6.5t-6 28.5z" />
<glyph unicode="&#x2011;" horiz-adv-x="667" d="M102 434v187q0 18 7 22t30 4h264q42 0 85.5 1t48.5 1q17 0 22.5 -5.5t5.5 -22.5v-187q0 -18 -8 -22t-37 -4h-254q-37 0 -82 -4.5t-51 -4.5q-19 0 -25 6.5t-6 28.5z" />
<glyph unicode="&#x2012;" horiz-adv-x="667" d="M102 434v187q0 18 7 22t30 4h264q42 0 85.5 1t48.5 1q17 0 22.5 -5.5t5.5 -22.5v-187q0 -18 -8 -22t-37 -4h-254q-37 0 -82 -4.5t-51 -4.5q-19 0 -25 6.5t-6 28.5z" />
<glyph unicode="&#x2013;" horiz-adv-x="1024" d="M76 629q0 8 90 8h721q13 0 28 5t17 5q10 0 10 -39v-164q0 -18 -11 -22t-63 -4h-741q-8 0 -18.5 -2t-12.5 -2q-10 0 -12 4t-2 26v164q0 6 -3 13t-3 8z" />
<glyph unicode="&#x2014;" horiz-adv-x="1669" d="M76 629q0 8 90 8h1366q13 0 28 5t17 5q10 0 10 -39v-164q0 -18 -11 -22t-63 -4h-1386q-8 0 -18.5 -2t-12.5 -2q-10 0 -12 4t-2 26v164q0 6 -3 13t-3 8z" />
<glyph unicode="&#x2018;" horiz-adv-x="436" d="M70 987v154q0 143 78.5 208.5t203.5 65.5q14 0 18.5 -3t4.5 -13v-80q0 -19 -19 -19q-71 0 -104 -21t-33 -67q0 -16 20 -25.5t43.5 -13.5t43.5 -16t20 -31v-139q0 -22 -6.5 -28.5t-28.5 -6.5h-211q-18 0 -24 7t-6 28z" />
<glyph unicode="&#x2019;" horiz-adv-x="436" d="M61 969v80q0 18 19 18q71 0 104 21t33 67q0 16 -20 25.5t-43.5 13.5t-43.5 16t-20 31v139q0 22 6.5 28.5t28.5 6.5h211q18 0 24.5 -7t6.5 -28v-153q0 -143 -79 -209t-204 -66q-14 0 -18.5 3.5t-4.5 13.5z" />
<glyph unicode="&#x201a;" horiz-adv-x="436" d="M61 -14v80q0 18 19 18q71 0 104 21t33 67q0 16 -20 25.5t-43.5 13.5t-43.5 16t-20 31v139q0 22 6.5 28.5t28.5 6.5h211q18 0 24.5 -7t6.5 -28v-153q0 -143 -79 -209t-204 -66q-14 0 -18.5 3.5t-4.5 13.5z" />
<glyph unicode="&#x201c;" horiz-adv-x="788" d="M70 987v154q0 143 78.5 208.5t203.5 65.5q14 0 18.5 -3t4.5 -13v-80q0 -19 -19 -19q-71 0 -104 -21t-33 -67q0 -16 20 -25.5t43.5 -13.5t43.5 -16t20 -31v-139q0 -22 -6.5 -28.5t-28.5 -6.5h-211q-18 0 -24 7t-6 28zM422 987v154q0 143 79 208.5t204 65.5q14 0 18 -3 t4 -13v-80q0 -19 -18 -19q-71 0 -104.5 -21t-33.5 -67q0 -16 20 -25.5t43.5 -13.5t43.5 -16t20 -31v-139q0 -22 -6 -28.5t-28 -6.5h-211q-18 0 -24.5 7t-6.5 28z" />
<glyph unicode="&#x201d;" horiz-adv-x="788" d="M61 969v80q0 18 19 18q71 0 104 21t33 67q0 16 -20 25.5t-43.5 13.5t-43.5 16t-20 31v139q0 22 6.5 28.5t28.5 6.5h211q18 0 24.5 -7t6.5 -28v-153q0 -143 -79 -209t-204 -66q-14 0 -18.5 3.5t-4.5 13.5zM414 969v80q0 18 18 18q71 0 104 21t33 67q0 16 -20 25.5 t-43.5 13.5t-43.5 16t-20 31v139q0 22 6.5 28.5t28.5 6.5h211q18 0 24.5 -7t6.5 -28v-153q0 -143 -79 -209t-204 -66q-14 0 -18 3.5t-4 13.5z" />
<glyph unicode="&#x201e;" horiz-adv-x="788" d="M61 -14v80q0 18 19 18q71 0 104 21t33 67q0 16 -20 25.5t-43.5 13.5t-43.5 16t-20 31v139q0 22 6.5 28.5t28.5 6.5h211q18 0 24.5 -7t6.5 -28v-153q0 -143 -79 -209t-204 -66q-14 0 -18.5 3.5t-4.5 13.5zM414 -14v80q0 18 18 18q71 0 104 21t33 67q0 16 -20 25.5 t-43.5 13.5t-43.5 16t-20 31v139q0 22 6.5 28.5t28.5 6.5h211q18 0 24.5 -7t6.5 -28v-153q0 -143 -79 -209t-204 -66q-14 0 -18 3.5t-4 13.5z" />
<glyph unicode="&#x2022;" horiz-adv-x="819" d="M156 696q0 86 65 86h381q62 0 62 -82q0 -24 -5 -65.5t-9 -70.5l-5 -29q21 -127 21 -193q0 -78 -60 -78h-381q-67 0 -67 103q0 26 2.5 68t5.5 71l2 29q-12 110 -12 161z" />
<glyph unicode="&#x2026;" horiz-adv-x="1419" d="M137 47q0 14 2 46t2 48q0 12 -2 39t-2 41q0 41 29 41h176q29 0 29 -43q0 -16 -4.5 -43.5t-4.5 -38.5q0 -16 5.5 -48t5.5 -46q0 -43 -29 -43h-176q-31 0 -31 47zM592 221q0 41 31 41h176q28 0 28 -43q0 -17 -4 -44t-4 -38q0 -16 4 -48t4 -46q0 -22 -5 -32.5t-21 -10.5 h-176q-31 0 -31 47q0 14 2 46t2 48q0 12 -3 39t-3 41zM1047 221q0 41 30 41h176q29 0 29 -43q0 -17 -4 -44t-4 -38q0 -16 4 -48t4 -46q0 -43 -27 -43h-176q-19 0 -24.5 11t-5.5 36q0 14 2 46t2 48q0 12 -3 39t-3 41z" />
<glyph unicode="&#x202f;" horiz-adv-x="352" />
<glyph unicode="&#x2039;" horiz-adv-x="763" d="M117 502v45q0 17 14 33l307 387q11 14 21 14l106 -8q58 2 70 2t12 -8q0 -4 -1.5 -7t-8 -12t-12.5 -18l-236 -369q-3 -5 -8.5 -11.5t-8.5 -11t-3 -8.5t8.5 -13.5t11.5 -14.5l223 -373q4 -7 17.5 -22.5t13.5 -20.5q0 -6 -3 -8t-15 -2h-146q-8 0 -16.5 -5t-11.5 -5 q-14 0 -41 34l-275 369q-3 4 -7 9l-6 7.5t-3.5 7t-1.5 9.5z" />
<glyph unicode="&#x203a;" horiz-adv-x="763" d="M117 76q0 5 1.5 8t8 11.5t12.5 17.5l236 370q3 6 11.5 14.5t8.5 14.5t-9 15t-11 14l-223 372q-3 6 -17 22t-14 23q0 9 18 9h146q8 0 16.5 5t11.5 5q14 0 41 -35l275 -369q2 -2 7 -7.5t6 -7.5t3 -6.5t2 -8.5v-47q0 -17 -14 -33l-307 -387q-10 -13 -21 -13l-106 9 q-58 -4 -70 -4t-12 8z" />
<glyph unicode="&#x205f;" horiz-adv-x="440" />
<glyph unicode="&#x20ac;" horiz-adv-x="1146" d="M96 375l4 31q-2 36 -2 38q0 9 11 9q3 0 25 -2t38 -2h45q-2 20 -2 59q0 47 2 70h-84q-16 0 -16 16l6 24q-2 25 -2 33q0 17 16 17q3 0 37.5 -2t56.5 -2q33 186 160.5 280t317.5 94q193 0 303 -59q14 -7 14 -21l-33 -92q-10 -66 -14 -82q-3 -16 -12 -16q-3 0 -15 8 q-85 60 -235 60q-206 0 -232 -172h428q13 0 13 -11l-4 -39v-20q0 -21 -17 -21q-6 0 -26 2.5t-31 2.5h-377q-2 -23 -2 -72q0 -39 2 -57h455q18 0 18 -13l-4 -35v-26q0 -13 -12 -13h-445q25 -178 252 -178q170 0 275 78q6 6 12 6q12 0 12 -14l-2 -86q12 -70 12 -88 q0 -22 -18 -31q-121 -69 -307 -69q-223 0 -347.5 98.5t-146.5 283.5h-119q-10 0 -10 13z" />
<glyph unicode="&#x2122;" horiz-adv-x="1470" d="M59 1266l4 75q-4 41 -4 45q0 9 3 12t12 3h477q10 0 10 -12l-4 -39q4 -80 4 -82q0 -11 -12 -11h-135q-25 0 -25 -20v-276q0 -11 3 -36.5t3 -29.5q0 -12 -14 -12h-143q-11 0 -11 14v330q0 3 2 11t2 11q0 8 -14 8h-149q-9 0 -9 9zM637 893q0 2 1.5 11.5t3 25t1.5 33.5v421 q0 17 19 17h184q13 0 18 -10q30 -69 54 -117l67 -141q2 -4 4.5 -10.5t4 -10.5t3.5 -8t4.5 -6t4.5 -2q4 0 20 37l68 141q15 29 34 73l19 44q5 10 16 10h183q20 0 20 -17v-421q0 -21 2 -44t2 -24q0 -12 -14 -12h-129q-11 0 -14 4t-3 14v166q0 16 1 58.5t1 56.5q0 22 -8 22 q-5 0 -9 -11t-12.5 -36t-21.5 -49l-71 -133q-9 -13 -9 -37v-41q0 -14 -12 -14h-139q-8 0 -10 2.5t-2 11.5v41q0 24 -9 37l-73 137q-12 21 -20.5 45.5t-12.5 35.5t-10 11q-9 0 -9 -12q0 -14 2 -55.5t2 -57.5v-180q0 -9 -2.5 -12.5t-11.5 -3.5h-127q-10 0 -10 10z" />
<glyph unicode="&#x25fc;" horiz-adv-x="1034" d="M0 0v1034h1034v-1034h-1034z" />
</font>
</defs>
</svg>
